<svg id="Layer_1" data-name="Layer 1" xmlns="http://www.w3.org/2000/svg" viewBox="0 0 558 558"><defs><style>.cls-1{fill:#050505;}.cls-2{fill:#fff;}.cls-3{fill:#626262;}.cls-4{fill:#696969;}</style></defs><title>logo</title><path class="cls-1" d="M558,0V558H0V0ZM211,397.14V377H191V358H172.09a16.21,16.21,0,0,1-.54-2.85c-.06-4.66,0-9.32,0-14a16.22,16.22,0,0,0-.45-2.64,30.49,30.49,0,0,0-3.43-.39c-10.59,0-21.18,0-31.77,0-1,0-2.09-.17-3.33-.28-.07-1.47-.14-2.69-.17-3.91q-.18-7.7-.35-15.4V299H113V240h19.52c0-4.71-.05-8.91,0-13.1,0-2.3.3-4.6.46-6.9h19v20h39v59h39v20h20v38.74a9.63,9.63,0,0,0,1.64.37q18.55,0,37.11-.11H308V337.62l.52-19.62H328V298.42c4.51,0,8.49.05,12.47,0,2.62,0,5.23-.26,7.84-.4H368V240l0,0h39V220h19.41c0,.67.12,1.33.12,2q0,46.57,0,93.15c0,.81-.13,1.61-.23,2.85H407v20H387v20H367.93c0,2.07,0,3.84,0,5.6-.1,4.47-.24,8.93-.37,13.4H347v39H328v98a16.7,16.7,0,0,0,2.14.31c5,0,9.93,0,14.9,0a10,10,0,0,0,2.12-.48c.08-1.07.21-2.14.22-3.22,0-10.63,0-21.26,0-31.89,0-1.13.14-2.26.25-3.76H367V436h20V416h20V397h20V377h39V357h19V318h20V259h18.76a20,20,0,0,0,.28-2.25q0-37.86,0-75.72V161H505V142H486.85c-1.6,0-1.57-1.15-1.57-2.29,0-4.8,0-9.6,0-14.4,0-1-.15-1.94-.26-3.3H465.67c0-2.85,0-5.27,0-7.7-.07-3.94-.2-7.89-.31-11.83a18.81,18.81,0,0,0-2.89-.48c-4.33-.05-8.66,0-13,0-1,0-1.92-.19-3.48-.35V64H426.78c-.1,1.3-.24,2.34-.26,3.39-.09,5.2-.15,10.41-.23,15.61H407V44H367V63H348V44H309.78a23.09,23.09,0,0,1-.46-3.14c-.05-4.36,0-8.72,0-13.08A24,24,0,0,0,309,25h-59c0,3.51.05,6.71,0,9.91-.07,3-.26,6.06-.4,9.09H210V63H191V44H152V83H132V64.09c-.93-.25-1.86-.76-2.8-.43-4.51,1.59-9.49,1.15-14.13,0-.94-.24-1.59.06-3.07.34V83H93v19H74v19.39a22.06,22.06,0,0,1-3,.42c-4.57,0-9.15,0-13.72,0-1,0-1.94.17-3.32.29V162H35V299H54v39H73v20H93v19h20v19h39v20h20v20h19v39h19a25,25,0,0,1,.43,3.21c.07,10.72.1,21.43.16,32.15,0,1.13.17,2.25.27,3.64H229V494.5c1-13,1-39,1-39V436H211.64c-.1-1.44-.24-2.49-.24-3.54,0-10.63,0-21.27,0-31.9A31.35,31.35,0,0,0,211,397.14Z"/><path class="cls-2" d="M210,475H191.1V436H171.49V416.31H151.85V396.68H112.65v-19.6H93.08V357.6H73.52V337.95H53.94V298.76H34.49V161.58H53.74V122.71c1.35-.13,2.31-.29,3.27-.29,4.5,0,9,0,13.5,0a21.38,21.38,0,0,0,2.91-.42,18.51,18.51,0,0,0,.49-2.9c.05-4.24,0-8.48,0-12.73,0-1,.18-1.92.34-3.49h38.07L113.16,64H132V82.89h19.76V44.25H191v19.1h19.47V44h39L309,44h38.62V63.49H367a15.06,15.06,0,0,0,.58-2.84c.06-4.33,0-8.67,0-13,0-1,.19-1.92.3-3H387V63.61h19.15V83.49c5.43,0,10.32,0,15.22,0,1.73,0,3.45-.28,5.18-.44h19v20H465c.11,3.89.23,7.78.31,11.67,0,2.39,0,4.79,0,7.6h19.33c.11,1.35.26,2.3.26,3.26,0,4.74,0,9.48,0,14.22,0,1.12,0,2.25,1.57,2.26,4.63.14,9.27.26,13.9.42,1.12,0,2.23.2,4,.36V181c4.28,0,7.83-.06,11.39,0,2.72.06,5.44.29,8.17.45q0,37.84,0,75.69a19.66,19.66,0,0,1-.29,2.25H504.62v58.79H485v39.33H445.48V377H425.76V396.2c-1.37.09-2.27.19-3.16.2-4.41,0-8.83,0-13.24,0a13.32,13.32,0,0,0-2.8.65v19.09H387v19.65h-19.6V475H347.94c-.1,1.51-.25,2.64-.25,3.78,0,10.66,0,21.33,0,32,0,1.08-.14,2.15-.22,3.23h-18.7v-78h18.5c.13-1.24.29-2,.3-2.85q.25-20.23.46-40.45c0-4,0-8,0-12,0-1,.2-1.91.35-3.16,5,0,9.71,0,14.45,0A40,40,0,0,0,367,377c.13-4.56.27-9.12.37-13.68,0-1.8,0-3.6,0-5.71h19.47V338h19.61V318.36h19.38c.11-1.24.23-2,.23-2.85q0-46.46,0-92.93c0-.66-.08-1.33-.12-2a11.67,11.67,0,0,0-2.6-.57q-17,.17-34,.45a19.54,19.54,0,0,0-2.44.41v18.69c-5.61,0-10.67,0-15.73,0a27.29,27.29,0,0,0-3.63.52l0,0a19.61,19.61,0,0,0-.58,3.34c0,10.64,0,21.28,0,31.93,0,1.12-.18,2.24-.27,3.4H348.2c-.07-1.26-.17-2.24-.17-3.22,0-4.49,0-9-.06-13.47a8.06,8.06,0,0,0-1-2.53l-37.91,0a12.68,12.68,0,0,0-.68,2.77c-.07,4.32,0,8.64,0,13,0,1.22.12,2.43.22,4.2h38.75v18.91l-38.87.22V318.4q-.19,7.71-.39,15.42c0,1.22-.13,2.43-.22,4.2H289V357H250v-39H230.4V298.3H191.33V239.49H171.4V220.82a22.14,22.14,0,0,0-2.39-.34q-17.23-.26-34.46-.47a16,16,0,0,0-2.68.42h-19c-.12,1.58-.27,2.63-.28,3.68q-.1,35.45-.15,70.9c0,1.33.13,2.65.19,4v19.53H132V338H171a16.26,16.26,0,0,1,.45,2.63c0,4.66,0,9.32,0,14a16.25,16.25,0,0,0,.53,2.85,21.82,21.82,0,0,0,2.92.42c4.15,0,8.31,0,12.46,0,1,0,1.9.23,3.54.44v38.17c4.11,0,7.5-.06,10.89,0,2.89.07,5.78.29,8.67.44h0a9,9,0,0,0-.1,1q.06,27.48.15,55a20.55,20.55,0,0,0,.38,2.57H230q0,19.49,0,39H211.24c-.11-1.48-.25-2.45-.25-3.42,0-4.41,0-8.82-.06-13.23A9.78,9.78,0,0,0,210,475Zm.79-196.16h38.84V259.78H210.74Zm78.08,20H269.66v19.14h19.16Z"/><path class="cls-3" d="M309,44l-59.54,0c.14-3.06.34-6.11.41-9.17.07-3.22,0-6.45,0-10h58.27a24.21,24.21,0,0,1,.34,2.81c0,4.41,0,8.81,0,13.22A23.34,23.34,0,0,0,309,44Z"/><path class="cls-4" d="M131.87,220.42a16,16,0,0,1,2.68-.42q17.23.19,34.46.47a22.14,22.14,0,0,1,2.39.34v18.67h19.93V298.3H230.4v19.65H250v39h39l0,.54q-18.87.06-37.74.11a10,10,0,0,1-1.67-.37V318.58H230.05V298.92H190.87V240.08H151.93V220.53H132.55Z"/><path class="cls-3" d="M367,377a40,40,0,0,1-4.15.47c-4.73.06-9.46,0-14.45,0-.14,1.25-.34,2.21-.35,3.16,0,4,0,8,0,12q-.21,20.23-.46,40.45c0,.8-.16,1.61-.3,2.85h-18.5v78h18.7a10.11,10.11,0,0,1-2.13.48c-5,0-10,0-15,0a16.85,16.85,0,0,1-2.16-.31v-97.9h19.24V377Z"/><path class="cls-3" d="M347,259.53a8.06,8.06,0,0,1,1,2.53c.1,4.49,0,9,.06,13.47,0,1,.1,2,.17,3.22h18.51c.1-1.17.27-2.28.27-3.4,0-10.64,0-21.28,0-31.93a19.61,19.61,0,0,1,.58-3.34c0,19.34,0,38.68,0,58.46H348.1l-.77-.13V279.5H308.58c-.1-1.77-.21-3-.22-4.2,0-4.32,0-8.64,0-13a12.68,12.68,0,0,1,.68-2.77c0,6.28,0,12.57,0,19.06h38.41c0-5,0-9.72,0-14.44C347.43,262.63,347.14,261.08,347,259.53Z"/><path class="cls-3" d="M131.87,220.42l.69.11c-.16,2.23-.41,4.45-.45,6.68-.07,4.06,0,8.13,0,12.69h-18.9v58.63H132.1c0,6.89,0,13.2,0,19.5a18.87,18.87,0,0,1-.57-3.13c-.07-4.17,0-8.33,0-12.5,0-1-.18-1.93-.33-3.4H112.58c-.07-1.33-.2-2.65-.19-4q.06-35.45.15-70.9c0-1.05.15-2.11.28-3.68Z"/><path class="cls-4" d="M132,64H113.16l-.82,38.87H74.28c-.16,1.56-.33,2.52-.34,3.49,0,4.24,0,8.48,0,12.73a18.51,18.51,0,0,1-.49,2.9c0-6.3,0-12.61,0-19.39H93V83.16h19.32V63.87a15.7,15.7,0,0,1,2.34-.43c5.08,0,10.16,0,15.24,0A8.9,8.9,0,0,1,132,64Z"/><path class="cls-3" d="M426.58,83c-1.73.15-3.45.41-5.18.44-4.89.06-9.79,0-15.22,0V63.61H387V44.67H367.9c-.11,1.05-.29,2-.3,3,0,4.33,0,8.67,0,13a15.06,15.06,0,0,1-.58,2.84c0-6.38,0-12.77,0-19.38h39.54V82.93h19.31Z"/><path class="cls-3" d="M406.55,397.09a13.32,13.32,0,0,1,2.8-.65c4.41-.07,8.83,0,13.24,0,.9,0,1.79-.11,3.16-.2V377h19.72v-19.4h20.08c0,6.29,0,12.58,0,19.53H426.45v20Z"/><path class="cls-3" d="M347.33,298.41l.77.13c-2.56.14-5.12.35-7.69.4-3.9.07-7.8,0-12.22,0v19.33H309.09l-.51,19.37q-.06-9.63-.12-19.26V298.62Z"/><path class="cls-3" d="M367.57,240.1a27.29,27.29,0,0,1,3.63-.52c5.06-.06,10.12,0,15.73,0V220.88a19.54,19.54,0,0,1,2.44-.41q17-.26,34-.45a11.67,11.67,0,0,1,2.6.57H406.58v19.5Z"/><path class="cls-3" d="M426.58,83l-.76-.1c.07-5.24.13-10.47.23-15.71,0-1.05.16-2.1.26-3.41h19.35v38.33c1.56.16,2.52.34,3.48.35,4.33,0,8.65,0,13,0A19,19,0,0,1,465,103H445.59V83Z"/><path class="cls-4" d="M112.58,299h18.57c.15,1.47.32,2.44.33,3.4,0,4.17,0,8.33,0,12.5a18.87,18.87,0,0,0,.57,3.13q.17,7.7.34,15.39c0,1.22.1,2.45.17,3.91,1.24.11,2.28.28,3.32.28,10.54,0,21.08,0,31.63,0A30.22,30.22,0,0,1,171,338H132V318.52H112.58Z"/><path class="cls-3" d="M210.5,397c-2.89-.15-5.78-.37-8.67-.44-3.39-.08-6.78,0-10.89,0V358.38c-1.64-.21-2.59-.43-3.54-.44-4.15,0-8.31,0-12.46,0a21.82,21.82,0,0,1-2.92-.42h19.14V377H210.5Z"/><path class="cls-3" d="M230,455.52H210.92a20.55,20.55,0,0,1-.38-2.57q-.1-27.48-.15-55a9,9,0,0,1,.1-1,30.6,30.6,0,0,1,.38,3.42c0,10.63,0,21.27,0,31.9,0,1,.14,2.1.25,3.54H230Z"/><path class="cls-3" d="M524,181.51c-2.72-.16-5.44-.39-8.17-.45-3.55-.08-7.11,0-11.39,0V142.79c-1.81-.17-2.92-.32-4-.36-4.63-.16-9.27-.28-13.9-.42h18.14v19.47H524Z"/><path class="cls-4" d="M210,475a9.78,9.78,0,0,1,1,2.81c.1,4.41,0,8.82.06,13.23,0,1,.14,1.94.25,3.42H230v19.34H210.81c-.1-1.23-.26-2.35-.27-3.48-.06-10.72-.09-21.43-.16-32.15A24.3,24.3,0,0,0,210,475Z"/><path class="cls-4" d="M308.46,318.4q.06,9.63.12,19.26c0,6.45,0,12.9,0,19.84H289l0-.54c0-6.13,0-12.26,0-18.94h18.86c.1-1.77.19-3,.22-4.2Q308.27,326.1,308.46,318.4Z"/><path class="cls-1" d="M210.74,278.88V259.78h38.84v19.11Z"/><path class="cls-1" d="M347,259.53c.16,1.55.45,3.1.47,4.65.06,4.72,0,9.44,0,14.44H309.06c0-6.49,0-12.78,0-19.06Z"/><path class="cls-1" d="M288.82,298.92v19.14H269.66V298.92Z"/></svg>