<?xml version="1.0" standalone="no"?>
<!DOCTYPE svg PUBLIC "-//W3C//DTD SVG 1.1//EN" "http://www.w3.org/Graphics/SVG/1.1/DTD/svg11.dtd" >
<svg xmlns="http://www.w3.org/2000/svg" xmlns:xlink="http://www.w3.org/1999/xlink" version="1.1">
<metadata>
Created by FontForge 20170731 at Sun Feb 20 05:53:08 2011
 By Aleksey,,,
Created by Rebecca Bettencourt with FontForge 2.0 (http://fontforge.sf.net)
</metadata>
<defs>
<font id="GoetheBold" horiz-adv-x="900" >
  <font-face 
    font-family="Goethe"
    font-weight="700"
    font-stretch="normal"
    units-per-em="2000"
    panose-1="0 0 0 0 0 0 0 0 0 0"
    ascent="1400"
    descent="-600"
    x-height="800"
    cap-height="1100"
    bbox="-1000 -600 2700 1500"
    underline-thickness="100"
    underline-position="-250"
    unicode-range="U+0020-FB07"
  />
<missing-glyph horiz-adv-x="0" 
 />
    <glyph glyph-name=".notdef" horiz-adv-x="0" 
 />
    <glyph glyph-name=".null" horiz-adv-x="0" 
 />
    <glyph glyph-name="nonmarkingreturn" horiz-adv-x="0" 
 />
    <glyph glyph-name="space" unicode=" " horiz-adv-x="600" 
 />
    <glyph glyph-name="exclam" unicode="!" horiz-adv-x="300" 
d="M0 0v200h200v-200h-200zM0 1100h200v-800h-200v800z" />
    <glyph glyph-name="quotedbl" unicode="&#x22;" horiz-adv-x="500" 
d="M0 1200h400v-300h-400v300z" />
    <glyph glyph-name="numbersign" unicode="#" horiz-adv-x="1000" 
d="M600 300h-200v200h-100v-200h-200v200h-100v100h200v200h-100v100h200v200h200v-200h100v200h200v-200h100v-100h-200v-200h100v-100h-200v-200zM500 600v200h-100v-200h100z" />
    <glyph glyph-name="dollar" unicode="$" 
d="M0 0v300h200v-100h100v300h-100v100h-100v100h-100v200h100v100h100v100h100v200h200v-200h300v-300h-200v100h-100v-300h100v-100h100v-100h100v-200h-100v-100h-100v-100h-100v-200h-200v200h-300zM200 700h100v200h-100v-200zM600 200v200h-100v-200h100z" />
    <glyph glyph-name="percent" unicode="%" horiz-adv-x="1100" 
d="M500 100v100h-100v-200h-200v200h100v200h100v200h-300v100h-100v300h100v100h700v-200h-100v-200h-100v-200h300v-100h100v-300h-100v-100h-300v100h-100zM700 400v-300h100v300h-100zM200 1000v-300h100v300h-100zM500 900h100v100h-100v-100z" />
    <glyph glyph-name="ampersand" unicode="&#x26;" horiz-adv-x="1100" 
d="M900 500v-100h-100v-100h-100v-100h100v-100h100v-100h-200v100h-200v-100h-300v100h-100v100h-100v300h100v100h100v100h-100v300h100v100h200v-100h100v-300h-100v-100h100v-100h100v-100h100v100h-100v100h400v-100h-100zM500 300h-100v200h-200v-300h100v-100h100
v100h100v100z" />
    <glyph glyph-name="quotesingle" unicode="'" horiz-adv-x="300" 
d="M0 1200h200v-300h-200v300z" />
    <glyph glyph-name="parenleft" unicode="(" horiz-adv-x="500" 
d="M100 1100h100v100h200v-100h-100v-300h-100v-700h100v-300h100v-100h-200v100h-100v300h-100v700h100v300z" />
    <glyph glyph-name="parenright" unicode=")" horiz-adv-x="500" 
d="M0 1100v100h200v-100h100v-300h100v-700h-100v-300h-100v-100h-200v100h100v300h100v700h-100v300h-100z" />
    <glyph glyph-name="asterisk" unicode="*" horiz-adv-x="700" 
d="M0 1100h200v100h200v-100h200v-100h-100v-100h100v-100h-200v-100h-200v100h-200v100h100v100h-100v100z" />
    <glyph glyph-name="plus" unicode="+" 
d="M500 100h-200v300h-300v100h300v300h200v-300h300v-100h-300v-300z" />
    <glyph glyph-name="comma" unicode="," horiz-adv-x="400" 
d="M0 -100v100h100v200h200v-200h-100v-100h-200z" />
    <glyph glyph-name="glyph16" unicode="-" horiz-adv-x="800" 
d="M700 400h-700v100h700v-100z" />
    <glyph glyph-name="period" unicode="." horiz-adv-x="300" 
d="M0 0v200h200v-200h-200z" />
    <glyph glyph-name="slash" unicode="/" horiz-adv-x="700" 
d="M0 0h100v300h100v300h100v300h100v300h200v-300h-100v-300h-100v-300h-100v-300h-100v-300h-200v300z" />
    <glyph glyph-name="zero" unicode="0" 
d="M500 100v200h100v500h-100v200h-200v-200h-100v-500h100v-200h200zM800 800v-500h-100v-200h-100v-100h-400v100h-100v200h-100v500h100v200h100v100h400v-100h100v-200h100z" />
    <glyph glyph-name="one" unicode="1" 
d="M500 100h100v-100h-400v100h100v800h-100v100h100v100h200v-1000z" />
    <glyph glyph-name="two" unicode="2" 
d="M0 0v200h100v100h100v100h100v100h100v100h100v100h100v200h-100v100h-300v-100h-200v100h100v100h500v-100h100v-100h100v-200h-100v-100h-100v-100h-100v-100h-100v-100h-100v-100h-100v-100h400v100h200v-200h-800z" />
    <glyph glyph-name="three" unicode="3" 
d="M500 100v100h100v200h-100v100h-300v100h300v100h100v200h-100v100h-300v-100h-200v100h100v100h500v-100h100v-100h100v-200h-100v-100h-100v-100h100v-100h100v-200h-100v-100h-100v-100h-500v100h-100v100h200v-100h300z" />
    <glyph glyph-name="four" unicode="4" 
d="M600 500h200v-100h-200v-300h100v-100h-400v100h100v300h-400v200h100v200h100v300h400v-600zM300 800v-200h-100v-100h200v300h-100z" />
    <glyph glyph-name="five" unicode="5" 
d="M500 100v100h100v300h-100v100h-500v300h100v200h700v-100h-500v-100h-100v-200h400v-100h100v-100h100v-300h-100v-100h-100v-100h-500v100h-100v100h200v-100h300z" />
    <glyph glyph-name="six" unicode="6" 
d="M500 100v100h100v300h-100v100h-200v-100h-100v-300h100v-100h200zM700 200v-100h-100v-100h-400v100h-100v100h-100v600h100v100h100v100h100v100h400v-100h-300v-100h-100v-100h-100v-100h400v-100h100v-100h100v-300h-100z" />
    <glyph glyph-name="seven" unicode="7" 
d="M500 700v200h100v100h-400v-100h-200v200h800v-200h-100v-200h-100v-300h-100v-400h-200v400h100v300h100z" />
    <glyph glyph-name="eight" unicode="8" 
d="M700 400h100v-200h-100v-100h-100v-100h-400v100h-100v100h-100v200h100v100h100v100h-100v100h-100v200h100v100h100v100h400v-100h100v-100h100v-200h-100v-100h-100v-100h100v-100zM300 500v-100h-100v-200h100v-100h200v100h100v200h-100v100h-200zM200 700h100v-100
h200v100h100v200h-100v100h-200v-100h-100v-200z" />
    <glyph glyph-name="nine" unicode="9" 
d="M500 100v-100h-300v100h200v100h100v100h100v100h-400v100h-100v100h-100v300h100v100h100v100h400v-100h100v-100h100v-600h-100v-100h-100v-100h-100zM300 500h200v100h100v300h-100v100h-200v-100h-100v-300h100v-100z" />
    <glyph glyph-name="colon" unicode=":" horiz-adv-x="300" 
d="M0 0v200h200v-200h-200zM0 700h200v-200h-200v200z" />
    <glyph glyph-name="semicolon" unicode=";" horiz-adv-x="400" 
d="M0 0h100v200h200v-200h-100v-100h-200v100zM300 700v-200h-200v200h200z" />
    <glyph glyph-name="less" unicode="&#x3c;" horiz-adv-x="600" 
d="M500 100h-200v100h-100v100h-100v100h-100v100h100v100h100v100h100v100h200v-100h-100v-100h-100v-100h-100v-100h100v-100h100v-100h100v-100z" />
    <glyph glyph-name="equal" unicode="=" horiz-adv-x="800" 
d="M700 400v-100h-700v100h700zM0 600h700v-100h-700v100z" />
    <glyph glyph-name="greater" unicode="&#x3e;" horiz-adv-x="600" 
d="M300 300v-100h-100v-100h-200v100h100v100h100v100h100v100h-100v100h-100v100h-100v100h200v-100h100v-100h100v-100h100v-100h-100v-100h-100z" />
    <glyph glyph-name="question" unicode="?" 
d="M600 500h-100v-200h-200v200h100v100h100v100h100v200h-100v100h-200v-100h-100v-100h-200v100h100v100h100v100h400v-100h100v-100h100v-200h-100v-100h-100v-100zM500 0h-200v200h200v-200z" />
    <glyph glyph-name="at" unicode="@" horiz-adv-x="1200" 
d="M1000 400v-100h-600v100h-100v200h100v100h400v-300h100v300h-100v100h-100v100h-300v-100h-100v-100h-100v-400h100v-100h100v-100h300v-100h-400v100h-200v200h-100v400h100v200h200v100h500v-100h200v-200h100v-300h-100zM600 600h-100v-200h100v200z" />
    <glyph glyph-name="A" unicode="A" horiz-adv-x="1100" 
d="M0 0v100h100v200h100v300h100v300h100v100h-100v100h300v-200h100v-300h100v-300h100v-200h100v-100h-400v100h100v200h-100v100h-200v-100h-100v-200h100v-100h-400zM600 500v100h-200v-100h200z" />
    <glyph glyph-name="B" unicode="B" horiz-adv-x="1000" 
d="M0 0v100h100v900h-100v100h700v-100h100v-100h100v-200h-100v-100h-100v-100h100v-100h100v-200h-100v-100h-100v-100h-700zM700 400h-100v100h-300v-400h300v100h100v200zM600 600v100h100v200h-100v100h-300v-400h300z" />
    <glyph glyph-name="C" unicode="C" horiz-adv-x="1000" 
d="M700 200v100h200v-200h-200v-100h-400v100h-200v200h-100v500h100v200h200v100h600v-300h-200v100h-100v100h-200v-100h-100v-100h-100v-500h100v-100h100v-100h200v100h100z" />
    <glyph glyph-name="D" unicode="D" horiz-adv-x="1000" 
d="M500 100v100h100v100h100v500h-100v100h-100v100h-200v-900h200zM0 0v100h100v900h-100v100h600v-100h200v-200h100v-500h-100v-200h-200v-100h-600z" />
    <glyph glyph-name="E" unicode="E" horiz-adv-x="1000" 
d="M0 0v100h100v900h-100v100h900v-200h-200v100h-400v-400h200v100h200v-300h-200v100h-200v-400h400v100h200v-200h-900z" />
    <glyph glyph-name="F" unicode="F" horiz-adv-x="1000" 
d="M0 0v100h100v900h-100v100h900v-200h-200v100h-400v-400h200v100h200v-300h-200v100h-200v-400h100v-100h-400z" />
    <glyph glyph-name="G" unicode="G" horiz-adv-x="1000" 
d="M700 200v300h-200v100h400v-600h-600v100h-200v200h-100v500h100v200h200v100h600v-300h-200v100h-100v100h-200v-100h-100v-100h-100v-500h100v-100h100v-100h200v100h100z" />
    <glyph glyph-name="H" unicode="H" horiz-adv-x="1100" 
d="M0 0v100h100v900h-100v100h400v-100h-100v-400h400v400h-100v100h400v-100h-100v-900h100v-100h-400v100h100v400h-400v-400h100v-100h-400z" />
    <glyph glyph-name="I" unicode="I" horiz-adv-x="500" 
d="M0 0v100h100v900h-100v100h400v-100h-100v-900h100v-100h-400z" />
    <glyph glyph-name="J" unicode="J" horiz-adv-x="1000" 
d="M500 100v-100h-300v100h-200v200h200v-100h100v-100h100v100h100v100h100v700h-100v100h400v-100h-100v-700h-100v-200h-200z" />
    <glyph glyph-name="K" unicode="K" horiz-adv-x="1000" 
d="M500 100h100v200h-100v200h-200v-400h100v-100h-400v100h100v900h-100v100h400v-100h-100v-300h100v100h100v100h100v100h-100v100h400v-100h-100v-100h-100v-100h-100v-100h-100v-100h100v-100h100v-200h100v-200h100v-100h-400v100z" />
    <glyph glyph-name="L" unicode="L" horiz-adv-x="1000" 
d="M0 0v100h100v900h-100v100h400v-100h-100v-900h400v100h200v-200h-900z" />
    <glyph glyph-name="M" unicode="M" horiz-adv-x="1300" 
d="M0 0v100h100v900h-100v100h300v-100h100v-100h100v-100h200v100h100v100h100v100h300v-100h-100v-900h100v-100h-400v100h100v700h-100v-100h-100v-200h-200v200h-100v100h-100v-700h100v-100h-400z" />
    <glyph glyph-name="N" unicode="N" horiz-adv-x="1100" 
d="M0 0v100h100v900h-100v100h300v-100h100v-200h100v-200h100v-200h100v600h-100v100h400v-100h-100v-1000h-200v100h-100v100h-100v200h-100v200h-100v-500h100v-100h-400z" />
    <glyph glyph-name="O" unicode="O" horiz-adv-x="1100" 
d="M700 200v100h100v500h-100v100h-100v100h-200v-100h-100v-100h-100v-500h100v-100h100v-100h200v100h100zM900 300v-200h-200v-100h-400v100h-200v200h-100v500h100v200h200v100h400v-100h200v-200h100v-500h-100z" />
    <glyph glyph-name="P" unicode="P" horiz-adv-x="1000" 
d="M0 0v100h100v900h-100v100h700v-100h100v-100h100v-200h-100v-100h-100v-100h-400v-400h100v-100h-400zM600 600v100h100v200h-100v100h-300v-400h300z" />
    <glyph glyph-name="Q" unicode="Q" horiz-adv-x="1100" 
d="M1000 -200h-300v100h-100v100h-200v-100h-200v100h100v100h-200v200h-100v500h100v200h200v100h400v-100h200v-200h100v-500h-100v-200h-200v-100h100v-100h200v-100zM800 800h-100v100h-100v100h-200v-100h-100v-100h-100v-500h100v-100h100v-100h200v100h100v100h100
v500z" />
    <glyph glyph-name="R" unicode="R" horiz-adv-x="1000" 
d="M0 0v100h100v900h-100v100h700v-100h100v-100h100v-200h-100v-100h-100v-100h-100v-100h100v-100h100v-200h100v-100h-200v100h-100v200h-100v100h-100v100h-100v-400h100v-100h-400zM600 600v100h100v200h-100v100h-300v-400h300z" />
    <glyph glyph-name="S" unicode="S" 
d="M500 100v100h100v200h-100v100h-300v100h-100v100h-100v200h100v100h100v100h600v-300h-200v100h-100v100h-200v-100h-100v-200h100v-100h300v-100h100v-100h100v-200h-100v-100h-100v-100h-600v300h200v-100h100v-100h200z" />
    <glyph glyph-name="T" unicode="T" 
d="M500 100h100v-100h-400v100h100v900h-100v-100h-200v200h800v-200h-200v100h-100v-900z" />
    <glyph glyph-name="U" unicode="U" horiz-adv-x="1200" 
d="M500 100h100v100h100v100h100v700h-100v100h400v-100h-100v-700h-100v-200h-200v-100h-300v100h-200v200h-100v700h-100v100h400v-100h-100v-700h100v-100h100v-100z" />
    <glyph glyph-name="V" unicode="V" horiz-adv-x="1100" 
d="M0 1100h400v-100h-100v-200h100v-300h200v300h100v200h-100v100h400v-100h-100v-200h-100v-300h-100v-300h-100v-200h-200v200h-100v300h-100v300h-100v200h-100v100z" />
    <glyph glyph-name="W" unicode="W" horiz-adv-x="1500" 
d="M1000 200v-200h-200v200h-200v-200h-200v200h-100v300h-100v300h-100v200h-100v100h400v-100h-100v-200h100v-300h200v300h200v-300h200v300h100v200h-100v100h400v-100h-100v-200h-100v-300h-100v-300h-100z" />
    <glyph glyph-name="X" unicode="X" horiz-adv-x="1100" 
d="M0 0v100h100v100h100v200h100v100h100v100h-100v100h-100v200h-100v100h-100v100h400v-100h-100v-100h100v-200h200v200h100v100h-100v100h400v-100h-100v-100h-100v-200h-100v-100h-100v-100h100v-100h100v-200h100v-100h100v-100h-400v100h100v100h-100v200h-200v-200
h-100v-100h100v-100h-400z" />
    <glyph glyph-name="Y" unicode="Y" horiz-adv-x="1100" 
d="M0 1100h400v-100h-100v-100h100v-200h200v200h100v100h-100v100h400v-100h-100v-100h-100v-200h-100v-100h-100v-500h100v-100h-400v100h100v500h-100v100h-100v200h-100v100h-100v100z" />
    <glyph glyph-name="Z" unicode="Z" 
d="M0 0v200h100v100h100v200h100v100h100v200h100v100h100v100h-400v-100h-200v200h800v-200h-100v-100h-100v-200h-100v-100h-100v-200h-100v-100h-100v-100h400v100h200v-200h-800z" />
    <glyph glyph-name="bracketleft" unicode="[" horiz-adv-x="500" 
d="M0 -300v1500h400v-100h-200v-1300h200v-100h-400z" />
    <glyph glyph-name="backslash" unicode="\" horiz-adv-x="700" 
d="M0 1200h200v-300h100v-300h100v-300h100v-300h100v-300h-200v300h-100v300h-100v300h-100v300h-100v300z" />
    <glyph glyph-name="bracketright" unicode="]" horiz-adv-x="500" 
d="M0 -200h200v1300h-200v100h400v-1500h-400v100z" />
    <glyph glyph-name="asciicircum" unicode="^" horiz-adv-x="700" 
d="M200 900h-200v100h100v100h100v100h200v-100h100v-100h100v-100h-200v100h-200v-100z" />
    <glyph glyph-name="underscore" unicode="_" 
d="M0 0h800v-100h-800v100z" />
    <glyph glyph-name="grave" unicode="`" horiz-adv-x="500" 
d="M0 1100v100h200v-100h100v-100h100v-100h-200v100h-100v100h-100z" />
    <glyph glyph-name="a" unicode="a" 
d="M300 300h-100v-200h200v100h100v200h-200v-100zM100 100h-100v200h100v100h100v100h300v200h-200v-100h-200v100h100v100h400v-100h100v-600h100v-100h-700v100z" />
    <glyph glyph-name="b" unicode="b" horiz-adv-x="1000" 
d="M0 0v100h100v1000h-100v100h300v-400h400v-100h100v-100h100v-400h-100v-100h-100v-100h-700zM400 700v-100h-100v-400h100v-100h200v100h100v400h-100v100h-200z" />
    <glyph glyph-name="c" unicode="c" 
d="M500 100v100h100v100h200v-100h-100v-100h-100v-100h-400v100h-100v100h-100v400h100v100h100v100h600v-300h-200v100h-100v100h-200v-100h-100v-400h100v-100h200z" />
    <glyph glyph-name="d" unicode="d" horiz-adv-x="1000" 
d="M500 100v100h100v400h-100v100h-200v-100h-100v-400h100v-100h200zM200 0v100h-100v100h-100v400h100v100h100v100h400v300h-100v100h300v-1100h100v-100h-700z" />
    <glyph glyph-name="e" unicode="e" 
d="M500 100v100h200v-100h-100v-100h-400v100h-100v100h-100v400h100v100h100v100h400v-100h100v-100h100v-200h-600v-200h100v-100h200zM600 500v100h-100v100h-200v-100h-100v-100h400z" />
    <glyph glyph-name="f" unicode="f" horiz-adv-x="500" 
d="M0 0v100h100v600h-100v100h100v200h100v100h100v100h300v-100h-200v-100h-100v-200h100v-100h-100v-600h100v-100h-400z" />
    <glyph glyph-name="g" unicode="g" horiz-adv-x="1000" 
d="M500 100v100h100v400h-100v100h-200v-100h-100v-400h100v-100h200zM700 -200v-100h-100v-100h-400v100h300v100h100v200h-400v100h-100v100h-100v400h100v100h100v100h700v-100h-100v-900h-100z" />
    <glyph glyph-name="h" unicode="h" horiz-adv-x="1000" 
d="M500 100h100v500h-100v100h-100v-100h-100v-500h100v-100h-400v100h100v1000h-100v100h300v-400h300v-100h100v-100h100v-500h100v-100h-400v100z" />
    <glyph glyph-name="i" unicode="i" horiz-adv-x="500" 
d="M100 1200h200v-200h-200v200zM0 0v100h100v600h-100v100h300v-700h100v-100h-400z" />
    <glyph glyph-name="j" unicode="j" horiz-adv-x="400" 
d="M100 1200h200v-200h-200v200zM100 -400h-300v100h200v100h100v900h-100v100h300v-1000h-100v-100h-100v-100z" />
    <glyph glyph-name="k" unicode="k" horiz-adv-x="1000" 
d="M500 100h100v100h-100v100h-200v-200h100v-100h-400v100h100v1000h-100v100h300v-700h100v100h100v100h-100v100h400v-100h-100v-100h-100v-100h-100v-100h100v-100h100v-100h100v-100h100v-100h-400v100z" />
    <glyph glyph-name="l" unicode="l" horiz-adv-x="500" 
d="M0 0v100h100v1000h-100v100h300v-1100h100v-100h-400z" />
    <glyph glyph-name="m" unicode="m" horiz-adv-x="1500" 
d="M500 100h100v500h-100v100h-100v-100h-100v-500h100v-100h-400v100h100v600h-100v100h600v-100h200v100h300v-100h100v-100h100v-500h100v-100h-400v100h100v500h-100v100h-100v-100h-100v-500h100v-100h-400v100z" />
    <glyph glyph-name="n" unicode="n" horiz-adv-x="1000" 
d="M500 100h100v500h-100v100h-100v-100h-100v-500h100v-100h-400v100h100v600h-100v100h600v-100h100v-100h100v-500h100v-100h-400v100z" />
    <glyph glyph-name="o" unicode="o" 
d="M500 100v100h100v400h-100v100h-200v-100h-100v-400h100v-100h200zM700 200v-100h-100v-100h-400v100h-100v100h-100v400h100v100h100v100h400v-100h100v-100h100v-400h-100z" />
    <glyph glyph-name="p" unicode="p" horiz-adv-x="1000" 
d="M0 -400v100h100v1000h-100v100h700v-100h100v-100h100v-400h-100v-100h-100v-100h-400v-300h100v-100h-400zM400 700v-100h-100v-400h100v-100h200v100h100v400h-100v100h-200z" />
    <glyph glyph-name="q" unicode="q" horiz-adv-x="1000" 
d="M500 100v100h100v400h-100v100h-200v-100h-100v-400h100v-100h200zM200 0v100h-100v100h-100v400h100v100h100v100h700v-100h-100v-1000h100v-100h-400v100h100v300h-400z" />
    <glyph glyph-name="r" unicode="r" 
d="M0 0v100h100v600h-100v100h700v-100h100v-100h-200v100h-200v-100h-100v-500h100v-100h-400z" />
    <glyph glyph-name="s" unicode="s" horiz-adv-x="800" 
d="M500 100v200h-200v100h-200v100h-100v200h100v100h600v-300h-200v100h-100v100h-200v-200h200v-100h200v-100h100v-200h-100v-100h-600v300h200v-100h100v-100h200z" />
    <glyph glyph-name="t" unicode="t" horiz-adv-x="500" 
d="M100 1200h200v-400h100v-100h-100v-600h200v-100h-300v100h-100v600h-100v100h100v400z" />
    <glyph glyph-name="u" unicode="u" horiz-adv-x="1000" 
d="M500 100v100h100v500h-100v100h300v-700h100v-100h-600v100h-100v100h-100v500h-100v100h300v-600h100v-100h100z" />
    <glyph glyph-name="v" unicode="v" 
d="M500 700h-200v-200h200v200zM600 500v-300h-100v-200h-200v200h-100v300h-100v200h-100v100h800v-100h-100v-200h-100z" />
    <glyph glyph-name="w" unicode="w" horiz-adv-x="1100" 
d="M900 500h-100v-300h-100v-200h-400v200h-100v300h-100v200h-100v100h400v-100h-100v-200h400v200h-100v100h400v-100h-100v-200z" />
    <glyph glyph-name="x" unicode="x" 
d="M500 100v100h-200v-100h200zM0 0v100h100v100h100v100h100v200h-100v100h-100v100h-100v100h800v-100h-100v-100h-100v-100h-100v-200h100v-100h100v-100h100v-100h-800zM300 600h200v100h-200v-100z" />
    <glyph glyph-name="y" unicode="y" 
d="M0 -400v100h100v100h100v200h100v200h-100v300h-100v200h-100v100h800v-100h-100v-200h-100v-300h-100v-200h-100v-200h-100v-100h-100v-100h-200zM300 500h200v200h-200v-200z" />
    <glyph glyph-name="z" unicode="z" horiz-adv-x="800" 
d="M500 100v100h200v-200h-700v200h100v100h100v100h100v100h100v100h100v100h-300v-100h-200v200h700v-200h-100v-100h-100v-100h-100v-100h-100v-100h-100v-100h300z" />
    <glyph glyph-name="braceleft" unicode="{" horiz-adv-x="700" 
d="M200 1100h100v100h300v-100h-200v-600h-100v-100h100v-600h200v-100h-300v100h-100v600h-200v100h200v600z" />
    <glyph glyph-name="bar" unicode="|" horiz-adv-x="300" 
d="M0 -300v1500h200v-1500h-200z" />
    <glyph glyph-name="braceright" unicode="}" horiz-adv-x="700" 
d="M0 1100v100h300v-100h100v-600h200v-100h-200v-600h-100v-100h-300v100h200v600h100v100h-100v600h-200z" />
    <glyph glyph-name="asciitilde" unicode="~" horiz-adv-x="800" 
d="M100 1200h300v-100h100v100h200v-100h-100v-100h-300v100h-100v-100h-200v100h100v100z" />
    <glyph glyph-name="nonbreakingspace" unicode="&#xa0;" horiz-adv-x="600" 
 />
    <glyph glyph-name="exclamdown" unicode="&#xa1;" horiz-adv-x="300" 
d="M0 -300v800h200v-800h-200zM0 600v200h200v-200h-200z" />
    <glyph glyph-name="cent" unicode="&#xa2;" 
d="M600 300h200v-100h-100v-100h-100v-100h-100v-200h-200v200h-100v100h-100v100h-100v400h100v100h100v100h100v200h200v-200h300v-300h-200v100h-100v-400h100v100zM300 600h-100v-400h100v400z" />
    <glyph glyph-name="sterling" unicode="&#xa3;" 
d="M0 0v100h100v100h100v400h-100v100h100v300h100v100h300v-100h100v-100h-200v100h-100v-300h200v-100h-200v-400h-100v-100h300v100h200v-200h-800z" />
    <glyph glyph-name="currency" unicode="&#xa4;" horiz-adv-x="800" 
d="M700 400h-100v-100h100v-100h-700v100h100v100h-100v200h100v100h-100v100h700v-100h-100v-100h100v-200zM400 700h-100v-100h-100v-200h100v-100h100v100h100v200h-100v100z" />
    <glyph glyph-name="yen" unicode="&#xa5;" horiz-adv-x="1100" 
d="M0 1100h400v-100h-100v-100h100v-200h200v200h100v100h-100v100h400v-100h-100v-100h-100v-200h-100v-100h100v-100h-200v-100h200v-100h-200v-200h100v-100h-400v100h100v200h-200v100h200v100h-200v100h100v100h-100v200h-100v100h-100v100z" />
    <glyph glyph-name="brokenbar" unicode="&#xa6;" horiz-adv-x="300" 
d="M0 -300v600h200v-600h-200zM0 600v600h200v-600h-200z" />
    <glyph glyph-name="section" unicode="&#xa7;" horiz-adv-x="800" 
d="M600 300h-100v-100h100v-200h-100v-100h-300v100h-100v100h200v-100h100v200h-200v100h-100v100h-100v200h100v100h100v100h-100v200h100v100h300v-100h100v-100h-200v100h-100v-200h200v-100h100v-100h100v-200h-100v-100zM400 400h100v200h-100v100h-100v-100h-100
v-200h100v-100h100v100z" />
    <glyph glyph-name="dieresis" unicode="&#xa8;" horiz-adv-x="800" 
d="M700 1200v-100h-300v100h300zM0 1100v100h300v-100h-300z" />
    <glyph glyph-name="copyright" unicode="&#xa9;" horiz-adv-x="1300" 
d="M1000 200v-100h-200v-100h-400v100h-200v100h-100v200h-100v300h100v200h100v100h200v100h400v-100h200v-100h100v-200h100v-300h-100v-200h-100zM900 500v-100h-100v-100h-400v100h-100v300h100v100h400v-100h100v-100h-200v100h-200v-300h200v100h200zM200 700v-300
h100v-200h200v-100h200v100h200v200h100v300h-100v200h-200v100h-200v-100h-200v-200h-100z" />
    <glyph glyph-name="ordfeminine" unicode="&#xaa;" horiz-adv-x="800" 
d="M600 500v-100h-500v100h500zM700 600h-600v100h-100v100h100v100h300v100h-300v100h400v-100h100v-300h100v-100zM400 700v100h-200v-100h200z" />
    <glyph glyph-name="guillemotleft" unicode="&#xab;" 
d="M600 300h100v-100h100v-100h-200v100h-100v100h-100v100h-100v100h100v100h100v100h100v100h200v-100h-100v-100h-100v-100h-100v-100h100v-100zM300 500h-100v-100h100v-100h100v-100h100v-100h-200v100h-100v100h-100v100h-100v100h100v100h100v100h100v100h200v-100
h-100v-100h-100v-100z" />
    <glyph glyph-name="logicalnot" unicode="&#xac;" 
d="M600 300v200h-600v100h800v-300h-200z" />
    <glyph glyph-name="hyphen" unicode="&#xad;" horiz-adv-x="800" 
d="M700 400h-700v100h700v-100z" />
    <glyph glyph-name="registered" unicode="&#xae;" horiz-adv-x="1300" 
d="M1000 200v-100h-200v-100h-400v100h-200v100h-100v200h-100v300h100v200h100v100h200v100h400v-100h200v-100h100v-200h100v-300h-100v-200h-100zM700 400h-100v100h-100v-200h-200v-100h200v-100h200v100h200v100h-200v100zM800 800v-100h100v-100h-100v-200h200v300
h-100v200h-200v100h-200v-100h-200v-100h500zM200 700v-300h100v300h-100zM500 600h200v100h-200v-100z" />
    <glyph glyph-name="glyph113" unicode="&#xaf;" horiz-adv-x="700" 
d="M0 1100v100h600v-100h-600z" />
    <glyph glyph-name="degree" unicode="&#xb0;" horiz-adv-x="700" 
d="M500 700v-100h-400v100h-100v300h100v100h400v-100h100v-300h-100zM200 1000v-300h200v300h-200z" />
    <glyph glyph-name="plusminus" unicode="&#xb1;" 
d="M0 0v100h800v-100h-800zM800 600v-100h-300v-300h-200v300h-300v100h300v300h200v-300h300z" />
    <glyph glyph-name="twosuperior" unicode="&#xb2;" horiz-adv-x="700" 
d="M100 1200h400v-100h100v-100h-100v-100h-100v-100h-100v-100h300v-100h-600v100h100v100h100v100h100v100h100v100h-200v-100h-200v100h100v100z" />
    <glyph glyph-name="threesuperior" unicode="&#xb3;" horiz-adv-x="700" 
d="M100 1200h400v-100h100v-100h-100v-100h100v-200h-100v-100h-400v100h-100v100h200v-100h200v200h-200v100h200v100h-200v-100h-200v100h100v100z" />
    <glyph glyph-name="acute" unicode="&#xb4;" horiz-adv-x="500" 
d="M200 900h-200v100h100v100h100v100h200v-100h-100v-100h-100v-100z" />
    <glyph glyph-name="glyph119" unicode="&#xb5;" horiz-adv-x="1000" 
d="M500 100v100h100v500h-100v100h300v-700h100v-100h-600v-400h-200v1100h-100v100h300v-600h100v-100h100z" />
    <glyph glyph-name="paragraph" unicode="&#xb6;" horiz-adv-x="1100" 
d="M200 1000v100h800v-100h-100v-1100h-400v500h-300v100h-100v100h-100v300h100v100h100z" />
    <glyph glyph-name="periodcentered" unicode="&#xb7;" horiz-adv-x="300" 
d="M0 700h200v-200h-200v200z" />
    <glyph glyph-name="cedilla" unicode="&#xb8;" horiz-adv-x="700" 
d="M200 0h200v-100h100v-200h-100v-100h-200v100h-100v100h200v100h-100v100z" />
    <glyph glyph-name="onesuperior" unicode="&#xb9;" horiz-adv-x="700" 
d="M500 700v-100h-400v100h100v300h-100v100h100v100h200v-500h100z" />
    <glyph glyph-name="ordmasculine" unicode="&#xba;" horiz-adv-x="700" 
d="M500 700v-100h-400v100h-100v300h100v100h400v-100h100v-300h-100zM200 1000v-300h200v300h-200zM100 400v100h400v-100h-400z" />
    <glyph glyph-name="guillemotright" unicode="&#xbb;" 
d="M700 400v-100h-100v-100h-100v-100h-200v100h100v100h100v100h100v100h-100v100h-100v100h-100v100h200v-100h100v-100h100v-100h100v-100h-100zM300 500h-100v100h-100v100h-100v100h200v-100h100v-100h100v-100h100v-100h-100v-100h-100v-100h-100v-100h-200v100h100
v100h100v100h100v100z" />
    <glyph glyph-name="onequarter" unicode="&#xbc;" horiz-adv-x="1100" 
d="M500 100v100h-100v-200h-200v200h100v200h100v200h-400v100h100v200h-100v100h100v100h200v-400h200v200h100v200h200v-200h-100v-200h-100v-300h-100v-100h100v100h100v100h200v-300h100v-100h-100v-100h-200v100h-200z" />
    <glyph glyph-name="onehalf" unicode="&#xbd;" horiz-adv-x="1100" 
d="M900 500v-100h100v-100h-100v-100h-100v-100h200v-100h-500v100h100v100h100v100h100v100h-100v-100h-200v-100h-100v-200h-200v200h100v200h100v200h-400v100h100v200h-100v100h100v100h200v-400h200v200h100v200h200v-200h-100v-200h-100v-200h300z" />
    <glyph glyph-name="threequarters" unicode="&#xbe;" horiz-adv-x="1100" 
d="M900 500v-300h100v-100h-100v-100h-200v100h-200v100h-100v-200h-200v200h100v200h100v200h-300v100h-100v100h200v-100h100v100h-100v100h100v100h-100v-100h-200v100h100v100h300v-100h100v-100h-100v-100h100v100h100v200h200v-200h-100v-200h-100v-300h-100v-100h100
v100h100v100h200z" />
    <glyph glyph-name="questiondown" unicode="&#xbf;" 
d="M700 -200h-100v-100h-400v100h-100v100h-100v200h100v100h100v100h100v200h200v-200h-100v-100h-100v-100h-100v-200h100v-100h200v100h100v100h200v-100h-100v-100zM300 600v200h200v-200h-200z" />
    <glyph glyph-name="Agrave" unicode="&#xc0;" horiz-adv-x="1100" 
d="M0 0v100h100v200h100v300h100v300h100v100h-100v100h300v-200h100v-300h100v-300h100v-200h100v-100h-400v100h100v200h-100v100h-200v-100h-100v-200h100v-100h-400zM600 500v100h-200v-100h200zM400 1300h-100v100h200v-100h100v-100h-200v100z" />
    <glyph glyph-name="Aacute" unicode="&#xc1;" horiz-adv-x="1100" 
d="M0 0v100h100v200h100v300h100v300h100v100h-100v100h300v-200h100v-300h100v-300h100v-200h100v-100h-400v100h100v200h-100v100h-200v-100h-100v-200h100v-100h-400zM600 500v100h-200v-100h200zM400 1300h100v100h200v-100h-100v-100h-200v100z" />
    <glyph glyph-name="Acircumflex" unicode="&#xc2;" horiz-adv-x="1100" 
d="M0 0v100h100v200h100v300h100v300h100v100h-100v100h300v-200h100v-300h100v-300h100v-200h100v-100h-400v100h100v200h-100v100h-200v-100h-100v-200h100v-100h-400zM600 500v100h-200v-100h200zM400 1300v100h200v-100h100v-100h-400v100h100z" />
    <glyph glyph-name="Atilde" unicode="&#xc3;" horiz-adv-x="1100" 
d="M0 0v100h100v200h100v300h100v300h100v100h-100v100h300v-200h100v-300h100v-300h100v-200h100v-100h-400v100h100v200h-100v100h-200v-100h-100v-200h100v-100h-400zM600 500v100h-200v-100h200zM200 1300h100v100h500v-100h-100v-100h-500v100z" />
    <glyph glyph-name="Adieresis" unicode="&#xc4;" horiz-adv-x="1100" 
d="M0 0v100h100v200h100v300h100v300h100v100h-100v100h300v-200h100v-300h100v-300h100v-200h100v-100h-400v100h100v200h-100v100h-200v-100h-100v-200h100v-100h-400zM600 500v100h-200v-100h200zM200 1300h600v-100h-600v100z" />
    <glyph glyph-name="Aring" unicode="&#xc5;" horiz-adv-x="1100" 
d="M0 0v100h100v200h100v300h100v300h100v200h-100v100h-100v100h100v100h400v-100h100v-100h-100v-100h-100v-200h100v-300h100v-300h100v-200h100v-100h-400v100h100v200h-100v100h-200v-100h-100v-200h100v-100h-400zM600 600h-200v-100h200v100zM400 1300v-100h200v100
h-200z" />
    <glyph glyph-name="AE" unicode="&#xc6;" horiz-adv-x="1500" 
d="M0 0v100h100v200h100v200h100v200h100v200h100v100h-100v100h1000v-200h-200v100h-400v-400h200v100h200v-300h-200v100h-200v-400h400v100h200v-200h-900v100h100v400h-200v-200h-100v-200h100v-100h-400zM600 600v100h-100v-100h100z" />
    <glyph glyph-name="Ccedilla" unicode="&#xc7;" horiz-adv-x="1000" 
d="M700 200v100h200v-200h-200v-100h-100v-100h100v-200h-100v-100h-200v100h-100v100h200v100h-100v100h-100v100h-200v200h-100v500h100v200h200v100h600v-300h-200v100h-100v100h-200v-100h-100v-100h-100v-500h100v-100h100v-100h200v100h100z" />
    <glyph glyph-name="Egrave" unicode="&#xc8;" horiz-adv-x="1000" 
d="M0 0v100h100v900h-100v100h900v-200h-200v100h-400v-400h200v100h200v-300h-200v100h-200v-400h400v100h200v-200h-900zM400 1300h-100v100h200v-100h100v-100h-200v100z" />
    <glyph glyph-name="Eacute" unicode="&#xc9;" horiz-adv-x="1000" 
d="M0 0v100h100v900h-100v100h900v-200h-200v100h-400v-400h200v100h200v-300h-200v100h-200v-400h400v100h200v-200h-900zM400 1300v100h200v-100h-100v-100h-200v100h100z" />
    <glyph glyph-name="Ecircumflex" unicode="&#xca;" horiz-adv-x="1000" 
d="M0 0v100h100v900h-100v100h900v-200h-200v100h-400v-400h200v100h200v-300h-200v100h-200v-400h400v100h200v-200h-900zM200 1300h100v100h300v-100h100v-100h-200v100h-100v-100h-200v100z" />
    <glyph glyph-name="Edieresis" unicode="&#xcb;" horiz-adv-x="1000" 
d="M100 1200v100h300v-100h-300zM0 0v100h100v900h-100v100h900v-200h-200v100h-400v-400h200v100h200v-300h-200v100h-200v-400h400v100h200v-200h-900zM500 1200v100h300v-100h-300z" />
    <glyph glyph-name="Igrave" unicode="&#xcc;" horiz-adv-x="500" 
d="M100 1200v100h-100v100h200v-100h100v-100h-200zM0 0v100h100v900h-100v100h400v-100h-100v-900h100v-100h-400z" />
    <glyph glyph-name="Iacute" unicode="&#xcd;" horiz-adv-x="500" 
d="M100 1200v100h100v100h200v-100h-100v-100h-200zM0 0v100h100v900h-100v100h400v-100h-100v-900h100v-100h-400z" />
    <glyph glyph-name="Icircumflex" unicode="&#xce;" horiz-adv-x="500" 
d="M0 0v100h100v900h-100v100h400v-100h-100v-900h100v-100h-400zM100 1400h200v-100h100v-100h-400v100h100v100z" />
    <glyph glyph-name="Idieresis" unicode="&#xcf;" horiz-adv-x="500" 
d="M0 0v100h100v900h-100v100h400v-100h-100v-900h100v-100h-400zM500 1200h-600v100h600v-100z" />
    <glyph glyph-name="Eth" unicode="&#xd0;" horiz-adv-x="1000" 
d="M500 100v100h100v100h100v500h-100v100h-100v100h-200v-400h100v-100h-100v-400h200zM0 0v100h100v400h-100v100h100v400h-100v100h600v-100h200v-200h100v-500h-100v-200h-200v-100h-600z" />
    <glyph glyph-name="Ntilde" unicode="&#xd1;" horiz-adv-x="1100" 
d="M100 1200v100h100v100h400v-100h100v100h200v-100h-100v-100h-400v100h-100v-100h-200zM0 0v100h100v900h-100v100h300v-100h100v-200h100v-200h100v-200h100v600h-100v100h400v-100h-100v-1000h-200v100h-100v100h-100v200h-100v200h-100v-500h100v-100h-400z" />
    <glyph glyph-name="Ograve" unicode="&#xd2;" horiz-adv-x="1100" 
d="M700 200v100h100v500h-100v100h-100v100h-200v-100h-100v-100h-100v-500h100v-100h100v-100h200v100h100zM900 300v-200h-200v-100h-400v100h-200v200h-100v500h100v200h200v100h400v-100h200v-200h100v-500h-100zM400 1300h-100v100h200v-100h100v-100h-200v100z" />
    <glyph glyph-name="Oacute" unicode="&#xd3;" horiz-adv-x="1100" 
d="M700 200v100h100v500h-100v100h-100v100h-200v-100h-100v-100h-100v-500h100v-100h100v-100h200v100h100zM900 300v-200h-200v-100h-400v100h-200v200h-100v500h100v200h200v100h400v-100h200v-200h100v-500h-100zM400 1300h100v100h200v-100h-100v-100h-200v100z" />
    <glyph glyph-name="Ocircumflex" unicode="&#xd4;" horiz-adv-x="1100" 
d="M800 800h-100v100h-100v100h-200v-100h-100v-100h-100v-500h100v-100h100v-100h200v100h100v100h100v500zM900 300v-200h-200v-100h-400v100h-200v200h-100v500h100v200h200v100h400v-100h200v-200h100v-500h-100zM400 1300v100h200v-100h100v-100h-400v100h100z" />
    <glyph glyph-name="Otilde" unicode="&#xd5;" horiz-adv-x="1100" 
d="M800 800h-100v100h-100v100h-200v-100h-100v-100h-100v-500h100v-100h100v-100h200v100h100v100h100v500zM900 300v-200h-200v-100h-400v100h-200v200h-100v500h100v200h200v100h400v-100h200v-200h100v-500h-100zM200 1300h100v100h500v-100h-100v-100h-500v100z" />
    <glyph glyph-name="Odieresis" unicode="&#xd6;" horiz-adv-x="1100" 
d="M800 800h-100v100h-100v100h-200v-100h-100v-100h-100v-500h100v-100h100v-100h200v100h100v100h100v500zM900 300v-200h-200v-100h-400v100h-200v200h-100v500h100v200h200v100h400v-100h200v-200h100v-500h-100zM200 1300h600v-100h-600v100z" />
    <glyph glyph-name="multiply" unicode="&#xd7;" 
d="M600 300h100v-100h100v-100h-200v100h-100v100h-200v-100h-100v-100h-200v100h100v100h100v100h100v100h-100v100h-100v100h-100v100h200v-100h100v-100h200v100h100v100h200v-100h-100v-100h-100v-100h-100v-100h100v-100z" />
    <glyph glyph-name="Oslash" unicode="&#xd8;" horiz-adv-x="1100" 
d="M0 0v100h100v200h-100v500h100v200h200v100h400v-100h100v100h200v-100h-100v-200h100v-500h-100v-200h-200v-100h-400v100h-100v-100h-200zM700 800v100h-100v100h-200v-100h-100v-100h-100v-400h100v100h100v100h100v100h100v100h100zM600 600v-100h-100v-100h-100
v-100h-100v-100h100v-100h200v100h100v100h100v400h-100v-100h-100z" />
    <glyph glyph-name="Ugrave" unicode="&#xd9;" horiz-adv-x="1200" 
d="M500 100h100v100h100v100h100v700h-100v100h400v-100h-100v-700h-100v-200h-200v-100h-300v100h-200v200h-100v700h-100v100h400v-100h-100v-700h100v-100h100v-100zM400 1300v100h200v-100h100v-100h-200v100h-100z" />
    <glyph glyph-name="Uacute" unicode="&#xda;" horiz-adv-x="1200" 
d="M500 100h100v100h100v100h100v700h-100v100h400v-100h-100v-700h-100v-200h-200v-100h-300v100h-200v200h-100v700h-100v100h400v-100h-100v-700h100v-100h100v-100zM400 1300h100v100h200v-100h-100v-100h-200v100z" />
    <glyph glyph-name="Ucircumflex" unicode="&#xdb;" horiz-adv-x="1200" 
d="M500 100h100v100h100v100h100v700h-100v100h400v-100h-100v-700h-100v-200h-200v-100h-300v100h-200v200h-100v700h-100v100h400v-100h-100v-700h100v-100h100v-100zM400 1300v100h300v-100h100v-100h-200v100h-100v-100h-200v100h100z" />
    <glyph glyph-name="Udieresis" unicode="&#xdc;" horiz-adv-x="1200" 
d="M500 100h100v100h100v100h100v700h-100v100h400v-100h-100v-700h-100v-200h-200v-100h-300v100h-200v200h-100v700h-100v100h400v-100h-100v-700h100v-100h100v-100zM200 1300h300v-100h-300v100zM900 1200h-300v100h300v-100z" />
    <glyph glyph-name="Yacute" unicode="&#xdd;" horiz-adv-x="1100" 
d="M0 1100h400v-100h-100v-100h100v-200h200v200h100v100h-100v100h400v-100h-100v-100h-100v-200h-100v-100h-100v-500h100v-100h-400v100h100v500h-100v100h-100v200h-100v100h-100v100zM400 1300h100v100h200v-100h-100v-100h-200v100z" />
    <glyph glyph-name="Thorn" unicode="&#xde;" horiz-adv-x="1000" 
d="M0 0v100h100v900h-100v100h400v-100h-100v-100h400v-100h100v-100h100v-300h-100v-100h-100v-100h-400v-100h100v-100h-400zM700 400v300h-100v100h-300v-500h300v100h100z" />
    <glyph glyph-name="germandbls" unicode="&#xdf;" horiz-adv-x="1000" 
d="M0 0v100h100v800h100v100h100v100h400v-100h100v-100h100v-200h-100v-100h-100v-100h100v-100h100v-200h-100v-100h-100v-100h-300v100h200v100h100v200h-100v100h-200v100h200v100h100v200h-100v100h-200v-100h-100v-900h-300z" />
    <glyph glyph-name="agrave" unicode="&#xe0;" 
d="M200 1000v100h200v-100h100v-100h-200v100h-100zM300 300h-100v-200h200v100h100v200h-200v-100zM100 100h-100v200h100v100h100v100h300v200h-200v-100h-200v100h100v100h400v-100h100v-600h100v-100h-700v100z" />
    <glyph glyph-name="aacute" unicode="&#xe1;" 
d="M300 300h-100v-200h200v100h100v200h-200v-100zM100 100h-100v200h100v100h100v100h300v200h-200v-100h-200v100h100v100h400v-100h100v-600h100v-100h-700v100zM400 1100h200v-100h-100v-100h-200v100h100v100z" />
    <glyph glyph-name="acircumflex" unicode="&#xe2;" 
d="M200 1000h100v100h200v-100h100v-100h-400v100zM300 300h-100v-200h200v100h100v200h-200v-100zM100 100h-100v200h100v100h100v100h300v200h-200v-100h-200v100h100v100h400v-100h100v-600h100v-100h-700v100z" />
    <glyph glyph-name="atilde" unicode="&#xe3;" 
d="M200 1000v100h500v-100h-100v-100h-500v100h100zM300 300h-100v-200h200v100h100v200h-200v-100zM100 100h-100v200h100v100h100v100h300v200h-200v-100h-200v100h100v100h400v-100h100v-600h100v-100h-700v100z" />
    <glyph glyph-name="adieresis" unicode="&#xe4;" 
d="M300 300h-100v-200h200v100h100v200h-200v-100zM100 900v100h600v-100h-600zM100 100h-100v200h100v100h100v100h300v200h-200v-100h-200v100h100v100h400v-100h100v-600h100v-100h-700v100z" />
    <glyph glyph-name="aring" unicode="&#xe5;" 
d="M200 1000h-100v100h100v100h400v-100h100v-100h-100v-100h-400v100zM300 300h-100v-200h200v100h100v200h-200v-100zM100 100h-100v200h100v100h100v100h300v200h-200v-100h-200v100h100v100h400v-100h100v-600h100v-100h-700v100zM500 1100h-200v-100h200v100z" />
    <glyph glyph-name="ae" unicode="&#xe6;" horiz-adv-x="1400" 
d="M1100 0h-400v100h-200v-100h-400v100h-100v200h100v100h100v100h300v200h-200v-100h-200v100h100v100h400v-100h100v100h400v-100h100v-100h100v-200h-600v-200h100v-100h200v100h200v-100h-100v-100zM1000 700h-200v-100h-100v-100h400v100h-100v100zM400 100v100h100
v200h-200v-100h-100v-200h200z" />
    <glyph glyph-name="ccedilla" unicode="&#xe7;" 
d="M500 100v100h100v100h200v-100h-100v-100h-100v-100h-100v-100h100v-200h-100v-100h-200v100h-100v100h200v100h-100v100h-100v100h-100v100h-100v400h100v100h100v100h600v-300h-200v100h-100v100h-200v-100h-100v-400h100v-100h200z" />
    <glyph glyph-name="egrave" unicode="&#xe8;" 
d="M500 100v100h200v-100h-100v-100h-400v100h-100v100h-100v400h100v100h100v100h400v-100h100v-100h100v-200h-600v-200h100v-100h200zM600 500v100h-100v100h-200v-100h-100v-100h400zM200 1000v100h200v-100h100v-100h-200v100h-100z" />
    <glyph glyph-name="eacute" unicode="&#xe9;" 
d="M500 100v100h200v-100h-100v-100h-400v100h-100v100h-100v400h100v100h100v100h400v-100h100v-100h100v-200h-600v-200h100v-100h200zM600 500v100h-100v100h-200v-100h-100v-100h400zM400 1100h200v-100h-100v-100h-200v100h100v100z" />
    <glyph glyph-name="ecircumflex" unicode="&#xea;" 
d="M500 100v100h200v-100h-100v-100h-400v100h-100v100h-100v400h100v100h100v100h400v-100h100v-100h100v-200h-600v-200h100v-100h200zM600 500v100h-100v100h-200v-100h-100v-100h400zM200 1000h100v100h200v-100h100v-100h-400v100z" />
    <glyph glyph-name="edieresis" unicode="&#xeb;" 
d="M500 100v100h200v-100h-100v-100h-400v100h-100v100h-100v400h100v100h100v100h400v-100h100v-100h100v-200h-600v-200h100v-100h200zM600 500v100h-100v100h-200v-100h-100v-100h400zM100 900v100h600v-100h-600z" />
    <glyph glyph-name="igrave" unicode="&#xec;" horiz-adv-x="500" 
d="M0 0v100h100v600h-100v100h300v-700h100v-100h-400zM0 1100v100h200v-100h100v-100h-200v100h-100z" />
    <glyph glyph-name="iacute" unicode="&#xed;" horiz-adv-x="500" 
d="M0 0v100h100v600h-100v100h300v-700h100v-100h-400zM100 1100h100v100h200v-100h-100v-100h-200v100z" />
    <glyph glyph-name="icircumflex" unicode="&#xee;" horiz-adv-x="500" 
d="M100 1200h200v-100h100v-100h-400v100h100v100zM0 0v100h100v600h-100v100h300v-700h100v-100h-400z" />
    <glyph glyph-name="idieresis" unicode="&#xef;" horiz-adv-x="500" 
d="M0 0v100h100v600h-100v100h300v-700h100v-100h-400zM500 1100v-100h-600v100h600z" />
    <glyph glyph-name="eth" unicode="&#xf0;" 
d="M500 100v100h100v400h-100v100h-200v-100h-100v-400h100v-100h200zM100 1200h400v-100h100v100h200v-100h-100v-200h100v-700h-100v-100h-100v-100h-400v100h-100v100h-100v400h100v100h100v100h400v100h-300v100h100v100h-300v100z" />
    <glyph glyph-name="ntilde" unicode="&#xf1;" horiz-adv-x="1000" 
d="M500 100h100v500h-100v100h-100v-100h-100v-500h100v-100h-400v100h100v600h-100v100h600v-100h100v-100h100v-500h100v-100h-400v100zM200 1000v100h300v-100h100v100h200v-100h-100v-100h-300v100h-100v-100h-200v100h100z" />
    <glyph glyph-name="ograve" unicode="&#xf2;" 
d="M500 100v100h100v400h-100v100h-200v-100h-100v-400h100v-100h200zM700 200v-100h-100v-100h-400v100h-100v100h-100v400h100v100h100v100h400v-100h100v-100h100v-400h-100zM200 1000v100h200v-100h100v-100h-200v100h-100z" />
    <glyph glyph-name="oacute" unicode="&#xf3;" 
d="M500 100v100h100v400h-100v100h-200v-100h-100v-400h100v-100h200zM700 200v-100h-100v-100h-400v100h-100v100h-100v400h100v100h100v100h400v-100h100v-100h100v-400h-100zM400 1100h200v-100h-100v-100h-200v100h100v100z" />
    <glyph glyph-name="ocircumflex" unicode="&#xf4;" 
d="M500 100v100h100v400h-100v100h-200v-100h-100v-400h100v-100h200zM700 200v-100h-100v-100h-400v100h-100v100h-100v400h100v100h100v100h400v-100h100v-100h100v-400h-100zM200 1000h100v100h200v-100h100v-100h-400v100z" />
    <glyph glyph-name="otilde" unicode="&#xf5;" 
d="M500 100v100h100v400h-100v100h-200v-100h-100v-400h100v-100h200zM700 200v-100h-100v-100h-400v100h-100v100h-100v400h100v100h100v100h400v-100h100v-100h100v-400h-100zM200 1000v100h500v-100h-100v-100h-500v100h100z" />
    <glyph glyph-name="odieresis" unicode="&#xf6;" 
d="M500 100v100h100v400h-100v100h-200v-100h-100v-400h100v-100h200zM700 200v-100h-100v-100h-400v100h-100v100h-100v400h100v100h100v100h400v-100h100v-100h100v-400h-100zM100 900v100h600v-100h-600z" />
    <glyph glyph-name="divide" unicode="&#xf7;" 
d="M500 100h-200v200h200v-200zM0 400v100h800v-100h-800zM500 600h-200v200h200v-200z" />
    <glyph glyph-name="oslash" unicode="&#xf8;" 
d="M500 100v100h100v300h-100v-200h-100v-100h-100v-100h200zM0 0v100h100v100h-100v400h100v100h100v100h600v-100h-100v-100h100v-400h-100v-100h-100v-100h-600zM300 300v200h100v100h100v100h-200v-100h-100v-300h100z" />
    <glyph glyph-name="ugrave" unicode="&#xf9;" horiz-adv-x="1000" 
d="M500 100v100h100v500h-100v100h300v-700h100v-100h-600v100h-100v100h-100v500h-100v100h300v-600h100v-100h100zM200 1000v100h200v-100h100v-100h-200v100h-100z" />
    <glyph glyph-name="uacute" unicode="&#xfa;" horiz-adv-x="1000" 
d="M500 100v100h100v500h-100v100h300v-700h100v-100h-600v100h-100v100h-100v500h-100v100h300v-600h100v-100h100zM400 1100h200v-100h-100v-100h-200v100h100v100z" />
    <glyph glyph-name="ucircumflex" unicode="&#xfb;" horiz-adv-x="1000" 
d="M500 100v100h100v500h-100v100h300v-700h100v-100h-600v100h-100v100h-100v500h-100v100h300v-600h100v-100h100zM200 1000h100v100h200v-100h100v-100h-400v100z" />
    <glyph glyph-name="udieresis" unicode="&#xfc;" horiz-adv-x="1000" 
d="M500 100v100h100v500h-100v100h300v-700h100v-100h-600v100h-100v100h-100v500h-100v100h300v-600h100v-100h100zM100 900v100h600v-100h-600z" />
    <glyph glyph-name="yacute" unicode="&#xfd;" 
d="M0 -400v100h100v100h100v200h100v200h-100v300h-100v200h-100v100h800v-100h-100v-200h-100v-300h-100v-200h-100v-200h-100v-100h-100v-100h-200zM300 500h200v200h-200v-200zM400 1100h200v-100h-100v-100h-200v100h100v100z" />
    <glyph glyph-name="thorn" unicode="&#xfe;" horiz-adv-x="1000" 
d="M0 -400v100h100v1400h-100v100h300v-400h400v-100h100v-100h100v-400h-100v-100h-100v-100h-400v-300h100v-100h-400zM400 700v-100h-100v-400h100v-100h200v100h100v400h-100v100h-200z" />
    <glyph glyph-name="ydieresis" unicode="&#xff;" 
d="M0 -400v100h100v100h100v200h100v200h-100v300h-100v200h-100v100h800v-100h-100v-200h-100v-300h-100v-200h-100v-200h-100v-100h-100v-100h-200zM100 900v100h600v-100h-600zM300 500h200v200h-200v-200z" />
    <glyph glyph-name="Amacron" unicode="&#x100;" horiz-adv-x="1100" 
d="M0 0v100h100v200h100v300h100v300h100v100h-100v100h300v-200h100v-300h100v-300h100v-200h100v-100h-400v100h100v200h-100v100h-200v-100h-100v-200h100v-100h-400zM600 500v100h-200v-100h200zM200 1300h600v-100h-600v100z" />
    <glyph glyph-name="amacron" unicode="&#x101;" 
d="M300 300h-100v-200h200v100h100v200h-200v-100zM100 900v100h600v-100h-600zM100 100h-100v200h100v100h100v100h300v200h-200v-100h-200v100h100v100h400v-100h100v-600h100v-100h-700v100z" />
    <glyph glyph-name="Abreve" unicode="&#x102;" horiz-adv-x="1100" 
d="M0 0v100h100v200h100v300h100v300h100v100h-100v100h300v-200h100v-300h100v-300h100v-200h100v-100h-400v100h100v200h-100v100h-200v-100h-100v-200h100v-100h-400zM600 600h-200v-100h200v100zM400 1300h200v100h200v-100h-100v-100h-400v100h-100v100h200v-100z" />
    <glyph glyph-name="abreve" unicode="&#x103;" 
d="M200 1000h-100v100h200v-100h200v100h200v-100h-100v-100h-400v100zM300 300h-100v-200h200v100h100v200h-200v-100zM100 100h-100v200h100v100h100v100h300v200h-200v-100h-200v100h100v100h400v-100h100v-600h100v-100h-700v100z" />
    <glyph glyph-name="Aogonek" unicode="&#x104;" horiz-adv-x="1100" 
d="M0 0v100h100v200h100v300h100v300h100v100h-100v100h300v-200h100v-300h100v-300h100v-200h100v-100h-400v100h100v200h-100v100h-200v-100h-100v-200h100v-100h-400zM600 600h-200v-100h200v100zM600 -300v-100h-200v100h-100v200h100v100h200v-100h-100v-100h200v-100
h-100z" />
    <glyph glyph-name="aogonek" unicode="&#x105;" 
d="M100 -100h100v100h-100v100h-100v200h100v100h100v100h300v200h-200v-100h-200v100h100v100h400v-100h100v-600h100v-100h-400v-100h-100v-100h200v-100h-100v-100h-200v100h-100v200zM300 300h-100v-200h200v100h100v200h-200v-100z" />
    <glyph glyph-name="Cacute" unicode="&#x106;" horiz-adv-x="1000" 
d="M700 200v100h200v-200h-200v-100h-400v100h-200v200h-100v500h100v200h200v100h600v-300h-200v100h-100v100h-200v-100h-100v-100h-100v-500h100v-100h100v-100h200v100h100zM400 1300h100v100h200v-100h-100v-100h-200v100z" />
    <glyph glyph-name="cacute" unicode="&#x107;" 
d="M500 100v100h100v100h200v-100h-100v-100h-100v-100h-400v100h-100v100h-100v400h100v100h100v100h600v-300h-200v100h-100v100h-200v-100h-100v-400h100v-100h200zM400 1100h200v-100h-100v-100h-200v100h100v100z" />
    <glyph glyph-name="Ccircumflex" unicode="&#x108;" horiz-adv-x="1000" 
d="M700 200v100h200v-200h-200v-100h-400v100h-200v200h-100v500h100v200h200v100h600v-300h-200v100h-100v100h-200v-100h-100v-100h-100v-500h100v-100h100v-100h200v100h100zM400 1300v100h200v-100h100v-100h-400v100h100z" />
    <glyph glyph-name="ccircumflex" unicode="&#x109;" 
d="M500 100v100h100v100h200v-100h-100v-100h-100v-100h-400v100h-100v100h-100v400h100v100h100v100h600v-300h-200v100h-100v100h-200v-100h-100v-400h100v-100h200zM200 1000h100v100h200v-100h100v-100h-400v100z" />
    <glyph glyph-name="Cdotaccent" unicode="&#x10a;" horiz-adv-x="1000" 
d="M700 200v100h200v-200h-200v-100h-400v100h-200v200h-100v500h100v200h200v100h600v-300h-200v100h-100v100h-200v-100h-100v-100h-100v-500h100v-100h100v-100h200v100h100zM600 1200h-300v100h300v-100z" />
    <glyph glyph-name="cdotaccent" unicode="&#x10b;" 
d="M500 100v100h100v100h200v-100h-100v-100h-100v-100h-400v100h-100v100h-100v400h100v100h100v100h600v-300h-200v100h-100v100h-200v-100h-100v-400h100v-100h200zM200 1000h300v-100h-300v100z" />
    <glyph glyph-name="Ccaron" unicode="&#x10c;" horiz-adv-x="1000" 
d="M700 200v100h200v-200h-200v-100h-400v100h-200v200h-100v500h100v200h200v100h600v-300h-200v100h-100v100h-200v-100h-100v-100h-100v-500h100v-100h100v-100h200v100h100zM400 1300h-100v100h400v-100h-100v-100h-200v100z" />
    <glyph glyph-name="ccaron" unicode="&#x10d;" 
d="M500 100v100h100v100h200v-100h-100v-100h-100v-100h-400v100h-100v100h-100v400h100v100h100v100h600v-300h-200v100h-100v100h-200v-100h-100v-400h100v-100h200zM200 1000v100h400v-100h-100v-100h-200v100h-100z" />
    <glyph glyph-name="Dcaron" unicode="&#x10e;" horiz-adv-x="1000" 
d="M0 0v100h100v900h-100v100h600v-100h200v-200h100v-500h-100v-200h-200v-100h-600zM500 100v100h100v100h100v500h-100v100h-100v100h-200v-900h200zM200 1300v100h400v-100h-100v-100h-200v100h-100z" />
    <glyph glyph-name="dcaron" unicode="&#x10f;" horiz-adv-x="1000" 
d="M500 100v100h100v400h-100v100h-200v-100h-100v-400h100v-100h200zM800 800v-700h100v-100h-700v100h-100v100h-100v400h100v100h100v100h400v300h-100v100h600v-300h-100v-100h-200zM800 1000v-100h100v100h-100z" />
    <glyph glyph-name="Dcroat" unicode="&#x110;" horiz-adv-x="1000" 
d="M500 100v100h100v100h100v500h-100v100h-100v100h-200v-400h100v-100h-100v-400h200zM0 0v100h100v400h-100v100h100v400h-100v100h600v-100h200v-200h100v-500h-100v-200h-200v-100h-600z" />
    <glyph glyph-name="dcroat" unicode="&#x111;" horiz-adv-x="1000" 
d="M500 100v100h100v400h-100v100h-200v-100h-100v-400h100v-100h200zM200 0v100h-100v100h-100v400h100v100h100v100h400v100h-100v100h100v100h-100v100h300v-200h100v-100h-100v-800h100v-100h-700z" />
    <glyph glyph-name="Emacron" unicode="&#x112;" horiz-adv-x="1000" 
d="M0 0v100h100v900h-100v100h900v-200h-200v100h-400v-400h200v100h200v-300h-200v100h-200v-400h400v100h200v-200h-900zM200 1300h500v-100h-500v100z" />
    <glyph glyph-name="emacron" unicode="&#x113;" 
d="M500 100v100h200v-100h-100v-100h-400v100h-100v100h-100v400h100v100h100v100h400v-100h100v-100h100v-200h-600v-200h100v-100h200zM600 500v100h-100v100h-200v-100h-100v-100h400zM100 900v100h600v-100h-600z" />
    <glyph glyph-name="Ebreve" unicode="&#x114;" horiz-adv-x="1000" 
d="M100 1400h200v-100h300v100h200v-100h-100v-100h-500v100h-100v100zM0 0v100h100v900h-100v100h900v-200h-200v100h-400v-400h200v100h200v-300h-200v100h-200v-400h400v100h200v-200h-900z" />
    <glyph glyph-name="ebreve" unicode="&#x115;" 
d="M500 100v100h200v-100h-100v-100h-400v100h-100v100h-100v400h100v100h100v100h400v-100h100v-100h100v-200h-600v-200h100v-100h200zM600 500v100h-100v100h-200v-100h-100v-100h400zM200 1000h-100v100h200v-100h200v100h200v-100h-100v-100h-400v100z" />
    <glyph glyph-name="Edotaccent" unicode="&#x116;" horiz-adv-x="1000" 
d="M0 0v100h100v900h-100v100h900v-200h-200v100h-400v-400h200v100h200v-300h-200v100h-200v-400h400v100h200v-200h-900zM600 1200h-300v100h300v-100z" />
    <glyph glyph-name="edotaccent" unicode="&#x117;" 
d="M500 100v100h200v-100h-100v-100h-400v100h-100v100h-100v400h100v100h100v100h400v-100h100v-100h100v-200h-600v-200h100v-100h200zM600 500v100h-100v100h-200v-100h-100v-100h400zM200 1000h300v-100h-300v100z" />
    <glyph glyph-name="Eogonek" unicode="&#x118;" horiz-adv-x="1000" 
d="M0 0v100h100v900h-100v100h900v-200h-200v100h-400v-400h200v100h200v-300h-200v100h-200v-400h400v100h200v-200h-300v-100h-100v-100h200v-100h-100v-100h-200v100h-100v200h100v100h-400z" />
    <glyph glyph-name="eogonek" unicode="&#x119;" 
d="M500 100v100h200v-100h-100v-100h-100v-100h-100v-100h200v-100h-100v-100h-200v100h-100v200h100v100h-100v100h-100v100h-100v400h100v100h100v100h400v-100h100v-100h100v-200h-600v-200h100v-100h200zM600 500v100h-100v100h-200v-100h-100v-100h400z" />
    <glyph glyph-name="Ecaron" unicode="&#x11a;" horiz-adv-x="1000" 
d="M0 0v100h100v900h-100v100h900v-200h-200v100h-400v-400h200v100h200v-300h-200v100h-200v-400h400v100h200v-200h-900zM200 1300v100h200v-100h100v100h200v-100h-100v-100h-300v100h-100z" />
    <glyph glyph-name="ecaron" unicode="&#x11b;" 
d="M500 100v100h200v-100h-100v-100h-400v100h-100v100h-100v400h100v100h100v100h400v-100h100v-100h100v-200h-600v-200h100v-100h200zM600 500v100h-100v100h-200v-100h-100v-100h400zM200 1000v100h400v-100h-100v-100h-200v100h-100z" />
    <glyph glyph-name="Gcircumflex" unicode="&#x11c;" horiz-adv-x="1000" 
d="M700 200v300h-200v100h400v-600h-600v100h-200v200h-100v500h100v200h200v100h600v-300h-200v100h-100v100h-200v-100h-100v-100h-100v-500h100v-100h100v-100h200v100h100zM400 1300v100h200v-100h100v-100h-400v100h100z" />
    <glyph glyph-name="gcircumflex" unicode="&#x11d;" horiz-adv-x="1000" 
d="M500 100v100h100v400h-100v100h-200v-100h-100v-400h100v-100h200zM700 -200v-100h-100v-100h-400v100h300v100h100v200h-400v100h-100v100h-100v400h100v100h100v100h700v-100h-100v-900h-100zM200 1000h100v100h200v-100h100v-100h-400v100z" />
    <glyph glyph-name="Gbreve" unicode="&#x11e;" horiz-adv-x="1000" 
d="M700 200v300h-200v100h400v-600h-600v100h-200v200h-100v500h100v200h200v100h600v-300h-200v100h-100v100h-200v-100h-100v-100h-100v-500h100v-100h100v-100h200v100h100zM200 1300v100h200v-100h200v100h200v-100h-100v-100h-400v100h-100z" />
    <glyph glyph-name="gbreve" unicode="&#x11f;" horiz-adv-x="1000" 
d="M500 100v100h100v400h-100v100h-200v-100h-100v-400h100v-100h200zM700 -200v-100h-100v-100h-400v100h300v100h100v200h-400v100h-100v100h-100v400h100v100h100v100h700v-100h-100v-900h-100zM200 1000h-100v100h200v-100h200v100h200v-100h-100v-100h-400v100z" />
    <glyph glyph-name="Gdotaccent" unicode="&#x120;" horiz-adv-x="1000" 
d="M700 200v300h-200v100h400v-600h-600v100h-200v200h-100v500h100v200h200v100h600v-300h-200v100h-100v100h-200v-100h-100v-100h-100v-500h100v-100h100v-100h200v100h100zM600 1200h-300v100h300v-100z" />
    <glyph glyph-name="gdotaccent" unicode="&#x121;" horiz-adv-x="1000" 
d="M500 100v100h100v400h-100v100h-200v-100h-100v-400h100v-100h200zM700 -200v-100h-100v-100h-400v100h300v100h100v200h-400v100h-100v100h-100v400h100v100h100v100h700v-100h-100v-900h-100zM200 1000h300v-100h-300v100z" />
    <glyph glyph-name="Gcommaaccent" unicode="&#x122;" horiz-adv-x="1000" 
d="M700 200v300h-200v100h400v-600h-600v100h-200v200h-100v500h100v200h200v100h600v-300h-200v100h-100v100h-200v-100h-100v-100h-100v-500h100v-100h100v-100h200v100h100zM600 -300h-100v-100h-200v100h100v200h200v-200z" />
    <glyph glyph-name="gcommaaccent" unicode="&#x123;" horiz-adv-x="1000" 
d="M500 100v100h100v400h-100v100h-200v-100h-100v-400h100v-100h200zM700 -200v-100h-100v-100h-400v100h300v100h100v200h-400v100h-100v100h-100v400h100v100h100v100h700v-100h-100v-900h-100zM400 1100v100h200v-100h-100v-200h-200v200h100z" />
    <glyph glyph-name="Hcircumflex" unicode="&#x124;" horiz-adv-x="1100" 
d="M0 0v100h100v900h-100v100h400v-100h-100v-400h400v400h-100v100h400v-100h-100v-900h100v-100h-400v100h100v400h-400v-400h100v-100h-400zM400 1300h-100v100h400v-100h-100v-100h-200v100z" />
    <glyph glyph-name="hcircumflex" unicode="&#x125;" horiz-adv-x="1000" 
d="M500 100h100v500h-100v100h-100v-100h-100v-500h100v-100h-400v100h100v1000h-100v100h300v-400h300v-100h100v-100h100v-500h100v-100h-400v100zM200 1300v100h400v-100h-100v-100h-200v100h-100z" />
    <glyph glyph-name="Hbar" unicode="&#x126;" horiz-adv-x="1100" 
d="M0 0v100h100v700h-100v100h100v100h-100v100h400v-100h-100v-100h400v100h-100v100h400v-100h-100v-100h100v-100h-100v-700h100v-100h-400v100h100v400h-400v-400h100v-100h-400zM700 800h-400v-200h400v200z" />
    <glyph glyph-name="hbar" unicode="&#x127;" horiz-adv-x="1000" 
d="M500 100h100v500h-100v100h-100v-100h-100v-500h100v-100h-400v100h100v800h-100v100h100v100h-100v100h300v-200h100v-100h-100v-100h300v-100h100v-100h100v-500h100v-100h-400v100z" />
    <glyph glyph-name="Itilde" unicode="&#x128;" horiz-adv-x="500" 
d="M0 0v100h100v900h-100v100h400v-100h-100v-900h100v-100h-400zM0 1400h500v-100h-100v-100h-500v100h100v100z" />
    <glyph glyph-name="itilde" unicode="&#x129;" horiz-adv-x="500" 
d="M0 0v100h100v600h-100v100h300v-700h100v-100h-400zM0 1100v100h500v-100h-100v-100h-500v100h100z" />
    <glyph glyph-name="Imacron" unicode="&#x12a;" horiz-adv-x="500" 
d="M0 0v100h100v900h-100v100h400v-100h-100v-900h100v-100h-400zM500 1200h-600v100h600v-100z" />
    <glyph glyph-name="imacron" unicode="&#x12b;" horiz-adv-x="500" 
d="M0 0v100h100v600h-100v100h300v-700h100v-100h-400zM500 1100v-100h-600v100h600z" />
    <glyph glyph-name="Ibreve" unicode="&#x12c;" horiz-adv-x="500" 
d="M0 0v100h100v900h-100v100h400v-100h-100v-900h100v-100h-400zM100 1400v-100h200v100h200v-100h-100v-100h-400v100h-100v100h200z" />
    <glyph glyph-name="ibreve" unicode="&#x12d;" horiz-adv-x="500" 
d="M100 1200v-100h200v100h200v-100h-100v-100h-400v100h-100v100h200zM0 0v100h100v600h-100v100h300v-700h100v-100h-400z" />
    <glyph glyph-name="Iogonek" unicode="&#x12e;" horiz-adv-x="500" 
d="M0 0v100h100v900h-100v100h400v-100h-100v-900h100v-100h-100v-100h-100v-100h200v-100h-100v-100h-200v100h-100v200h100v100h-100z" />
    <glyph glyph-name="iogonek" unicode="&#x12f;" horiz-adv-x="500" 
d="M100 1200h200v-200h-200v200zM0 0v100h100v600h-100v100h300v-700h100v-100h-100v-100h-100v-100h200v-100h-100v-100h-200v100h-100v200h100v100h-100z" />
    <glyph glyph-name="Idotaccent" unicode="&#x130;" horiz-adv-x="500" 
d="M0 0v100h100v900h-100v100h400v-100h-100v-900h100v-100h-400zM0 1200v100h300v-100h-300z" />
    <glyph glyph-name="dotlessi" unicode="&#x131;" horiz-adv-x="500" 
d="M0 0v100h100v600h-100v100h300v-700h100v-100h-400z" />
    <glyph glyph-name="IJ" unicode="&#x132;" horiz-adv-x="1100" 
d="M0 0v100h100v900h-100v100h400v-100h-100v-900h300v100h100v800h-100v100h400v-100h-100v-800h-100v-100h-100v-100h-700z" />
    <glyph glyph-name="ij" unicode="&#x133;" horiz-adv-x="800" 
d="M100 1200h200v-200h-200v200zM0 0v100h100v600h-100v100h300v-700h100v-100h-400zM700 -200h-100v-100h-100v-100h-300v100h200v100h100v900h-100v100h300v-1000zM500 1200h200v-200h-200v200z" />
    <glyph glyph-name="Jcircumflex" unicode="&#x134;" horiz-adv-x="1000" 
d="M500 100v-100h-300v100h-200v200h200v-100h100v-100h100v100h100v100h100v700h-100v100h400v-100h-100v-700h-100v-200h-200zM500 1200v100h100v100h200v-100h100v-100h-400z" />
    <glyph glyph-name="jcircumflex" unicode="&#x135;" horiz-adv-x="400" 
d="M100 1200h200v-100h100v-100h-400v100h100v100zM100 -400h-300v100h200v100h100v900h-100v100h300v-1000h-100v-100h-100v-100z" />
    <glyph glyph-name="Kcommaaccent" unicode="&#x136;" horiz-adv-x="1000" 
d="M0 0v100h100v900h-100v100h400v-100h-100v-300h100v100h100v100h100v100h-100v100h400v-100h-100v-100h-100v-100h-100v-100h-100v-100h100v-100h100v-200h100v-200h100v-100h-400v100h100v200h-100v200h-200v-400h100v-100h-400zM400 -400h-200v100h100v200h200v-200
h-100v-100z" />
    <glyph glyph-name="kcommaaccent" unicode="&#x137;" horiz-adv-x="1000" 
d="M500 100h100v100h-100v100h-200v-200h100v-100h-400v100h100v1000h-100v100h300v-700h100v100h100v100h-100v100h400v-100h-100v-100h-100v-100h-100v-100h100v-100h100v-100h100v-100h100v-100h-400v100zM200 -400v100h100v200h200v-200h-100v-100h-200z" />
    <glyph glyph-name="kgreenlandic" unicode="&#x138;" horiz-adv-x="1000" 
d="M500 100h100v100h-100v100h-200v-200h100v-100h-400v100h100v600h-100v100h300v-300h100v100h100v100h-100v100h400v-100h-100v-100h-100v-100h-100v-100h100v-100h100v-100h100v-100h100v-100h-400v100z" />
    <glyph glyph-name="Lacute" unicode="&#x139;" horiz-adv-x="1000" 
d="M0 0v100h100v900h-100v100h400v-100h-100v-900h400v100h200v-200h-900zM100 1200v100h100v100h200v-100h-100v-100h-200z" />
    <glyph glyph-name="lacute" unicode="&#x13a;" horiz-adv-x="500" 
d="M0 0v100h100v1000h-100v100h300v-1100h100v-100h-400zM100 1400h100v100h200v-100h-100v-100h-200v100z" />
    <glyph glyph-name="Lcommaaccent" unicode="&#x13b;" horiz-adv-x="1000" 
d="M0 0v100h100v900h-100v100h400v-100h-100v-900h400v100h200v-200h-900zM200 -400v100h100v200h200v-200h-100v-100h-200z" />
    <glyph glyph-name="lcommaaccent" unicode="&#x13c;" horiz-adv-x="500" 
d="M0 -400v100h100v200h200v-200h-100v-100h-200zM0 0v100h100v1000h-100v100h300v-1100h100v-100h-400z" />
    <glyph glyph-name="Lcaron" unicode="&#x13d;" horiz-adv-x="1000" 
d="M0 0v100h100v900h-100v100h400v-100h-100v-900h400v100h200v-200h-900zM100 1200v100h-100v100h400v-100h-100v-100h-200z" />
    <glyph glyph-name="lcaron" unicode="&#x13e;" horiz-adv-x="500" 
d="M0 0v100h100v1000h-100v100h600v-300h-100v-100h-200v-700h100v-100h-400zM400 1000h-100v-100h100v100z" />
    <glyph glyph-name="Ldot" unicode="&#x13f;" horiz-adv-x="1000" 
d="M0 0v100h100v900h-100v100h400v-100h-100v-400h300v-100h-300v-400h400v100h200v-200h-900z" />
    <glyph glyph-name="ldot" unicode="&#x140;" horiz-adv-x="500" 
d="M0 0v100h100v1000h-100v100h300v-600h300v-100h-300v-400h100v-100h-400z" />
    <glyph glyph-name="Lslash" unicode="&#x141;" horiz-adv-x="1000" 
d="M0 0v100h100v400h-100v100h100v400h-100v100h400v-100h-100v-300h100v-100h-100v-500h400v100h200v-200h-900z" />
    <glyph glyph-name="lslash" unicode="&#x142;" horiz-adv-x="500" 
d="M0 0v100h100v400h-100v100h100v500h-100v100h300v-500h100v-100h-100v-500h100v-100h-400z" />
    <glyph glyph-name="Nacute" unicode="&#x143;" horiz-adv-x="1100" 
d="M0 0v100h100v900h-100v100h300v-100h100v-200h100v-200h100v-200h100v600h-100v100h400v-100h-100v-1000h-200v100h-100v100h-100v200h-100v200h-100v-500h100v-100h-400zM400 1300h100v100h200v-100h-100v-100h-200v100z" />
    <glyph glyph-name="nacute" unicode="&#x144;" horiz-adv-x="1000" 
d="M500 100h100v500h-100v100h-100v-100h-100v-500h100v-100h-400v100h100v600h-100v100h600v-100h100v-100h100v-500h100v-100h-400v100zM400 1100h200v-100h-100v-100h-200v100h100v100z" />
    <glyph glyph-name="Ncommaaccent" unicode="&#x145;" horiz-adv-x="1100" 
d="M0 0v100h100v900h-100v100h300v-100h100v-200h100v-200h100v-200h100v600h-100v100h400v-100h-100v-1000h-200v100h-100v100h-100v200h-100v200h-100v-500h100v-100h-400zM600 -300h-100v-100h-200v100h100v200h200v-200z" />
    <glyph glyph-name="ncommaaccent" unicode="&#x146;" horiz-adv-x="1000" 
d="M500 100h100v500h-100v100h-100v-100h-100v-500h100v-100h-400v100h100v600h-100v100h600v-100h100v-100h100v-500h100v-100h-400v100zM600 -300h-100v-100h-200v100h100v200h200v-200z" />
    <glyph glyph-name="Ncaron" unicode="&#x147;" horiz-adv-x="1100" 
d="M0 0v100h100v900h-100v100h300v-100h100v-200h100v-200h100v-200h100v600h-100v100h400v-100h-100v-1000h-200v100h-100v100h-100v200h-100v200h-100v-500h100v-100h-400zM400 1300h-100v100h400v-100h-100v-100h-200v100z" />
    <glyph glyph-name="ncaron" unicode="&#x148;" horiz-adv-x="1000" 
d="M500 100h100v500h-100v100h-100v-100h-100v-500h100v-100h-400v100h100v600h-100v100h600v-100h100v-100h100v-500h100v-100h-400v100zM200 1000v100h200v-100h100v100h200v-100h-100v-100h-300v100h-100z" />
    <glyph glyph-name="napostrophe" unicode="&#x149;" horiz-adv-x="1000" 
d="M500 100h100v500h-100v100h-100v-100h-100v-500h100v-100h-400v100h100v600h-100v100h600v-100h100v-100h100v-500h100v-100h-400v100zM0 1000v-100h-200v100h100v100h-100v200h300v-300h-100z" />
    <glyph glyph-name="Eng" unicode="&#x14a;" horiz-adv-x="1100" 
d="M0 0v100h100v900h-100v100h300v-100h100v-200h100v-200h100v-200h100v600h-100v100h400v-100h-100v-1200h-100v-100h-100v-100h-400v100h300v100h100v300h-100v100h-100v200h-100v200h-100v-500h100v-100h-400z" />
    <glyph glyph-name="eng" unicode="&#x14b;" horiz-adv-x="1000" 
d="M0 0v100h100v600h-100v100h600v-100h100v-100h100v-800h-100v-100h-100v-100h-400v100h300v100h100v800h-100v100h-100v-100h-100v-500h100v-100h-400z" />
    <glyph glyph-name="Omacron" unicode="&#x14c;" horiz-adv-x="1100" 
d="M800 800h-100v100h-100v100h-200v-100h-100v-100h-100v-500h100v-100h100v-100h200v100h100v100h100v500zM900 300v-200h-200v-100h-400v100h-200v200h-100v500h100v200h200v100h400v-100h200v-200h100v-500h-100zM200 1300h600v-100h-600v100z" />
    <glyph glyph-name="omacron" unicode="&#x14d;" 
d="M500 100v100h100v400h-100v100h-200v-100h-100v-400h100v-100h200zM700 200v-100h-100v-100h-400v100h-100v100h-100v400h100v100h100v100h400v-100h100v-100h100v-400h-100zM100 900v100h600v-100h-600z" />
    <glyph glyph-name="Obreve" unicode="&#x14e;" horiz-adv-x="1100" 
d="M800 800h-100v100h-100v100h-200v-100h-100v-100h-100v-500h100v-100h100v-100h200v100h100v100h100v500zM400 1300h200v100h200v-100h-100v-100h-400v100h-100v100h200v-100zM700 0h-400v100h-200v200h-100v500h100v200h200v100h400v-100h200v-200h100v-500h-100v-200
h-200v-100z" />
    <glyph glyph-name="obreve" unicode="&#x14f;" 
d="M500 100v100h100v400h-100v100h-200v-100h-100v-400h100v-100h200zM700 200v-100h-100v-100h-400v100h-100v100h-100v400h100v100h100v100h400v-100h100v-100h100v-400h-100zM200 1000h-100v100h200v-100h200v100h200v-100h-100v-100h-400v100z" />
    <glyph glyph-name="Ohungarumlaut" unicode="&#x150;" horiz-adv-x="1100" 
d="M800 800h-100v100h-100v100h-200v-100h-100v-100h-100v-500h100v-100h100v-100h200v100h100v100h100v500zM900 300v-200h-200v-100h-400v100h-200v200h-100v500h100v200h200v100h400v-100h200v-200h100v-500h-100zM400 1300v100h400v-100h-100v-100h-400v100h100z" />
    <glyph glyph-name="ohungarumlaut" unicode="&#x151;" 
d="M500 100v100h100v400h-100v100h-200v-100h-100v-400h100v-100h200zM700 200v-100h-100v-100h-400v100h-100v100h-100v400h100v100h100v100h400v-100h100v-100h100v-400h-100zM200 1000h100v100h400v-100h-100v-100h-400v100z" />
    <glyph glyph-name="OE" unicode="&#x152;" horiz-adv-x="1400" 
d="M500 100v900h-100v-100h-100v-100h-100v-500h100v-100h100v-100h100zM900 500h-200v-400h400v100h200v-200h-1000v100h-200v200h-100v500h100v200h200v100h1000v-200h-200v100h-400v-400h200v100h200v-300h-200v100z" />
    <glyph glyph-name="oe" unicode="&#x153;" horiz-adv-x="1500" 
d="M800 800h400v-100h100v-100h100v-200h-600v-200h100v-100h200v100h200v-100h-100v-100h-400v100h-200v-100h-400v100h-100v100h-100v400h100v100h100v100h400v-100h200v100zM1200 600h-100v100h-200v-100h-100v-100h400v100zM600 600h-100v100h-200v-100h-100v-400h100
v-100h200v100h100v400z" />
    <glyph glyph-name="Racute" unicode="&#x154;" horiz-adv-x="1000" 
d="M0 0v100h100v900h-100v100h700v-100h100v-100h100v-200h-100v-100h-100v-100h-100v-100h100v-100h100v-200h100v-100h-200v100h-100v200h-100v100h-100v100h-100v-400h100v-100h-400zM600 600v100h100v200h-100v100h-300v-400h300zM400 1300v100h200v-100h-100v-100h-200
v100h100z" />
    <glyph glyph-name="racute" unicode="&#x155;" 
d="M0 0v100h100v600h-100v100h700v-100h100v-100h-200v100h-200v-100h-100v-500h100v-100h-400zM400 1100h200v-100h-100v-100h-200v100h100v100z" />
    <glyph glyph-name="Rcommaaccent" unicode="&#x156;" horiz-adv-x="1000" 
d="M0 0v100h100v900h-100v100h700v-100h100v-100h100v-200h-100v-100h-100v-100h-100v-100h100v-100h100v-200h100v-100h-200v100h-100v200h-100v100h-100v100h-100v-400h100v-100h-400zM600 600v100h100v200h-100v100h-300v-400h300zM600 -300h-100v-100h-200v100h100v200
h200v-200z" />
    <glyph glyph-name="rcommaaccent" unicode="&#x157;" 
d="M0 0v100h100v600h-100v100h700v-100h100v-100h-200v100h-200v-100h-100v-500h100v-100h-400zM200 -400v100h100v200h200v-200h-100v-100h-200z" />
    <glyph glyph-name="Rcaron" unicode="&#x158;" horiz-adv-x="1000" 
d="M0 0v100h100v900h-100v100h700v-100h100v-100h100v-200h-100v-100h-100v-100h-100v-100h100v-100h100v-200h100v-100h-200v100h-100v200h-100v100h-100v100h-100v-400h100v-100h-400zM600 600v100h100v200h-100v100h-300v-400h300zM500 1200h-200v100h-100v100h400v-100
h-100v-100z" />
    <glyph glyph-name="rcaron" unicode="&#x159;" 
d="M0 0v100h100v600h-100v100h700v-100h100v-100h-200v100h-200v-100h-100v-500h100v-100h-400zM200 1000v100h400v-100h-100v-100h-200v100h-100z" />
    <glyph glyph-name="Sacute" unicode="&#x15a;" 
d="M0 0v300h200v-100h100v-100h200v100h100v200h-100v100h-300v100h-100v100h-100v200h100v100h100v100h600v-300h-200v100h-100v100h-200v-100h-100v-200h100v-100h300v-100h100v-100h100v-200h-100v-100h-100v-100h-600zM400 1300v100h200v-100h-100v-100h-200v100h100z
" />
    <glyph glyph-name="sacute" unicode="&#x15b;" horiz-adv-x="800" 
d="M500 100v200h-200v100h-200v100h-100v200h100v100h600v-300h-200v100h-100v100h-200v-200h200v-100h200v-100h100v-200h-100v-100h-600v300h200v-100h100v-100h200zM200 1000h100v100h200v-100h-100v-100h-200v100z" />
    <glyph glyph-name="Scircumflex" unicode="&#x15c;" 
d="M0 0v300h200v-100h100v-100h200v100h100v200h-100v100h-300v100h-100v100h-100v200h100v100h100v100h600v-300h-200v100h-100v100h-200v-100h-100v-200h100v-100h300v-100h100v-100h100v-200h-100v-100h-100v-100h-600zM600 1200h-400v100h100v100h200v-100h100v-100z
" />
    <glyph glyph-name="scircumflex" unicode="&#x15d;" horiz-adv-x="800" 
d="M500 100v200h-200v100h-200v100h-100v200h100v100h600v-300h-200v100h-100v100h-200v-200h200v-100h200v-100h100v-200h-100v-100h-600v300h200v-100h100v-100h200zM200 1000v100h300v-100h100v-100h-200v100h-100v-100h-200v100h100z" />
    <glyph glyph-name="Scedilla" unicode="&#x15e;" 
d="M0 0v300h200v-100h100v-100h200v100h100v200h-100v100h-300v100h-100v100h-100v200h100v100h100v100h600v-300h-200v100h-100v100h-200v-100h-100v-200h100v-100h300v-100h100v-100h100v-200h-100v-100h-100v-100h-100v-100h100v-200h-100v-100h-200v100h-100v100h200
v100h-100v100h-300z" />
    <glyph glyph-name="scedilla" unicode="&#x15f;" horiz-adv-x="800" 
d="M500 100v200h-200v100h-200v100h-100v200h100v100h600v-300h-200v100h-100v100h-200v-200h200v-100h200v-100h100v-200h-100v-100h-100v-100h100v-200h-100v-100h-200v100h-100v100h200v100h-100v100h-300v300h200v-100h100v-100h200z" />
    <glyph glyph-name="Scaron" unicode="&#x160;" 
d="M0 0v300h200v-100h100v-100h200v100h100v200h-100v100h-300v100h-100v100h-100v200h100v100h100v100h600v-300h-200v100h-100v100h-200v-100h-100v-200h100v-100h300v-100h100v-100h100v-200h-100v-100h-100v-100h-600zM500 1200h-200v100h-100v100h400v-100h-100v-100z
" />
    <glyph glyph-name="scaron" unicode="&#x161;" horiz-adv-x="800" 
d="M500 100v200h-200v100h-200v100h-100v200h100v100h600v-300h-200v100h-100v100h-200v-200h200v-100h200v-100h100v-200h-100v-100h-600v300h200v-100h100v-100h200zM200 1000h-100v100h200v-100h100v100h200v-100h-100v-100h-300v100z" />
    <glyph glyph-name="Tcommaaccent" unicode="&#x162;" 
d="M500 100h100v-100h-100v-100h100v-200h-100v-100h-200v100h-100v100h200v100h-100v100h-100v100h100v900h-100v-100h-200v200h800v-200h-200v100h-100v-900z" />
    <glyph glyph-name="tcommaaccent" unicode="&#x163;" horiz-adv-x="500" 
d="M500 100v-100h-100v-100h100v-200h-100v-100h-200v100h-100v100h200v100h-100v200h-100v600h-100v100h100v400h200v-400h100v-100h-100v-600h200z" />
    <glyph glyph-name="Tcaron" unicode="&#x164;" 
d="M500 100h100v-100h-400v100h100v900h-100v-100h-200v200h800v-200h-200v100h-100v-900zM200 1300v100h400v-100h-100v-100h-200v100h-100z" />
    <glyph glyph-name="tcaron" unicode="&#x165;" horiz-adv-x="500" 
d="M100 1200h500v-300h-100v-100h-100v-100h-100v-600h200v-100h-300v100h-100v600h-100v100h100v400zM400 1000h-100v-100h100v100z" />
    <glyph glyph-name="Tbar" unicode="&#x166;" 
d="M500 100h100v-100h-400v100h100v400h-200v100h200v400h-100v-100h-200v200h800v-200h-200v100h-100v-400h200v-100h-200v-400z" />
    <glyph glyph-name="tbar" unicode="&#x167;" horiz-adv-x="500" 
d="M100 1200h200v-400h100v-100h-100v-200h100v-100h-100v-300h200v-100h-300v100h-100v300h-100v100h100v200h-100v100h100v400z" />
    <glyph glyph-name="Utilde" unicode="&#x168;" horiz-adv-x="1200" 
d="M500 100h100v100h100v100h100v700h-100v100h400v-100h-100v-700h-100v-200h-200v-100h-300v100h-200v200h-100v700h-100v100h400v-100h-100v-700h100v-100h100v-100zM200 1300h100v100h300v-100h100v100h200v-100h-100v-100h-300v100h-100v-100h-200v100z" />
    <glyph glyph-name="utilde" unicode="&#x169;" horiz-adv-x="1000" 
d="M500 100v100h100v500h-100v100h300v-700h100v-100h-600v100h-100v100h-100v500h-100v100h300v-600h100v-100h100zM200 1000v100h300v-100h100v100h200v-100h-100v-100h-300v100h-100v-100h-200v100h100z" />
    <glyph glyph-name="Umacron" unicode="&#x16a;" horiz-adv-x="1200" 
d="M500 100h100v100h100v100h100v700h-100v100h400v-100h-100v-700h-100v-200h-200v-100h-300v100h-200v200h-100v700h-100v100h400v-100h-100v-700h100v-100h100v-100zM200 1300h700v-100h-700v100z" />
    <glyph glyph-name="umacron" unicode="&#x16b;" horiz-adv-x="1000" 
d="M500 100v100h100v500h-100v100h300v-700h100v-100h-600v100h-100v100h-100v500h-100v100h300v-600h100v-100h100zM100 900v100h600v-100h-600z" />
    <glyph glyph-name="Ubreve" unicode="&#x16c;" horiz-adv-x="1200" 
d="M500 100h100v100h100v100h100v700h-100v100h400v-100h-100v-700h-100v-200h-200v-100h-300v100h-200v200h-100v700h-100v100h400v-100h-100v-700h100v-100h100v-100zM200 1300v100h200v-100h300v100h200v-100h-100v-100h-500v100h-100z" />
    <glyph glyph-name="ubreve" unicode="&#x16d;" horiz-adv-x="1000" 
d="M500 100v100h100v500h-100v100h300v-700h100v-100h-600v100h-100v100h-100v500h-100v100h300v-600h100v-100h100zM200 1000h-100v100h200v-100h200v100h200v-100h-100v-100h-400v100z" />
    <glyph glyph-name="Uring" unicode="&#x16e;" horiz-adv-x="1200" 
d="M500 100h100v100h100v100h100v700h-100v100h400v-100h-100v-700h-100v-200h-200v-100h-300v100h-200v200h-100v700h-100v100h400v-100h-100v-700h100v-100h100v-100zM400 1300v100h300v-100h100v-100h-100v-100h-300v100h-100v100h100zM500 1200h100v100h-100v-100z" />
    <glyph glyph-name="uring" unicode="&#x16f;" horiz-adv-x="1000" 
d="M500 100v100h100v500h-100v100h300v-700h100v-100h-600v100h-100v100h-100v500h-100v100h300v-600h100v-100h100zM200 1000h-100v100h100v100h400v-100h100v-100h-100v-100h-400v100zM500 1100h-200v-100h200v100z" />
    <glyph glyph-name="Uhungarumlaut" unicode="&#x170;" horiz-adv-x="1200" 
d="M500 100h100v100h100v100h100v700h-100v100h400v-100h-100v-700h-100v-200h-200v-100h-300v100h-200v200h-100v700h-100v100h400v-100h-100v-700h100v-100h100v-100zM400 1300v100h400v-100h-100v-100h-400v100h100z" />
    <glyph glyph-name="uhungarumlaut" unicode="&#x171;" horiz-adv-x="1000" 
d="M500 100v100h100v500h-100v100h300v-700h100v-100h-600v100h-100v100h-100v500h-100v100h300v-600h100v-100h100zM200 1000h100v100h400v-100h-100v-100h-400v100z" />
    <glyph glyph-name="Uogonek" unicode="&#x172;" horiz-adv-x="1200" 
d="M500 100h100v100h100v100h100v700h-100v100h400v-100h-100v-700h-100v-200h-200v-200h-100v-100h200v-100h-100v-100h-200v100h-100v200h100v100h-100v100h-200v200h-100v700h-100v100h400v-100h-100v-700h100v-100h100v-100z" />
    <glyph glyph-name="uogonek" unicode="&#x173;" horiz-adv-x="1000" 
d="M500 100v100h100v500h-100v100h300v-700h100v-100h-300v-100h-100v-100h200v-100h-100v-100h-200v100h-100v200h100v100h-100v100h-100v100h-100v500h-100v100h300v-600h100v-100h100z" />
    <glyph glyph-name="Wcircumflex" unicode="&#x174;" horiz-adv-x="1500" 
d="M1000 200v-200h-200v200h-200v-200h-200v200h-100v300h-100v300h-100v200h-100v100h400v-100h-100v-200h100v-300h200v300h200v-300h200v300h100v200h-100v100h400v-100h-100v-200h-100v-300h-100v-300h-100zM500 1200v100h100v100h200v-100h100v-100h-400z" />
    <glyph glyph-name="wcircumflex" unicode="&#x175;" horiz-adv-x="1100" 
d="M900 500h-100v-300h-100v-200h-400v200h-100v300h-100v200h-100v100h400v-100h-100v-200h400v200h-100v100h400v-100h-100v-200zM400 1100h200v-100h100v-100h-400v100h100v100z" />
    <glyph glyph-name="Ycircumflex" unicode="&#x176;" horiz-adv-x="1100" 
d="M0 1100h400v-100h-100v-100h100v-200h200v200h100v100h-100v100h400v-100h-100v-100h-100v-200h-100v-100h-100v-500h100v-100h-400v100h100v500h-100v100h-100v200h-100v100h-100v100zM400 1300v100h200v-100h100v-100h-400v100h100z" />
    <glyph glyph-name="ycircumflex" unicode="&#x177;" 
d="M0 -400v100h100v100h100v200h100v200h-100v300h-100v200h-100v100h800v-100h-100v-200h-100v-300h-100v-200h-100v-200h-100v-100h-100v-100h-200zM200 1000h100v100h200v-100h100v-100h-400v100zM300 500h200v200h-200v-200z" />
    <glyph glyph-name="Ydieresis" unicode="&#x178;" horiz-adv-x="1100" 
d="M0 1100h400v-100h-100v-100h100v-200h200v200h100v100h-100v100h400v-100h-100v-100h-100v-200h-100v-100h-100v-500h100v-100h-400v100h100v500h-100v100h-100v200h-100v100h-100v100zM200 1300h600v-100h-600v100z" />
    <glyph glyph-name="Zacute" unicode="&#x179;" 
d="M0 0v200h100v100h100v200h100v100h100v200h100v100h100v100h-400v-100h-200v200h800v-200h-100v-100h-100v-200h-100v-100h-100v-200h-100v-100h-100v-100h400v100h200v-200h-800zM400 1300v100h200v-100h-100v-100h-200v100h100z" />
    <glyph glyph-name="zacute" unicode="&#x17a;" horiz-adv-x="800" 
d="M500 100v100h200v-200h-700v200h100v100h100v100h100v100h100v100h100v100h-300v-100h-200v200h700v-200h-100v-100h-100v-100h-100v-100h-100v-100h-100v-100h300zM200 1000h100v100h200v-100h-100v-100h-200v100z" />
    <glyph glyph-name="Zdotaccent" unicode="&#x17b;" 
d="M0 0v200h100v100h100v200h100v100h100v200h100v100h100v100h-400v-100h-200v200h800v-200h-100v-100h-100v-200h-100v-100h-100v-200h-100v-100h-100v-100h400v100h200v-200h-800zM600 1200h-300v100h300v-100z" />
    <glyph glyph-name="zdotaccent" unicode="&#x17c;" horiz-adv-x="800" 
d="M500 100v100h200v-200h-700v200h100v100h100v100h100v100h100v100h100v100h-300v-100h-200v200h700v-200h-100v-100h-100v-100h-100v-100h-100v-100h-100v-100h300zM200 1000h300v-100h-300v100z" />
    <glyph glyph-name="Zcaron" unicode="&#x17d;" 
d="M0 0v200h100v100h100v200h100v100h100v200h100v100h100v100h-400v-100h-200v200h800v-200h-100v-100h-100v-200h-100v-100h-100v-200h-100v-100h-100v-100h400v100h200v-200h-800zM200 1300v100h400v-100h-100v-100h-200v100h-100z" />
    <glyph glyph-name="zcaron" unicode="&#x17e;" horiz-adv-x="800" 
d="M0 0v200h100v100h100v100h100v100h100v100h100v100h-300v-100h-200v200h700v-200h-100v-100h-100v-100h-100v-100h-100v-100h-100v-100h300v100h200v-200h-700zM200 1000h-100v100h200v-100h100v100h200v-100h-100v-100h-300v100z" />
    <glyph glyph-name="longs" unicode="&#x17f;" horiz-adv-x="500" 
d="M0 0v100h100v600h-100v100h100v200h100v100h100v100h300v-100h-200v-100h-100v-900h100v-100h-400z" />
    <glyph glyph-name="florin" unicode="&#x192;" horiz-adv-x="500" 
d="M0 -400h-300v100h200v100h100v200h100v700h-100v100h100v200h100v100h100v100h300v-100h-200v-100h-100v-200h100v-100h-100v-700h-100v-200h-100v-100h-100v-100z" />
    <glyph glyph-name="uni0237" unicode="&#x237;" horiz-adv-x="400" 
d="M100 -400h-300v100h200v100h100v900h-100v100h300v-1000h-100v-100h-100v-100z" />
    <glyph glyph-name="uni0250" unicode="&#x250;" 
d="M500 100v100h200v-100h-100v-100h-400v100h-100v600h-100v100h700v-100h100v-200h-100v-100h-100v-100h-300v-200h200zM600 500v200h-200v-100h-100v-200h200v100h100z" />
    <glyph glyph-name="uni0251" unicode="&#x251;" 
d="M500 700h-200v-100h-100v-500h200v100h100v500zM100 0v100h-100v500h100v100h100v100h500v-700h100v-100h-700z" />
    <glyph glyph-name="uni0252" unicode="&#x252;" 
d="M500 100v100h100v500h-200v-100h-100v-500h200zM100 0v700h-100v100h700v-100h100v-500h-100v-100h-100v-100h-500z" />
    <glyph glyph-name="uni0253" unicode="&#x253;" horiz-adv-x="1000" 
d="M0 0v100h100v900h100v100h100v100h400v-100h-300v-100h-100v-200h400v-100h100v-100h100v-400h-100v-100h-100v-100h-700zM400 700v-100h-100v-400h100v-100h200v100h100v400h-100v100h-200z" />
    <glyph glyph-name="uni0254" unicode="&#x254;" 
d="M500 100v100h100v400h-100v100h-200v-100h-100v-100h-200v300h600v-100h100v-100h100v-400h-100v-100h-100v-100h-400v100h-100v100h-100v100h200v-100h100v-100h200z" />
    <glyph glyph-name="uni0255" unicode="&#x255;" 
d="M600 500v100h-100v100h-200v-100h-100v-400h100v-100h100v100h100v100h200v-100h100v-100h-100v-100h-200v-100h-100v-100h-200v100h100v100h-100v100h-100v100h-100v400h100v100h100v100h600v-300h-200z" />
    <glyph glyph-name="uni0256" unicode="&#x256;" horiz-adv-x="1000" 
d="M500 100v100h100v400h-100v100h-200v-100h-100v-400h100v-100h200zM1100 -400h-300v100h-100v100h-100v200h-400v100h-100v100h-100v400h100v100h100v100h400v300h-100v100h300v-1400h100v-100h200v-100z" />
    <glyph glyph-name="uni0257" unicode="&#x257;" horiz-adv-x="1000" 
d="M500 100v100h100v400h-100v100h-200v-100h-100v-400h100v-100h200zM1100 1100h-200v-100h-100v-900h100v-100h-700v100h-100v100h-100v400h100v100h100v100h400v200h100v100h100v100h300v-100z" />
    <glyph glyph-name="uni0258" unicode="&#x258;" 
d="M500 100v100h100v200h-600v200h100v100h100v100h400v-100h100v-100h100v-400h-100v-100h-100v-100h-400v100h-100v100h200v-100h200zM600 500v100h-100v100h-200v-100h-100v-100h400z" />
    <glyph glyph-name="uni0259" unicode="&#x259;" 
d="M500 100v100h100v100h-400v-100h100v-100h200zM700 200v-100h-100v-100h-400v100h-100v100h-100v200h600v200h-100v100h-200v-100h-200v100h100v100h400v-100h100v-100h100v-400h-100z" />
    <glyph glyph-name="uni025A" unicode="&#x25a;" horiz-adv-x="1200" 
d="M500 100v100h100v100h-400v-100h100v-100h200zM1000 200h100v-100h-200v100h-200v-100h-100v-100h-400v100h-100v100h-100v200h600v200h-100v100h-200v-100h-200v100h100v100h400v-100h100v-100h100v-100h200v-300z" />
    <glyph glyph-name="uni025B" unicode="&#x25b;" horiz-adv-x="800" 
d="M500 100v100h200v-100h-100v-100h-500v100h-100v300h100v100h-100v200h100v100h500v-100h100v-100h-200v100h-300v-200h400v-100h-400v-300h300z" />
    <glyph glyph-name="uni025C" unicode="&#x25c;" horiz-adv-x="800" 
d="M500 100v300h-400v100h400v200h-300v-100h-200v100h100v100h500v-100h100v-200h-100v-100h100v-300h-100v-100h-500v100h-100v100h200v-100h300z" />
    <glyph glyph-name="uni025D" unicode="&#x25d;" horiz-adv-x="1100" 
d="M500 100v300h-400v100h400v200h-300v-100h-200v100h100v100h500v-100h300v-300h100v-100h-200v100h-100v100h-100v-100h100v-300h-100v-100h-500v100h-100v100h200v-100h300z" />
    <glyph glyph-name="uni025E" unicode="&#x25e;" horiz-adv-x="1000" 
d="M900 500h-100v-100h100v-300h-100v-100h-500v100h-100v100h-100v100h-100v200h100v100h100v100h100v100h500v-100h100v-200zM700 400h-400v100h400v200h-300v-100h-100v-100h-100v-200h100v-100h100v-100h300v300z" />
    <glyph glyph-name="uni025F" unicode="&#x25f;" horiz-adv-x="500" 
d="M0 0v100h100v600h-100v100h400v-100h-100v-600h100v-100h-100v-200h-100v-100h-100v-100h-300v100h200v100h100v200h-100z" />
    <glyph glyph-name="uni0260" unicode="&#x260;" horiz-adv-x="1000" 
d="M500 100v100h100v400h-100v100h-200v-100h-100v-400h100v-100h200zM1100 1100h-200v-100h-100v-1200h-100v-100h-100v-100h-400v100h300v100h100v200h-400v100h-100v100h-100v400h100v100h100v100h400v200h100v100h100v100h300v-100z" />
    <glyph glyph-name="uni0261" unicode="&#x261;" horiz-adv-x="1000" 
d="M900 500v-100h-100v-600h-100v-100h-100v-100h-400v100h-100v200h100v200h-100v100h-100v300h100v100h100v100h100v100h600v-100h-100v-200h100zM600 300v300h-100v100h-100v-100h-100v-100h-100v-300h100v-100h100v100h100v100h100zM400 0v-100h-100v-200h200v100h100
v300h-100v-100h-100z" />
    <glyph glyph-name="uni0262" unicode="&#x262;" 
d="M500 100v100h100v200h-200v100h400v-500h-600v100h-100v100h-100v400h100v100h100v100h600v-200h-300v100h-200v-100h-100v-400h100v-100h200z" />
    <glyph glyph-name="uni0263" unicode="&#x263;" 
d="M600 500v-300h-100v-200h100v-100h-100v-100h-200v100h-100v100h100v200h-100v300h-100v200h-100v100h800v-100h-100v-200h-100zM300 500h200v200h-200v-200z" />
    <glyph glyph-name="uni0264" unicode="&#x264;" 
d="M500 100v-100h-200v100h-100v500h100v100h-100v-100h-200v100h100v100h600v-100h100v-100h-200v100h-100v-100h100v-500h-100z" />
    <glyph glyph-name="uni0265" unicode="&#x265;" horiz-adv-x="1000" 
d="M500 100v100h100v500h-100v100h400v-100h-100v-1000h100v-100h-300v400h-300v100h-100v100h-100v500h-100v100h400v-100h-100v-500h100v-100h100z" />
    <glyph glyph-name="uni0266" unicode="&#x266;" horiz-adv-x="1000" 
d="M500 100h100v500h-100v100h-100v-100h-100v-500h100v-100h-400v100h100v900h100v100h100v100h400v-100h-300v-100h-100v-200h300v-100h100v-100h100v-500h100v-100h-400v100z" />
    <glyph glyph-name="uni0267" unicode="&#x267;" horiz-adv-x="1000" 
d="M0 0v100h100v900h100v100h100v100h400v-100h-300v-100h-100v-200h300v-100h100v-100h100v-800h-100v-100h-100v-100h-400v100h300v100h100v800h-100v100h-100v-100h-100v-500h100v-100h-400z" />
    <glyph glyph-name="uni0268" unicode="&#x268;" horiz-adv-x="500" 
d="M100 1200h200v-200h-200v200zM0 0v100h100v300h-100v100h100v200h-100v100h300v-300h100v-100h-100v-300h100v-100h-400z" />
    <glyph glyph-name="uni0269" unicode="&#x269;" horiz-adv-x="500" 
d="M100 0v700h-100v100h300v-700h100v-100h-300z" />
    <glyph glyph-name="uni026A" unicode="&#x26a;" horiz-adv-x="500" 
d="M0 0v100h100v600h-100v100h400v-100h-100v-600h100v-100h-400z" />
    <glyph glyph-name="uni026B" unicode="&#x26b;" horiz-adv-x="500" 
d="M0 0v100h100v400h-200v100h100v100h100v400h-100v100h300v-500h200v-100h-100v-100h-100v-400h100v-100h-400z" />
    <glyph glyph-name="uni026C" unicode="&#x26c;" horiz-adv-x="500" 
d="M0 0v100h100v300h-100v100h-100v100h100v100h100v400h-100v100h300v-700h100v-100h-100v-300h100v-100h-400z" />
    <glyph glyph-name="uni026D" unicode="&#x26d;" horiz-adv-x="500" 
d="M0 1100v100h300v-1400h100v-100h200v-100h-300v100h-100v100h-100v1300h-100z" />
    <glyph glyph-name="uni026E" unicode="&#x26e;" horiz-adv-x="1000" 
d="M0 0v100h100v1000h-100v100h300v-400h600v-100h-100v-100h-100v-100h-100v-100h100v-100h100v-100h100v-400h-100v-100h-100v-100h-400v100h300v100h100v400h-100v100h-300v-200h100v-100h-400zM600 600v100h-300v-300h100v100h100v100h100z" />
    <glyph glyph-name="uni026F" unicode="&#x26f;" horiz-adv-x="1500" 
d="M1000 200h100v500h-100v100h300v-700h100v-100h-600v100h-200v-100h-300v100h-100v100h-100v500h-100v100h300v-600h100v-100h100v100h100v500h-100v100h300v-600h100v-100h100v100z" />
    <glyph glyph-name="uni0270" unicode="&#x270;" horiz-adv-x="1500" 
d="M1000 200h100v500h-100v100h300v-1100h100v-100h-300v400h-300v100h-200v-100h-300v100h-100v100h-100v500h-100v100h300v-600h100v-100h100v100h100v500h-100v100h300v-600h100v-100h100v100z" />
    <glyph glyph-name="uni0271" unicode="&#x271;" horiz-adv-x="1400" 
d="M1100 -400h-400v100h300v100h100v800h-100v100h-100v-100h-100v-500h100v-100h-400v100h100v500h-100v100h-100v-100h-100v-500h100v-100h-400v100h100v600h-100v100h600v-100h200v100h300v-100h100v-100h100v-800h-100v-100h-100v-100z" />
    <glyph glyph-name="uni0272" unicode="&#x272;" horiz-adv-x="1000" 
d="M500 100h100v500h-100v100h-100v-100h-100v-800h-100v-100h-100v-100h-300v100h200v100h100v900h-100v100h600v-100h100v-100h100v-500h100v-100h-400v100z" />
    <glyph glyph-name="uni0273" unicode="&#x273;" 
d="M1100 -400h-300v100h-100v100h-100v800h-100v100h-100v-100h-100v-500h100v-100h-400v100h100v600h-100v100h600v-100h100v-100h100v-800h100v-100h200v-100z" />
    <glyph glyph-name="uni0274" unicode="&#x274;" horiz-adv-x="1000" 
d="M500 100v100h-100v200h-100v-300h100v-100h-400v100h100v600h-100v100h300v-100h100v-100h100v-200h100v300h-100v100h400v-100h-100v-700h-200v100h-100z" />
    <glyph glyph-name="uni0275" unicode="&#x275;" 
d="M500 100v100h100v200h-400v-200h100v-100h200zM600 500v100h-100v100h-200v-100h-100v-100h400zM700 200v-100h-100v-100h-400v100h-100v100h-100v400h100v100h100v100h400v-100h100v-100h100v-400h-100z" />
    <glyph glyph-name="uni0276" unicode="&#x276;" horiz-adv-x="1200" 
d="M1100 0h-900v100h-100v100h-100v400h100v100h100v100h900v-200h-200v100h-300v-200h100v100h200v-300h-200v100h-100v-300h300v100h200v-200zM400 700h-100v-100h-100v-400h100v-100h100v600z" />
    <glyph glyph-name="uni0277" unicode="&#x277;" horiz-adv-x="1100" 
d="M900 500h100v-400h-100v-100h-800v100h-100v400h100v100h100v100h100v100h400v-100h100v-100h100v-100zM600 500v-400h200v400h-100v100h-100v100h-200v-100h-100v-100h-100v-400h200v400h200z" />
    <glyph glyph-name="uni0278" unicode="&#x278;" 
d="M700 200v-100h-100v-100h-100v-100h100v-100h-400v100h100v100h-100v100h-100v100h-100v400h100v100h100v100h100v100h-100v100h400v-100h-100v-100h100v-100h100v-100h100v-400h-100zM600 600h-100v-400h100v400zM300 600h-100v-400h100v400z" />
    <glyph glyph-name="uni0279" unicode="&#x279;" 
d="M500 700h-100v100h400v-100h-100v-600h100v-100h-700v100h-100v100h200v-100h200v100h100v500z" />
    <glyph glyph-name="uni027A" unicode="&#x27a;" 
d="M100 0v100h-100v100h200v-100h200v100h100v900h-100v100h400v-100h-100v-1000h100v-100h-700z" />
    <glyph glyph-name="uni027B" unicode="&#x27b;" 
d="M700 -200h100v-100h200v-100h-300v100h-100v100h-100v200h-400v100h-100v100h200v-100h200v100h100v500h-100v100h400v-100h-100v-900z" />
    <glyph glyph-name="uni027C" unicode="&#x27c;" 
d="M0 -400v100h100v1000h-100v100h700v-100h100v-100h-200v100h-200v-100h-100v-900h100v-100h-400z" />
    <glyph glyph-name="uni027D" unicode="&#x27d;" 
d="M400 700v-100h-100v-800h100v-100h200v-100h-300v100h-100v100h-100v900h-100v100h700v-100h100v-100h-200v100h-200z" />
    <glyph glyph-name="uni027E" unicode="&#x27e;" 
d="M0 0v100h100v500h100v100h100v100h400v-100h100v-100h-200v100h-200v-100h-100v-500h100v-100h-400z" />
    <glyph glyph-name="uni027F" unicode="&#x27f;" 
d="M500 100v500h-100v100h-200v-100h-200v100h100v100h400v-100h100v-100h100v-500h100v-100h-400v100h100z" />
    <glyph glyph-name="uni0280" unicode="&#x280;" 
d="M500 100h-100v100h-100v-100h100v-100h-400v100h100v600h-100v100h700v-100h100v-300h-100v-100h-200v-100h100v-100h200v-100h-300v100zM600 400v300h-300v-300h300z" />
    <glyph glyph-name="uni0281" unicode="&#x281;" 
d="M0 0v100h100v600h-100v100h400v-100h-100v-100h100v100h100v100h300v-100h-200v-100h-100v-100h200v-100h100v-300h-100v-100h-700zM600 100v300h-300v-300h300z" />
    <glyph glyph-name="uni0282" unicode="&#x282;" horiz-adv-x="800" 
d="M500 100v200h-200v100h-200v100h-100v200h100v100h600v-300h-200v100h-100v100h-200v-200h200v-100h200v-100h100v-200h-100v-100h-400v-200h100v-100h300v-100h-400v100h-100v100h-100v500h200v-100h100v-100h200z" />
    <glyph glyph-name="uni0283" unicode="&#x283;" horiz-adv-x="500" 
d="M100 -400h-300v100h200v100h100v1200h100v100h100v100h300v-100h-200v-100h-100v-1200h-100v-100h-100v-100z" />
    <glyph glyph-name="uni0284" unicode="&#x284;" horiz-adv-x="500" 
d="M0 0v100h100v900h100v100h100v100h300v-100h-200v-100h-100v-900h100v-100h-100v-200h-100v-100h-100v-100h-300v100h200v100h100v200h-100z" />
    <glyph glyph-name="uni0285" unicode="&#x285;" horiz-adv-x="700" 
d="M100 1200v-100h100v-100h100v-800h100v-100h200v-100h-300v100h-100v100h-100v800h-100v100h-200v100h300z" />
    <glyph glyph-name="uni0286" unicode="&#x286;" horiz-adv-x="500" 
d="M100 -100v1100h100v100h100v100h300v-100h-200v-100h-100v-1200h-100v-100h100v-100h100v-100h-200v100h-400v100h-100v100h100v100h300zM-100 -300h100v100h-100v-100z" />
    <glyph glyph-name="uni0287" unicode="&#x287;" horiz-adv-x="500" 
d="M0 0v100h100v600h-200v100h300v-100h100v-600h100v-100h-100v-400h-200v400h-100z" />
    <glyph glyph-name="uni0288" unicode="&#x288;" horiz-adv-x="500" 
d="M100 1200h200v-400h100v-100h-100v-900h100v-100h200v-100h-300v100h-100v100h-100v900h-100v100h100v400z" />
    <glyph glyph-name="uni0289" unicode="&#x289;" horiz-adv-x="1000" 
d="M500 100v100h100v200h-300v-200h100v-100h100zM900 500v-100h-100v-300h100v-100h-600v100h-100v100h-100v200h-100v100h100v200h-100v100h300v-300h300v200h-100v100h300v-300h100z" />
    <glyph glyph-name="uni028A" unicode="&#x28a;" horiz-adv-x="1000" 
d="M500 100v100h100v300h-100v300h400v-100h-200v-200h100v-300h-100v-100h-100v-100h-300v100h-100v100h-100v300h100v200h-200v100h400v-300h-100v-300h100v-100h100z" />
    <glyph glyph-name="uni028B" unicode="&#x28b;" 
d="M500 100v100h100v400h-100v100h-100v100h200v-100h100v-100h100v-400h-100v-100h-100v-100h-300v100h-100v100h-100v500h-100v100h300v-600h100v-100h100z" />
    <glyph glyph-name="uni028C" unicode="&#x28c;" 
d="M500 100v200h-200v-200h200zM0 0v100h100v200h100v300h100v200h200v-200h100v-300h100v-200h100v-100h-800z" />
    <glyph glyph-name="uni028D" unicode="&#x28d;" horiz-adv-x="1100" 
d="M0 0v100h100v200h100v300h100v200h400v-200h100v-300h100v-200h100v-100h-400v100h100v200h-400v-200h100v-100h-400z" />
    <glyph glyph-name="uni028E" unicode="&#x28e;" 
d="M500 100v200h-200v-200h200zM0 0v100h100v200h100v300h100v200h100v200h100v100h100v100h200v-100h-100v-100h-100v-200h-100v-200h100v-300h100v-200h100v-100h-800z" />
    <glyph glyph-name="uni028F" unicode="&#x28f;" 
d="M500 100h100v-100h-400v100h100v300h-100v200h-100v100h-100v100h800v-100h-100v-100h-100v-200h-100v-300zM500 700h-200v-100h200v100z" />
    <glyph glyph-name="uni0290" unicode="&#x290;" horiz-adv-x="800" 
d="M500 100v100h200v-400h100v-100h200v-100h-300v100h-100v100h-100v200h-500v200h100v100h100v100h100v100h100v100h100v100h-300v-100h-200v200h700v-200h-100v-100h-100v-100h-100v-100h-100v-100h-100v-100h300z" />
    <glyph glyph-name="uni0291" unicode="&#x291;" horiz-adv-x="800" 
d="M0 0v200h100v100h100v100h100v100h100v100h100v100h-300v-100h-200v200h700v-200h-100v-100h-100v-100h-100v-100h-100v-100h-100v-100h100v100h100v100h200v-100h100v-100h-100v-100h-200v-100h-100v-100h-200v100h100v100h-200z" />
    <glyph glyph-name="uni0292" unicode="&#x292;" horiz-adv-x="800" 
d="M500 100h-100v100h-300v100h100v100h100v100h100v100h100v100h-300v-100h-200v200h700v-200h-100v-100h-100v-100h-100v-100h100v-100h100v-100h100v-300h-100v-100h-100v-100h-400v100h-100v100h200v-100h200v100h100v300z" />
    <glyph glyph-name="uni0293" unicode="&#x293;" horiz-adv-x="800" 
d="M700 800v-200h-100v-100h-100v-100h-100v-100h100v-100h100v-100h100v-300h-100v-100h-100v-200h100v-100h-200v100h-100v100h-200v100h-100v100h100v100h200v-100h200v300h-100v100h-300v100h100v100h100v100h100v100h100v100h-300v-100h-200v200h700z" />
    <glyph glyph-name="uni0294" unicode="&#x294;" 
d="M500 100h100v-100h-400v100h100v400h100v100h100v100h100v200h-100v100h-200v-100h-100v-100h-200v100h100v100h100v100h400v-100h100v-100h100v-200h-100v-100h-100v-100h-100v-400z" />
    <glyph glyph-name="uni0295" unicode="&#x295;" 
d="M500 100h100v-100h-400v100h100v400h-100v100h-100v100h-100v200h100v100h100v100h400v-100h100v-100h100v-100h-200v100h-100v100h-200v-100h-100v-200h100v-100h100v-100h100v-400z" />
    <glyph glyph-name="uni0296" unicode="&#x296;" 
d="M500 100v100h100v200h-100v100h-100v100h-100v400h-100v100h400v-100h-100v-400h100v-100h100v-100h100v-200h-100v-100h-100v-100h-400v100h-100v100h-100v100h200v-100h100v-100h200z" />
    <glyph glyph-name="uni0297" unicode="&#x297;" 
d="M600 500v100h-100v100h-200v-100h-100v-800h100v-100h200v100h100v100h200v-100h-100v-100h-100v-100h-400v100h-100v100h-100v800h100v100h100v100h600v-300h-200z" />
    <glyph glyph-name="uni0298" unicode="&#x298;" 
d="M500 100v100h100v100h-100v-100h-200v100h-100v-100h100v-100h200zM600 500v100h-100v100h-200v-100h-100v-100h100v100h200v-100h100zM700 200v-100h-100v-100h-400v100h-100v100h-100v400h100v100h100v100h400v-100h100v-100h100v-400h-100z" />
    <glyph glyph-name="uni0299" unicode="&#x299;" 
d="M0 0v100h100v600h-100v100h700v-100h100v-200h-100v-100h100v-300h-100v-100h-700zM600 500v200h-300v-200h300zM600 400h-300v-300h300v300z" />
    <glyph glyph-name="uni029A" unicode="&#x29a;" horiz-adv-x="1000" 
d="M500 100v100h100v100h100v200h-100v100h-100v100h-300v-200h400v-100h-400v-300h300zM900 500v-200h-100v-100h-100v-100h-100v-100h-500v100h-100v300h100v100h-100v200h100v100h500v-100h100v-100h100v-100h100z" />
    <glyph glyph-name="uni029B" unicode="&#x29b;" 
d="M500 100v100h100v200h-200v100h400v-500h-600v100h-100v100h-100v400h100v100h100v100h400v200h100v100h100v100h300v-100h-200v-100h-100v-400h-300v100h-200v-100h-100v-400h100v-100h200z" />
    <glyph glyph-name="uni029C" unicode="&#x29c;" horiz-adv-x="1000" 
d="M500 100h100v300h-300v-300h100v-100h-400v100h100v600h-100v100h400v-100h-100v-200h300v200h-100v100h400v-100h-100v-600h100v-100h-400v100z" />
    <glyph glyph-name="uni029D" unicode="&#x29d;" horiz-adv-x="400" 
d="M100 1200h200v-200h-200v200zM100 -100v800h-100v100h300v-1000h-100v-100h100v-100h100v-100h-200v100h-400v100h-100v100h100v100h300zM-100 -300h100v100h-100v-100z" />
    <glyph glyph-name="uni029E" unicode="&#x29e;" horiz-adv-x="1000" 
d="M500 100v-100h-400v100h100v100h100v100h100v100h-100v100h-100v100h-100v100h-100v100h400v-100h-100v-100h100v-100h200v200h-100v100h400v-100h-100v-1000h100v-100h-300v700h-100v-100h-100v-100h100z" />
    <glyph glyph-name="uni029F" unicode="&#x29f;" 
d="M0 0v100h100v600h-100v100h400v-100h-100v-600h300v100h200v-200h-800z" />
    <glyph glyph-name="uni02A0" unicode="&#x2a0;" horiz-adv-x="1000" 
d="M500 100v100h100v400h-100v100h-200v-100h-100v-400h100v-100h200zM1100 1100h-200v-100h-100v-1300h100v-100h-400v100h100v300h-400v100h-100v100h-100v400h100v100h100v100h400v200h100v100h100v100h300v-100z" />
    <glyph glyph-name="uni02A1" unicode="&#x2a1;" 
d="M500 100h100v-100h-400v100h100v200h-100v100h100v100h100v100h100v100h100v200h-100v100h-200v-100h-100v-100h-200v100h100v100h100v100h400v-100h100v-100h100v-200h-100v-100h-100v-100h-100v-100h100v-100h-100v-200z" />
    <glyph glyph-name="uni02A2" unicode="&#x2a2;" 
d="M500 100h100v-100h-400v100h100v200h-100v100h100v100h-100v100h-100v100h-100v200h100v100h100v100h400v-100h100v-100h100v-100h-200v100h-100v100h-200v-100h-100v-200h100v-100h100v-100h100v-100h100v-100h-100v-200z" />
    <glyph glyph-name="uni02A3" unicode="&#x2a3;" horiz-adv-x="1600" 
d="M1000 200v-100h300v100h200v-200h-1300v100h-100v100h-100v400h100v100h100v100h400v300h-100v100h300v-400h700v-200h-100v-100h-100v-100h-100v-100h-100v-100h-100zM1200 600h100v100h-300v-100h-200v-400h100v100h100v100h100v100h100v100zM600 600h-100v100h-200
v-100h-100v-400h100v-100h200v100h100v400z" />
    <glyph glyph-name="uni02A4" unicode="&#x2a4;" horiz-adv-x="1600" 
d="M1000 -200v-100h200v100h100v300h-100v100h-300v100h100v100h100v100h100v100h100v100h-300v-100h-200v-500h100v-100h-700v100h-100v100h-100v400h100v100h100v100h400v300h-100v100h300v-400h700v-200h-100v-100h-100v-100h-100v-100h100v-100h100v-100h100v-300h-100
v-100h-100v-100h-400v100h-100v100h200zM600 600h-100v100h-200v-100h-100v-400h100v-100h200v100h100v400z" />
    <glyph glyph-name="uni02A5" unicode="&#x2a5;" horiz-adv-x="1600" 
d="M1000 200v-100h100v100h100v100h200v-100h100v-100h-100v-100h-200v-100h-100v-100h-200v100h100v100h-800v100h-100v100h-100v400h100v100h100v100h400v300h-100v100h300v-400h700v-200h-100v-100h-100v-100h-100v-100h-100v-100h-100zM1200 600h100v100h-300v-100h-200
v-400h100v100h100v100h100v100h100v100zM600 600h-100v100h-200v-100h-100v-400h100v-100h200v100h100v400z" />
    <glyph glyph-name="uni02A6" unicode="&#x2a6;" horiz-adv-x="1200" 
d="M900 500v100h-100v100h-200v-200h200v-100h200v-100h100v-200h-100v-100h-800v100h-100v600h-100v100h100v400h200v-400h100v-100h-100v-600h100v200h200v-100h100v-100h200v200h-200v100h-200v100h-100v200h100v100h600v-300h-200z" />
    <glyph glyph-name="uni02A7" unicode="&#x2a7;" horiz-adv-x="800" 
d="M100 1200h200v-400h100v200h100v100h100v100h300v-100h-200v-100h-100v-1200h-100v-100h-100v-100h-300v100h200v100h100v200h-200v100h-100v600h-100v100h100v400zM400 700h-100v-600h100v600z" />
    <glyph glyph-name="uni02A8" unicode="&#x2a8;" horiz-adv-x="1300" 
d="M1100 0h-200v-100h-100v-100h-200v100h100v100h-100v100h-100v-100h-300v100h-100v600h-100v100h100v400h200v-400h100v-100h-100v-600h100v500h100v100h100v100h600v-300h-200v100h-100v100h-200v-100h-100v-400h100v-100h100v100h100v100h200v-100h100v-100h-100v-100z
" />
    <glyph glyph-name="uni02A9" unicode="&#x2a9;" horiz-adv-x="1300" 
d="M0 0v100h100v600h-100v100h100v200h100v100h100v100h300v-100h-200v-100h-100v-200h700v-100h100v-100h100v-800h-100v-100h-100v-100h-400v100h300v100h100v800h-100v100h-100v-100h-100v-500h100v-100h-800zM500 100v600h-200v-600h200z" />
    <glyph glyph-name="uni02AA" unicode="&#x2aa;" horiz-adv-x="1100" 
d="M0 0v100h100v1000h-100v100h300v-500h100v100h600v-300h-200v100h-100v100h-200v-200h200v-100h200v-100h100v-200h-100v-100h-900zM600 300v100h-200v100h-100v-200h200v-100h100v-100h200v200h-200z" />
    <glyph glyph-name="uni02AB" unicode="&#x2ab;" horiz-adv-x="1100" 
d="M500 100h300v100h200v-200h-1000v100h100v1000h-100v100h300v-400h700v-200h-100v-100h-100v-100h-100v-100h-100v-100h-100v-100zM600 500h100v100h100v100h-300v-100h-200v-400h100v100h100v100h100v100z" />
    <glyph glyph-name="uni02AC" unicode="&#x2ac;" horiz-adv-x="1100" 
d="M600 300h100v100h-100v100h400v-100h-100v-100h-100v-100h-100v-200h-400v200h-100v100h-100v100h-100v100h400v-100h-100v-100h100v100h200v-100zM800 800h-100v-200h-400v200h-100v100h-100v100h-100v100h400v-100h-100v-100h100v100h200v-100h100v100h-100v100h400
v-100h-100v-100h-100v-100z" />
    <glyph glyph-name="uni02AD" unicode="&#x2ad;" horiz-adv-x="1100" 
d="M0 0v500h1000v-500h-200v400h-600v-400h-200zM1000 600h-200v400h-600v-400h-200v500h1000v-500z" />
    <glyph glyph-name="uni02AE" unicode="&#x2ae;" horiz-adv-x="1000" 
d="M500 100v100h100v500h-100v100h400v-100h-100v-1000h100v-100h-300v400h-300v100h-100v100h-100v500h-200v100h300v-100h100v-500h100v-100h100z" />
    <glyph glyph-name="uni02AF" unicode="&#x2af;" horiz-adv-x="1000" 
d="M500 100v100h100v500h-100v100h400v-100h-100v-900h100v-100h200v-100h-300v100h-100v100h-100v200h-300v100h-100v100h-100v500h-200v100h300v-100h100v-500h100v-100h100z" />
    <glyph glyph-name="circumflex" unicode="&#x2c6;" horiz-adv-x="700" 
d="M200 900h-200v100h100v100h100v100h200v-100h100v-100h100v-100h-200v100h-200v-100z" />
    <glyph glyph-name="caron" unicode="&#x2c7;" horiz-adv-x="700" 
d="M0 1100v100h200v-100h200v100h200v-100h-100v-100h-100v-100h-200v100h-100v100h-100z" />
    <glyph glyph-name="uni02C8" unicode="&#x2c8;" horiz-adv-x="500" 
d="M100 1200h200v-300h-200v300z" />
    <glyph glyph-name="macron" unicode="&#x2c9;" horiz-adv-x="700" 
d="M0 1100v100h600v-100h-600z" />
    <glyph glyph-name="uni02CA" unicode="&#x2ca;" horiz-adv-x="400" 
d="M100 1200h200v-100h-100v-100h-200v100h100v100z" />
    <glyph glyph-name="uni02CB" unicode="&#x2cb;" horiz-adv-x="400" 
d="M0 1100v100h200v-100h100v-100h-200v100h-100z" />
    <glyph glyph-name="uni02D2" unicode="&#x2d2;" horiz-adv-x="400" 
d="M0 1100v100h200v-100h100v-200h-100v-100h-200v100h100v200h-100z" />
    <glyph glyph-name="uni02D3" unicode="&#x2d3;" horiz-adv-x="400" 
d="M100 1200h200v-100h-100v-200h100v-100h-200v100h-100v200h100v100z" />
    <glyph glyph-name="uni02D4" unicode="&#x2d4;" horiz-adv-x="500" 
d="M100 1200h200v-200h100v-100h-400v100h100v200z" />
    <glyph glyph-name="uni02D5" unicode="&#x2d5;" horiz-adv-x="500" 
d="M0 1100v100h400v-100h-100v-200h-200v200h-100z" />
    <glyph glyph-name="uni02D6" unicode="&#x2d6;" horiz-adv-x="500" 
d="M100 1200h200v-100h100v-100h-100v-100h-200v100h-100v100h100v100z" />
    <glyph glyph-name="uni02D7" unicode="&#x2d7;" horiz-adv-x="500" 
d="M0 1100h400v-100h-400v100z" />
    <glyph glyph-name="breve" unicode="&#x2d8;" horiz-adv-x="700" 
d="M0 1100v100h200v-100h200v100h200v-100h-100v-100h-400v100h-100z" />
    <glyph glyph-name="dotaccent" unicode="&#x2d9;" horiz-adv-x="600" 
d="M100 1200h300v-100h-300v100z" />
    <glyph glyph-name="ring" unicode="&#x2da;" horiz-adv-x="700" 
d="M100 1200h400v-100h100v-100h-100v-100h-400v100h-100v100h100v100zM200 1000h200v100h-200v-100z" />
    <glyph glyph-name="ogonek" unicode="&#x2db;" horiz-adv-x="700" 
d="M100 -100h100v100h200v-100h-100v-100h200v-100h-100v-100h-200v100h-100v200z" />
    <glyph glyph-name="tilde" unicode="&#x2dc;" horiz-adv-x="800" 
d="M100 1200h300v-100h100v100h200v-100h-100v-100h-300v100h-100v-100h-200v100h100v100z" />
    <glyph glyph-name="hungarumlaut" unicode="&#x2dd;" horiz-adv-x="800" 
d="M200 900h-200v100h100v100h100v100h200v-100h-100v-100h-100v-100zM500 1100v100h200v-100h-100v-100h-100v-100h-200v100h100v100h100z" />
    <glyph glyph-name="uni0300" unicode="&#x300;" horiz-adv-x="0" 
d="M-500 1100h100v-100h-200v100h-100v100h200v-100z" />
    <glyph glyph-name="uni0301" unicode="&#x301;" horiz-adv-x="0" 
d="M-500 1100v100h200v-100h-100v-100h-200v100h100z" />
    <glyph glyph-name="uni0302" unicode="&#x302;" horiz-adv-x="0" 
d="M-300 1000h-400v100h100v100h200v-100h100v-100z" />
    <glyph glyph-name="uni0303" unicode="&#x303;" horiz-adv-x="0" 
d="M-800 1000v100h100v100h500v-100h-100v-100h-500z" />
    <glyph glyph-name="uni0304" unicode="&#x304;" horiz-adv-x="0" 
d="M-200 1100h-600v100h600v-100z" />
    <glyph glyph-name="uni0305" unicode="&#x305;" horiz-adv-x="0" 
d="M-1000 1100v100h1000v-100h-1000z" />
    <glyph glyph-name="uni0306" unicode="&#x306;" horiz-adv-x="0" 
d="M-300 1000h-400v100h-100v100h200v-100h200v100h200v-100h-100v-100z" />
    <glyph glyph-name="uni0307" unicode="&#x307;" horiz-adv-x="0" 
d="M-700 1200h300v-100h-300v100z" />
    <glyph glyph-name="uni0308" unicode="&#x308;" horiz-adv-x="0" 
d="M-200 1100h-600v100h600v-100z" />
    <glyph glyph-name="uni030A" unicode="&#x30a;" horiz-adv-x="0" 
d="M-300 1000h-400v100h-100v100h100v100h400v-100h100v-100h-100v-100zM-600 1100h200v100h-200v-100z" />
    <glyph glyph-name="uni030B" unicode="&#x30b;" horiz-adv-x="0" 
d="M-300 1000h-400v100h100v100h400v-100h-100v-100z" />
    <glyph glyph-name="uni030C" unicode="&#x30c;" horiz-adv-x="0" 
d="M-300 1100h-100v-100h-200v100h-100v100h400v-100z" />
    <glyph glyph-name="uni0370" unicode="&#x370;" 
d="M0 0v100h100v900h-100v100h400v-100h-100v-400h500v-100h-500v-400h100v-100h-400z" />
    <glyph glyph-name="uni0371" unicode="&#x371;" horiz-adv-x="800" 
d="M0 0v100h100v600h-100v100h200v-100h100v-200h400v-100h-400v-300h100v-100h-400z" />
    <glyph glyph-name="uni0372" unicode="&#x372;" 
d="M0 1100h800v-200h-200v100h-100v-1400h-200v1400h-100v-100h-200v200z" />
    <glyph glyph-name="uni0373" unicode="&#x373;" 
d="M200 900h-200v100h100v100h700v-200h-200v100h-100v-1400h-200v1400h-100v-100z" />
    <glyph glyph-name="uni0374" unicode="&#x374;" horiz-adv-x="400" 
d="M100 1200h200v-200h-100v-200h-200v200h100v200z" />
    <glyph glyph-name="uni0375" unicode="&#x375;" horiz-adv-x="400" 
d="M0 -100v200h100v200h200v-200h-100v-200h-200z" />
    <glyph glyph-name="uni0376" unicode="&#x376;" horiz-adv-x="1100" 
d="M0 1100h400v-100h-100v-600h100v200h100v200h100v200h100v100h300v-100h-100v-900h100v-100h-400v100h100v500h-100v-200h-100v-200h-100v-100h-100v-100h-200v1000h-100v100z" />
    <glyph glyph-name="uni0377" unicode="&#x377;" horiz-adv-x="1000" 
d="M500 100h100v300h-100v-200h-100v-100h-100v-100h-200v700h-100v100h400v-100h-100v-300h100v200h100v100h100v100h300v-100h-100v-600h100v-100h-400v100z" />
    <glyph glyph-name="uni037A" unicode="&#x37a;" horiz-adv-x="500" 
d="M0 200h300v-300h100v-100h-200v100h-100v200h-100v100z" />
    <glyph glyph-name="uni037B" unicode="&#x37b;" 
d="M500 100v100h100v400h-100v100h-200v-100h-100v-100h-200v300h600v-100h100v-100h100v-400h-100v-100h-100v-100h-400v100h-100v100h-100v100h200v-100h100v-100h200z" />
    <glyph glyph-name="uni037C" unicode="&#x37c;" 
d="M500 100v100h100v100h200v-100h-100v-100h-100v-100h-400v100h-100v100h-100v400h100v100h100v100h600v-300h-200v100h-100v100h-200v-100h-100v-400h100v-100h200zM300 300v200h200v-200h-200z" />
    <glyph glyph-name="uni037D" unicode="&#x37d;" 
d="M500 100v100h100v400h-100v100h-200v-100h-100v-100h-200v300h600v-100h100v-100h100v-400h-100v-100h-100v-100h-400v100h-100v100h-100v100h200v-100h100v-100h200zM300 300v200h200v-200h-200z" />
    <glyph glyph-name="uni037E" unicode="&#x37e;" horiz-adv-x="400" 
d="M0 0h100v200h200v-200h-100v-100h-200v100zM300 700v-200h-200v200h200z" />
    <glyph glyph-name="tonos" unicode="&#x384;" horiz-adv-x="500" 
d="M200 900h-200v100h100v100h100v100h200v-100h-100v-100h-100v-100z" />
    <glyph glyph-name="dieresistonos" unicode="&#x385;" horiz-adv-x="700" 
d="M200 1100v100h100v100h200v-100h-100v-100h-200zM0 1000h600v-100h-600v100z" />
    <glyph glyph-name="Alphatonos" unicode="&#x386;" horiz-adv-x="1100" 
d="M0 0v100h100v200h100v300h100v300h100v100h-200v-100h-200v100h100v100h500v-200h100v-300h100v-300h100v-200h100v-100h-400v100h100v200h-100v100h-200v-100h-100v-200h100v-100h-400zM600 500v100h-200v-100h200z" />
    <glyph glyph-name="anoteleia" unicode="&#x387;" horiz-adv-x="300" 
d="M0 700h200v-200h-200v200z" />
    <glyph glyph-name="Epsilontonos" unicode="&#x388;" horiz-adv-x="1300" 
d="M1000 200h200v-200h-900v100h100v900h-200v-100h-200v100h100v100h1100v-200h-200v100h-400v-400h200v100h200v-300h-200v100h-200v-400h400v100z" />
    <glyph glyph-name="Etatonos" unicode="&#x389;" horiz-adv-x="1400" 
d="M600 500v-400h100v-100h-400v100h100v900h-200v-100h-200v100h100v100h600v-100h-100v-400h400v400h-100v100h400v-100h-100v-900h100v-100h-400v100h100v400h-400z" />
    <glyph glyph-name="Iotatonos" unicode="&#x38a;" horiz-adv-x="800" 
d="M400 100v900h-200v-100h-200v100h100v100h600v-100h-100v-900h100v-100h-400v100h100z" />
    <glyph glyph-name="Omicrontonos" unicode="&#x38c;" horiz-adv-x="1300" 
d="M500 100h-200v200h-100v500h100v200h200v100h400v-100h200v-200h100v-500h-100v-200h-200v-100h-400v100zM200 1000v-100h-200v100h100v100h200v-100h-100zM900 300h100v500h-100v100h-100v100h-200v-100h-100v-100h-100v-500h100v-100h100v-100h200v100h100v100z" />
    <glyph glyph-name="Upsilontonos" unicode="&#x38e;" horiz-adv-x="1400" 
d="M200 1000v-100h-200v100h100v100h600v-100h-100v-100h100v-200h200v200h100v100h-100v100h400v-100h-100v-100h-100v-200h-100v-100h-100v-500h100v-100h-400v100h100v500h-100v100h-100v200h-100v100h-200z" />
    <glyph glyph-name="Omegatonos" unicode="&#x38f;" horiz-adv-x="1400" 
d="M600 300h100v-300h-500v200h200v-100h100v200h-200v200h-100v300h100v200h200v100h500v-100h200v-200h100v-300h-100v-200h-200v-200h100v100h200v-200h-500v300h100v100h100v100h100v300h-100v100h-100v100h-300v-100h-100v-100h-100v-300h100v-100h100v-100zM200 1000
v-100h-200v100h100v100h200v-100h-100z" />
    <glyph glyph-name="iotadieresistonos" unicode="&#x390;" horiz-adv-x="500" 
d="M100 1200h100v100h200v-100h-100v-100h-200v100zM400 100v-100h-200v100h-100v600h-100v100h300v-700h100zM500 1000v-100h-600v100h600z" />
    <glyph glyph-name="Alpha" unicode="&#x391;" horiz-adv-x="1100" 
d="M0 0v100h100v200h100v300h100v300h100v100h-100v100h300v-200h100v-300h100v-300h100v-200h100v-100h-400v100h100v200h-100v100h-200v-100h-100v-200h100v-100h-400zM600 500v100h-200v-100h200z" />
    <glyph glyph-name="Beta" unicode="&#x392;" horiz-adv-x="1000" 
d="M0 0v100h100v900h-100v100h700v-100h100v-100h100v-200h-100v-100h-100v-100h100v-100h100v-200h-100v-100h-100v-100h-700zM700 400h-100v100h-300v-400h300v100h100v200zM600 600v100h100v200h-100v100h-300v-400h300z" />
    <glyph glyph-name="Gamma" unicode="&#x393;" horiz-adv-x="1000" 
d="M0 0v100h100v900h-100v100h900v-200h-200v100h-400v-900h100v-100h-400z" />
    <glyph glyph-name="uni0394" unicode="&#x394;" horiz-adv-x="1100" 
d="M1000 200v-200h-1000v200h100v200h100v300h100v200h100v200h200v-200h100v-200h100v-300h100v-200h100zM700 400h-100v300h-200v-300h-100v-200h-100v-100h600v100h-100v200z" />
    <glyph glyph-name="Epsilon" unicode="&#x395;" horiz-adv-x="1000" 
d="M0 0v100h100v900h-100v100h900v-200h-200v100h-400v-400h200v100h200v-300h-200v100h-200v-400h400v100h200v-200h-900z" />
    <glyph glyph-name="Zeta" unicode="&#x396;" 
d="M0 0v200h100v100h100v200h100v100h100v200h100v100h100v100h-400v-100h-200v200h800v-200h-100v-100h-100v-200h-100v-100h-100v-200h-100v-100h-100v-100h400v100h200v-200h-800z" />
    <glyph glyph-name="Eta" unicode="&#x397;" horiz-adv-x="1100" 
d="M0 0v100h100v900h-100v100h400v-100h-100v-400h400v400h-100v100h400v-100h-100v-900h100v-100h-400v100h100v400h-400v-400h100v-100h-400z" />
    <glyph glyph-name="Theta" unicode="&#x398;" horiz-adv-x="1100" 
d="M800 800h-100v100h-100v100h-200v-100h-100v-100h-100v-100h200v-100h200v100h200v100zM800 400h-200v100h-200v-100h-200v-100h100v-100h100v-100h200v100h100v100h100v100zM700 0h-400v100h-200v200h-100v500h100v200h200v100h400v-100h200v-200h100v-500h-100v-200
h-200v-100z" />
    <glyph glyph-name="Iota" unicode="&#x399;" horiz-adv-x="500" 
d="M0 0v100h100v900h-100v100h400v-100h-100v-900h100v-100h-400z" />
    <glyph glyph-name="Kappa" unicode="&#x39a;" horiz-adv-x="1000" 
d="M500 100h100v200h-100v200h-200v-400h100v-100h-400v100h100v900h-100v100h400v-100h-100v-300h100v100h100v100h100v100h-100v100h400v-100h-100v-100h-100v-100h-100v-100h-100v-100h100v-100h100v-200h100v-200h100v-100h-400v100z" />
    <glyph glyph-name="Lambda" unicode="&#x39b;" horiz-adv-x="1100" 
d="M0 0v100h100v200h100v300h100v300h100v100h-100v100h300v-200h100v-300h100v-300h100v-200h100v-100h-400v100h100v200h-100v300h-200v-300h-100v-200h100v-100h-400z" />
    <glyph glyph-name="Mu" unicode="&#x39c;" horiz-adv-x="1300" 
d="M0 0v100h100v900h-100v100h300v-100h100v-100h100v-100h200v100h100v100h100v100h300v-100h-100v-900h100v-100h-400v100h100v700h-100v-100h-100v-200h-200v200h-100v100h-100v-700h100v-100h-400z" />
    <glyph glyph-name="Nu" unicode="&#x39d;" horiz-adv-x="1100" 
d="M0 0v100h100v900h-100v100h300v-100h100v-200h100v-200h100v-200h100v600h-100v100h400v-100h-100v-1000h-200v100h-100v100h-100v200h-100v200h-100v-500h100v-100h-400z" />
    <glyph glyph-name="Xi" unicode="&#x39e;" 
d="M0 0v200h200v-100h400v100h200v-200h-800zM0 1100h800v-200h-200v100h-400v-100h-200v200zM700 400h-200v100h-200v-100h-200v300h200v-100h200v100h200v-300z" />
    <glyph glyph-name="Omicron" unicode="&#x39f;" horiz-adv-x="1100" 
d="M700 200v100h100v500h-100v100h-100v100h-200v-100h-100v-100h-100v-500h100v-100h100v-100h200v100h100zM900 300v-200h-200v-100h-400v100h-200v200h-100v500h100v200h200v100h400v-100h200v-200h100v-500h-100z" />
    <glyph glyph-name="Pi" unicode="&#x3a0;" horiz-adv-x="1100" 
d="M0 0v100h100v900h-100v100h1000v-100h-100v-900h100v-100h-400v100h100v900h-400v-900h100v-100h-400z" />
    <glyph glyph-name="Rho" unicode="&#x3a1;" horiz-adv-x="1000" 
d="M0 0v100h100v900h-100v100h700v-100h100v-100h100v-200h-100v-100h-100v-100h-400v-400h100v-100h-400zM600 600v100h100v200h-100v100h-300v-400h300z" />
    <glyph glyph-name="Sigma" unicode="&#x3a3;" horiz-adv-x="1000" 
d="M0 0v100h100v100h100v100h100v100h100v100h100v100h-100v100h-100v100h-100v100h-100v100h-100v100h900v-200h-200v100h-400v-100h100v-100h100v-100h100v-100h100v-100h-100v-100h-100v-100h-100v-100h-100v-100h400v100h200v-200h-900z" />
    <glyph glyph-name="Tau" unicode="&#x3a4;" 
d="M500 100h100v-100h-400v100h100v900h-100v-100h-200v200h800v-200h-200v100h-100v-900z" />
    <glyph glyph-name="Upsilon" unicode="&#x3a5;" horiz-adv-x="1100" 
d="M0 1100h400v-100h-100v-100h100v-200h200v200h100v100h-100v100h400v-100h-100v-100h-100v-200h-100v-100h-100v-500h100v-100h-400v100h100v500h-100v100h-100v200h-100v100h-100v100z" />
    <glyph glyph-name="Phi" unicode="&#x3a6;" 
d="M500 100h100v-100h-400v100h100v100h-100v100h-100v100h-100v300h100v100h100v100h100v100h-100v100h400v-100h-100v-100h100v-100h100v-100h100v-300h-100v-100h-100v-100h-100v-100zM200 700v-300h100v300h-100zM500 700v-300h100v300h-100z" />
    <glyph glyph-name="Chi" unicode="&#x3a7;" horiz-adv-x="1100" 
d="M0 0v100h100v100h100v200h100v100h100v100h-100v100h-100v200h-100v100h-100v100h400v-100h-100v-100h100v-200h200v200h100v100h-100v100h400v-100h-100v-100h-100v-200h-100v-100h-100v-100h100v-100h100v-200h100v-100h100v-100h-400v100h100v100h-100v200h-200v-200
h-100v-100h100v-100h-400z" />
    <glyph glyph-name="Psi" unicode="&#x3a8;" horiz-adv-x="1100" 
d="M0 1100h200v-100h100v-300h100v300h-100v100h400v-100h-100v-300h100v300h100v100h200v-100h-100v-300h-100v-100h-100v-100h-100v-400h100v-100h-400v100h100v400h-100v100h-100v100h-100v300h-100v100z" />
    <glyph glyph-name="uni03A9" unicode="&#x3a9;" horiz-adv-x="1200" 
d="M0 0v200h200v-100h100v200h-200v200h-100v300h100v200h200v100h500v-100h200v-200h100v-300h-100v-200h-200v-200h100v100h200v-200h-500v300h100v100h100v100h100v300h-100v100h-100v100h-300v-100h-100v-100h-100v-300h100v-100h100v-100h100v-300h-500z" />
    <glyph glyph-name="Iotadieresis" unicode="&#x3aa;" horiz-adv-x="500" 
d="M0 0v100h100v900h-100v100h400v-100h-100v-900h100v-100h-400zM500 1200h-600v100h600v-100z" />
    <glyph glyph-name="Upsilondieresis" unicode="&#x3ab;" horiz-adv-x="1100" 
d="M0 1100h400v-100h-100v-100h100v-200h200v200h100v100h-100v100h400v-100h-100v-100h-100v-200h-100v-100h-100v-500h100v-100h-400v100h100v500h-100v100h-100v200h-100v100h-100v100zM200 1300h600v-100h-600v100z" />
    <glyph glyph-name="alphatonos" unicode="&#x3ac;" horiz-adv-x="1000" 
d="M500 100v-100h-300v100h-100v100h-100v400h100v100h100v100h300v-100h200v100h200v-100h-100v-100h-100v-400h100v-100h100v-100h-200v100h-200zM400 700h-100v-100h-100v-400h100v-100h100v100h100v400h-100v100zM400 1100h200v-100h-100v-100h-200v100h100v100z" />
    <glyph glyph-name="epsilontonos" unicode="&#x3ad;" horiz-adv-x="800" 
d="M500 100v100h200v-100h-100v-100h-500v100h-100v300h100v100h-100v200h100v100h500v-100h100v-100h-200v100h-300v-200h400v-100h-400v-300h300zM200 1000h100v100h200v-100h-100v-100h-200v100z" />
    <glyph glyph-name="etatonos" unicode="&#x3ae;" 
d="M0 0v100h100v600h-100v100h600v-100h100v-100h100v-1000h-200v1000h-100v100h-100v-100h-100v-500h100v-100h-400zM400 1100h200v-100h-100v-100h-200v100h100v100z" />
    <glyph glyph-name="iotatonos" unicode="&#x3af;" horiz-adv-x="500" 
d="M400 100v-100h-200v100h-100v600h-100v100h300v-700h100zM200 1000v100h200v-100h-100v-100h-200v100h100z" />
    <glyph glyph-name="upsilondieresistonos" unicode="&#x3b0;" 
d="M500 100v100h100v400h-100v100h-100v100h200v-100h100v-100h100v-400h-100v-100h-100v-100h-300v100h-100v100h-100v500h-100v100h300v-600h100v-100h100zM100 900v100h600v-100h-600zM400 1300h200v-100h-100v-100h-200v100h100v100z" />
    <glyph glyph-name="alpha" unicode="&#x3b1;" horiz-adv-x="1000" 
d="M500 100v-100h-300v100h-100v100h-100v400h100v100h100v100h300v-100h200v100h200v-100h-100v-100h-100v-400h100v-100h100v-100h-200v100h-200zM400 700h-100v-100h-100v-400h100v-100h100v100h100v400h-100v100z" />
    <glyph glyph-name="beta" unicode="&#x3b2;" 
d="M500 100v100h100v200h-100v100h-200v100h200v100h100v200h-100v100h-200v-100h-100v-1300h-200v1300h100v100h100v100h400v-100h100v-100h100v-200h-100v-100h-100v-100h100v-100h100v-200h-100v-100h-100v-100h-300v100h200z" />
    <glyph glyph-name="gamma" unicode="&#x3b3;" horiz-adv-x="800" 
d="M400 700v100h100v100h200v-100h-100v-200h-100v-300h-100v-300h-100v-300h-200v300h100v300h100v300h-100v100h-200v100h300v-100h100z" />
    <glyph glyph-name="delta" unicode="&#x3b4;" 
d="M500 100v100h100v400h-100v100h-200v-100h-100v-400h100v-100h200zM700 200v-100h-100v-100h-400v100h-100v100h-100v400h100v100h100v100h100v100h-100v200h100v100h300v-100h100v-100h-200v100h-100v-200h100v-100h100v-100h100v-100h100v-400h-100z" />
    <glyph glyph-name="epsilon" unicode="&#x3b5;" horiz-adv-x="800" 
d="M500 100v100h200v-100h-100v-100h-500v100h-100v300h100v100h-100v200h100v100h500v-100h100v-100h-200v100h-300v-200h400v-100h-400v-300h300z" />
    <glyph glyph-name="zeta" unicode="&#x3b6;" horiz-adv-x="800" 
d="M100 1200h-100v100h200v-100h100v-100h400v-100h-400v-200h-100v-600h100v-100h300v-100h100v-200h-100v-100h-100v-100h-300v100h200v100h100v200h-300v100h-100v100h-100v600h100v200h100v100h-100v100z" />
    <glyph glyph-name="eta" unicode="&#x3b7;" 
d="M0 0v100h100v600h-100v100h600v-100h100v-100h100v-1000h-200v1000h-100v100h-100v-100h-100v-500h100v-100h-400z" />
    <glyph glyph-name="theta" unicode="&#x3b8;" 
d="M500 100v-100h-300v100h-100v100h-100v600h100v200h200v100h300v-100h100v-100h100v-600h-100v-200h-200zM600 300v200h-400v-300h100v-100h100v100h100v100h100zM600 600v300h-100v100h-100v-100h-100v-100h-100v-200h400z" />
    <glyph glyph-name="iota" unicode="&#x3b9;" horiz-adv-x="500" 
d="M400 100v-100h-200v100h-100v600h-100v100h300v-700h100z" />
    <glyph glyph-name="kappa" unicode="&#x3ba;" horiz-adv-x="1000" 
d="M500 100h100v100h-100v100h-200v-200h100v-100h-400v100h100v600h-100v100h800v-100h-100v-100h-100v-100h-100v-100h100v-100h100v-100h100v-100h100v-100h-400v100zM300 500h100v100h100v100h-200v-200z" />
    <glyph glyph-name="lambda" unicode="&#x3bb;" 
d="M500 100v200h-200v-200h200zM0 0v100h100v200h100v300h100v200h-100v200h-100v100h-100v100h200v-100h100v-100h100v-200h100v-200h100v-300h100v-200h100v-100h-800z" />
    <glyph glyph-name="mu" unicode="&#x3bc;" horiz-adv-x="1000" 
d="M500 100v100h100v500h-100v100h300v-700h100v-100h-600v-400h-200v1100h-100v100h300v-600h100v-100h100z" />
    <glyph glyph-name="nu" unicode="&#x3bd;" 
d="M500 100v-100h-400v700h-100v100h300v-700h100v100h100v200h100v300h-100v100h300v-400h-100v-200h-100v-100h-100z" />
    <glyph glyph-name="xi" unicode="&#x3be;" horiz-adv-x="800" 
d="M100 1200h-100v100h200v-100h100v-100h400v-100h-400v-200h300v-100h-300v-100h-100v-400h100v-100h300v-100h100v-200h-100v-100h-100v-100h-300v100h200v100h100v200h-300v100h-100v100h-100v400h100v100h100v100h-100v200h100v100h-100v100z" />
    <glyph glyph-name="omicron" unicode="&#x3bf;" 
d="M500 100v100h100v400h-100v100h-200v-100h-100v-400h100v-100h200zM700 200v-100h-100v-100h-400v100h-100v100h-100v400h100v100h100v100h400v-100h100v-100h100v-400h-100z" />
    <glyph glyph-name="pi" unicode="&#x3c0;" horiz-adv-x="1000" 
d="M500 100v600h-100v-500h-100v-200h-200v200h100v400h-200v100h100v100h600v100h200v-100h-100v-100h-100v-600h100v-100h-200v100h-100z" />
    <glyph glyph-name="rho" unicode="&#x3c1;" 
d="M500 100v100h100v400h-100v100h-200v-100h-100v-400h100v-100h200zM0 -400v1000h100v100h100v100h400v-100h100v-100h100v-400h-100v-100h-100v-100h-400v-400h-200z" />
    <glyph glyph-name="sigma1" unicode="&#x3c2;" 
d="M700 -200v-100h-100v-100h-400v100h300v100h100v200h-400v100h-100v100h-100v400h100v100h100v100h600v-100h-500v-100h-100v-400h100v-100h400v-100h100v-200h-100z" />
    <glyph glyph-name="sigma" unicode="&#x3c3;" 
d="M500 100v100h100v400h-100v100h-200v-100h-100v-400h100v-100h200zM700 200v-100h-100v-100h-400v100h-100v100h-100v400h100v100h100v100h700v-100h-200v-100h100v-400h-100z" />
    <glyph glyph-name="tau" unicode="&#x3c4;" 
d="M500 100h100v-100h-200v100h-100v600h-100v-100h-200v100h100v100h700v-100h-300v-600z" />
    <glyph glyph-name="upsilon" unicode="&#x3c5;" 
d="M500 100v100h100v400h-100v100h-100v100h200v-100h100v-100h100v-400h-100v-100h-100v-100h-300v100h-100v100h-100v500h-100v100h300v-600h100v-100h100z" />
    <glyph glyph-name="phi" unicode="&#x3c6;" 
d="M400 700v100h200v-100h100v-100h100v-400h-100v-100h-100v-100h-100v-400h-200v400h-100v100h-100v100h-100v500h100v100h200v-100h-100v-500h100v500h100zM600 600h-100v-400h100v400z" />
    <glyph glyph-name="chi" unicode="&#x3c7;" horiz-adv-x="1000" 
d="M0 -400v100h100v200h100v100h100v500h-100v100h-200v200h300v-100h100v-200h200v200h100v100h200v-100h-100v-200h-100v-100h-100v-500h100v-100h200v-200h-300v100h-100v200h-200v-200h-100v-100h-200z" />
    <glyph glyph-name="psi" unicode="&#x3c8;" horiz-adv-x="1100" 
d="M700 200v500h100v100h200v-100h-100v-500h-100v-100h-100v-100h-100v-400h-200v400h-100v100h-100v100h-100v500h-100v100h200v-100h100v-500h100v600h200v-600h100z" />
    <glyph glyph-name="omega" unicode="&#x3c9;" horiz-adv-x="1300" 
d="M500 100v-100h-300v100h-100v100h-100v400h100v100h100v100h200v-100h-100v-100h-100v-400h100v-100h100v100h100v300h200v-300h100v-100h100v100h100v400h-100v100h-100v100h200v-100h100v-100h100v-400h-100v-100h-100v-100h-300v100h-200z" />
    <glyph glyph-name="iotadieresis" unicode="&#x3ca;" horiz-adv-x="500" 
d="M400 100v-100h-200v100h-100v600h-100v100h300v-700h100zM500 1000v-100h-600v100h600z" />
    <glyph glyph-name="upsilondieresis" unicode="&#x3cb;" 
d="M500 100v100h100v400h-100v100h-100v100h200v-100h100v-100h100v-400h-100v-100h-100v-100h-300v100h-100v100h-100v500h-100v100h300v-600h100v-100h100zM100 900v100h600v-100h-600z" />
    <glyph glyph-name="omicrontonos" unicode="&#x3cc;" 
d="M500 100v100h100v400h-100v100h-200v-100h-100v-400h100v-100h200zM700 200v-100h-100v-100h-400v100h-100v100h-100v400h100v100h100v100h400v-100h100v-100h100v-400h-100zM400 1100h200v-100h-100v-100h-200v100h100v100z" />
    <glyph glyph-name="upsilontonos" unicode="&#x3cd;" 
d="M500 100v100h100v400h-100v100h-100v100h200v-100h100v-100h100v-400h-100v-100h-100v-100h-300v100h-100v100h-100v500h-100v100h300v-600h100v-100h100zM400 1100h200v-100h-100v-100h-200v100h100v100z" />
    <glyph glyph-name="omegatonos" unicode="&#x3ce;" horiz-adv-x="1300" 
d="M1000 200v400h-100v100h-100v100h200v-100h100v-100h100v-400h-100v-100h-100v-100h-300v100h-200v-100h-300v100h-100v100h-100v400h100v100h100v100h200v-100h-100v-100h-100v-400h100v-100h100v100h100v300h200v-300h100v-100h100v100h100zM500 900v100h100v100h200
v-100h-100v-100h-200z" />
    <glyph glyph-name="uni0400" unicode="&#x400;" horiz-adv-x="1000" 
d="M0 0v100h100v900h-100v100h900v-200h-200v100h-400v-400h200v100h200v-300h-200v100h-200v-400h400v100h200v-200h-900zM400 1300h-100v100h200v-100h100v-100h-200v100z" />
    <glyph glyph-name="afii10023" unicode="&#x401;" horiz-adv-x="1000" 
d="M100 1200v100h300v-100h-300zM0 0v100h100v900h-100v100h900v-200h-200v100h-400v-400h200v100h200v-300h-200v100h-200v-400h400v100h200v-200h-900zM500 1200v100h300v-100h-300z" />
    <glyph glyph-name="afii10051" unicode="&#x402;" horiz-adv-x="1100" 
d="M500 100h100v-100h-400v100h100v900h-100v-100h-200v200h800v-200h-200v100h-100v-200h300v-100h100v-100h100v-800h-100v-100h-100v-100h-300v100h-100v100h200v-100h100v100h100v800h-100v100h-100v-100h-100v-500z" />
    <glyph glyph-name="afii10052" unicode="&#x403;" horiz-adv-x="1000" 
d="M0 0v100h100v900h-100v100h900v-200h-200v100h-400v-900h100v-100h-400zM400 1400h200v-100h-100v-100h-200v100h100v100z" />
    <glyph glyph-name="afii10053" unicode="&#x404;" horiz-adv-x="1000" 
d="M700 400h-200v100h-300v-200h100v-100h100v-100h200v100h100v100h200v-200h-200v-100h-400v100h-200v200h-100v500h100v200h200v100h600v-300h-200v100h-100v100h-200v-100h-100v-100h-100v-200h300v100h200v-300z" />
    <glyph glyph-name="afii10054" unicode="&#x405;" 
d="M500 100v100h100v200h-100v100h-300v100h-100v100h-100v200h100v100h100v100h600v-300h-200v100h-100v100h-200v-100h-100v-200h100v-100h300v-100h100v-100h100v-200h-100v-100h-100v-100h-600v300h200v-100h100v-100h200z" />
    <glyph glyph-name="afii10055" unicode="&#x406;" horiz-adv-x="500" 
d="M0 0v100h100v900h-100v100h400v-100h-100v-900h100v-100h-400z" />
    <glyph glyph-name="afii10056" unicode="&#x407;" horiz-adv-x="500" 
d="M0 0v100h100v900h-100v100h400v-100h-100v-900h100v-100h-400zM500 1200h-600v100h600v-100z" />
    <glyph glyph-name="afii10057" unicode="&#x408;" horiz-adv-x="1000" 
d="M500 100v-100h-300v100h-200v200h200v-100h100v-100h100v100h100v100h100v700h-100v100h400v-100h-100v-700h-100v-200h-200z" />
    <glyph glyph-name="afii10058" unicode="&#x409;" horiz-adv-x="1600" 
d="M900 500v-400h300v100h100v200h-100v100h-300zM500 100h-100v-100h-300v100h-100v200h200v-200h100v900h-100v100h800v-100h-100v-400h400v-100h100v-100h100v-200h-100v-100h-100v-100h-700v100h100v900h-200v-900z" />
    <glyph glyph-name="afii10059" unicode="&#x40a;" horiz-adv-x="1500" 
d="M0 0v100h100v900h-100v100h400v-100h-100v-400h300v400h-100v100h400v-100h-100v-400h400v-100h100v-100h100v-200h-100v-100h-100v-100h-700v100h100v400h-300v-400h100v-100h-400zM1100 200h100v200h-100v100h-300v-400h300v100z" />
    <glyph glyph-name="afii10060" unicode="&#x40b;" horiz-adv-x="1200" 
d="M500 100h100v-100h-400v100h100v900h-100v-100h-200v200h800v-200h-200v100h-100v-200h300v-100h100v-100h100v-500h100v-100h-400v100h100v500h-100v100h-100v-100h-100v-500z" />
    <glyph glyph-name="afii10061" unicode="&#x40c;" horiz-adv-x="1000" 
d="M0 0v100h100v900h-100v100h400v-100h-100v-300h100v100h100v100h100v100h-100v100h400v-100h-100v-100h-100v-100h-100v-100h-100v-100h100v-100h100v-200h100v-200h100v-100h-400v100h100v200h-100v200h-200v-400h100v-100h-400zM400 1300v100h200v-100h-100v-100h-200
v100h100z" />
    <glyph glyph-name="uni040D" unicode="&#x40d;" horiz-adv-x="1100" 
d="M0 1100h400v-100h-100v-600h100v200h100v200h100v200h100v100h300v-100h-100v-900h100v-100h-400v100h100v500h-100v-200h-100v-200h-100v-100h-100v-100h-200v1000h-100v100zM400 1300h-100v100h200v-100h100v-100h-200v100z" />
    <glyph glyph-name="afii10062" unicode="&#x40e;" horiz-adv-x="1100" 
d="M100 900v100h-100v100h400v-100h-100v-100h100v-200h200v200h100v100h-100v100h400v-100h-100v-100h-100v-200h-100v-100h-100v-200h-100v-200h-100v-100h-100v-100h-200v100h-100v100h300v200h100v200h-100v100h-100v200h-100zM400 1300h200v100h200v-100h-100v-100
h-400v100h-100v100h200v-100z" />
    <glyph glyph-name="afii10145" unicode="&#x40f;" horiz-adv-x="1100" 
d="M0 0v100h100v900h-100v100h400v-100h-100v-900h400v900h-100v100h400v-100h-100v-900h100v-100h-400v-200h-200v200h-400z" />
    <glyph glyph-name="afii10017" unicode="&#x410;" horiz-adv-x="1100" 
d="M0 0v100h100v200h100v300h100v300h100v100h-100v100h300v-200h100v-300h100v-300h100v-200h100v-100h-400v100h100v200h-100v100h-200v-100h-100v-200h100v-100h-400zM600 500v100h-200v-100h200z" />
    <glyph glyph-name="afii10018" unicode="&#x411;" horiz-adv-x="1000" 
d="M0 0v100h100v900h-100v100h800v-200h-200v100h-300v-400h400v-100h100v-100h100v-200h-100v-100h-100v-100h-700zM700 400h-100v100h-300v-400h300v100h100v200z" />
    <glyph glyph-name="afii10019" unicode="&#x412;" horiz-adv-x="1000" 
d="M0 0v100h100v900h-100v100h700v-100h100v-100h100v-200h-100v-100h-100v-100h100v-100h100v-200h-100v-100h-100v-100h-700zM700 400h-100v100h-300v-400h300v100h100v200zM600 600v100h100v200h-100v100h-300v-400h300z" />
    <glyph glyph-name="afii10020" unicode="&#x413;" horiz-adv-x="1000" 
d="M0 0v100h100v900h-100v100h900v-200h-200v100h-400v-900h100v-100h-400z" />
    <glyph glyph-name="afii10021" unicode="&#x414;" horiz-adv-x="1100" 
d="M1000 -200h-200v200h-600v-200h-200v300h100v100h100v200h100v600h-100v100h800v-100h-100v-900h100v-300zM300 100h400v900h-200v-600h-100v-200h-100v-100z" />
    <glyph glyph-name="afii10022" unicode="&#x415;" horiz-adv-x="1000" 
d="M0 0v100h100v900h-100v100h900v-200h-200v100h-400v-400h200v100h200v-300h-200v100h-200v-400h400v100h200v-200h-900z" />
    <glyph glyph-name="afii10024" unicode="&#x416;" horiz-adv-x="1500" 
d="M0 0v100h100v200h100v200h100v100h100v100h-100v100h-100v100h-100v100h-100v100h400v-100h-100v-100h100v-100h100v-100h100v300h-100v100h400v-100h-100v-300h100v100h100v100h100v100h-100v100h400v-100h-100v-100h-100v-100h-100v-100h-100v-100h100v-100h100v-200
h100v-200h100v-100h-400v100h100v200h-100v200h-200v-400h100v-100h-400v100h100v400h-200v-200h-100v-200h100v-100h-400z" />
    <glyph glyph-name="afii10025" unicode="&#x417;" 
d="M500 100v100h100v200h-100v100h-300v100h300v100h100v200h-100v100h-200v-100h-100v-100h-200v300h600v-100h100v-100h100v-200h-100v-100h-100v-100h100v-100h100v-200h-100v-100h-100v-100h-400v100h-100v100h-100v100h200v-100h100v-100h200z" />
    <glyph glyph-name="afii10026" unicode="&#x418;" horiz-adv-x="1100" 
d="M0 1100h400v-100h-100v-600h100v200h100v200h100v200h100v100h300v-100h-100v-900h100v-100h-400v100h100v500h-100v-200h-100v-200h-100v-100h-100v-100h-200v1000h-100v100z" />
    <glyph glyph-name="afii10027" unicode="&#x419;" horiz-adv-x="1100" 
d="M0 1100h400v-100h-100v-600h100v200h100v200h100v200h100v100h300v-100h-100v-900h100v-100h-400v100h100v500h-100v-200h-100v-200h-100v-100h-100v-100h-200v1000h-100v100zM200 1300v100h200v-100h200v100h200v-100h-100v-100h-400v100h-100z" />
    <glyph glyph-name="afii10028" unicode="&#x41a;" horiz-adv-x="1000" 
d="M500 100h100v200h-100v200h-200v-400h100v-100h-400v100h100v900h-100v100h400v-100h-100v-300h100v100h100v100h100v100h-100v100h400v-100h-100v-100h-100v-100h-100v-100h-100v-100h100v-100h100v-200h100v-200h100v-100h-400v100z" />
    <glyph glyph-name="afii10029" unicode="&#x41b;" horiz-adv-x="1100" 
d="M500 100h-100v-100h-300v100h-100v200h200v-200h100v900h-100v100h800v-100h-100v-900h100v-100h-400v100h100v900h-200v-900z" />
    <glyph glyph-name="afii10030" unicode="&#x41c;" horiz-adv-x="1300" 
d="M0 0v100h100v900h-100v100h300v-100h100v-100h100v-100h200v100h100v100h100v100h300v-100h-100v-900h100v-100h-400v100h100v700h-100v-100h-100v-200h-200v200h-100v100h-100v-700h100v-100h-400z" />
    <glyph glyph-name="afii10031" unicode="&#x41d;" horiz-adv-x="1100" 
d="M0 0v100h100v900h-100v100h400v-100h-100v-400h400v400h-100v100h400v-100h-100v-900h100v-100h-400v100h100v400h-400v-400h100v-100h-400z" />
    <glyph glyph-name="afii10032" unicode="&#x41e;" horiz-adv-x="1100" 
d="M700 200v100h100v500h-100v100h-100v100h-200v-100h-100v-100h-100v-500h100v-100h100v-100h200v100h100zM900 300v-200h-200v-100h-400v100h-200v200h-100v500h100v200h200v100h400v-100h200v-200h100v-500h-100z" />
    <glyph glyph-name="afii10033" unicode="&#x41f;" horiz-adv-x="1100" 
d="M0 0v100h100v900h-100v100h1000v-100h-100v-900h100v-100h-400v100h100v900h-400v-900h100v-100h-400z" />
    <glyph glyph-name="afii10034" unicode="&#x420;" horiz-adv-x="1000" 
d="M0 0v100h100v900h-100v100h700v-100h100v-100h100v-200h-100v-100h-100v-100h-400v-400h100v-100h-400zM600 600v100h100v200h-100v100h-300v-400h300z" />
    <glyph glyph-name="afii10035" unicode="&#x421;" horiz-adv-x="1000" 
d="M700 200v100h200v-200h-200v-100h-400v100h-200v200h-100v500h100v200h200v100h600v-300h-200v100h-100v100h-200v-100h-100v-100h-100v-500h100v-100h100v-100h200v100h100z" />
    <glyph glyph-name="afii10036" unicode="&#x422;" 
d="M500 100h100v-100h-400v100h100v900h-100v-100h-200v200h800v-200h-200v100h-100v-900z" />
    <glyph glyph-name="afii10037" unicode="&#x423;" horiz-adv-x="1100" 
d="M0 1100h400v-100h-100v-100h100v-200h200v200h100v100h-100v100h400v-100h-100v-100h-100v-200h-100v-100h-100v-200h-100v-200h-100v-100h-100v-100h-200v100h-100v100h300v200h100v200h-100v100h-100v200h-100v100h-100v100z" />
    <glyph glyph-name="afii10038" unicode="&#x424;" horiz-adv-x="1100" 
d="M700 400h100v300h-100v100h-100v-500h100v100zM800 800h100v-100h100v-300h-100v-100h-100v-100h-200v-100h100v-100h-400v100h100v100h-200v100h-100v100h-100v300h100v100h100v100h200v100h-100v100h400v-100h-100v-100h200v-100zM200 700v-300h100v-100h100v500h-100
v-100h-100z" />
    <glyph glyph-name="afii10039" unicode="&#x425;" horiz-adv-x="1100" 
d="M0 0v100h100v100h100v200h100v100h100v100h-100v100h-100v200h-100v100h-100v100h400v-100h-100v-100h100v-200h200v200h100v100h-100v100h400v-100h-100v-100h-100v-200h-100v-100h-100v-100h100v-100h100v-200h100v-100h100v-100h-400v100h100v100h-100v200h-200v-200
h-100v-100h100v-100h-400z" />
    <glyph glyph-name="afii10040" unicode="&#x426;" horiz-adv-x="1100" 
d="M0 0v100h100v900h-100v100h400v-100h-100v-900h400v900h-100v100h400v-100h-100v-900h100v-300h-200v200h-800z" />
    <glyph glyph-name="afii10041" unicode="&#x427;" horiz-adv-x="1100" 
d="M0 1100h400v-100h-100v-300h100v-100h200v100h100v300h-100v100h400v-100h-100v-900h100v-100h-400v100h100v400h-400v100h-100v100h-100v300h-100v100z" />
    <glyph glyph-name="afii10042" unicode="&#x428;" horiz-adv-x="1300" 
d="M0 0v100h100v900h-100v100h1200v-100h-100v-900h100v-100h-1200zM500 100v900h-200v-900h200zM900 100v900h-200v-900h200z" />
    <glyph glyph-name="afii10043" unicode="&#x429;" horiz-adv-x="1300" 
d="M0 0v100h100v900h-100v100h1200v-100h-100v-900h100v-300h-200v200h-1000zM500 100v900h-200v-900h200zM900 100v900h-200v-900h200z" />
    <glyph glyph-name="afii10044" unicode="&#x42a;" horiz-adv-x="1200" 
d="M500 100h300v100h100v200h-100v100h-300v-400zM1000 200v-100h-100v-100h-700v100h100v900h-100v-100h-200v200h600v-100h-100v-400h400v-100h100v-100h100v-200h-100z" />
    <glyph glyph-name="afii10045" unicode="&#x42b;" horiz-adv-x="1300" 
d="M0 0v100h100v900h-100v100h400v-100h-100v-400h400v-100h100v-100h100v600h-100v100h400v-100h-100v-900h100v-100h-400v100h100v100h-100v-100h-100v-100h-700zM700 400h-100v100h-300v-400h300v100h100v200z" />
    <glyph glyph-name="afii10046" unicode="&#x42c;" horiz-adv-x="1000" 
d="M0 0v100h100v900h-100v100h400v-100h-100v-400h400v-100h100v-100h100v-200h-100v-100h-100v-100h-700zM700 400h-100v100h-300v-400h300v100h100v200z" />
    <glyph glyph-name="afii10047" unicode="&#x42d;" horiz-adv-x="1000" 
d="M500 100v100h100v100h100v200h-300v-100h-200v300h200v-100h300v200h-100v100h-100v100h-200v-100h-100v-100h-200v300h600v-100h200v-200h100v-500h-100v-200h-200v-100h-400v100h-200v200h200v-100h100v-100h200z" />
    <glyph glyph-name="afii10048" unicode="&#x42e;" horiz-adv-x="1400" 
d="M1000 200v100h100v500h-100v100h-100v100h-200v-100h-100v-100h-100v-500h100v-100h100v-100h200v100h100zM0 0v100h100v900h-100v100h400v-100h-100v-200h100v200h200v100h400v-100h200v-200h100v-500h-100v-200h-200v-100h-400v100h-200v200h-100v-200h100v-100h-400z
" />
    <glyph glyph-name="afii10049" unicode="&#x42f;" horiz-adv-x="1000" 
d="M500 100h100v400h-100v-100h-100v-100h-100v-200h-100v-100h-200v100h100v200h100v100h100v100h-100v100h-100v100h-100v200h100v100h100v100h700v-100h-100v-900h100v-100h-400v100zM600 600v400h-300v-100h-100v-200h100v-100h300z" />
    <glyph glyph-name="afii10065" unicode="&#x430;" 
d="M300 300h-100v-200h200v100h100v200h-200v-100zM100 100h-100v200h100v100h100v100h300v200h-200v-100h-200v100h100v100h400v-100h100v-600h100v-100h-700v100z" />
    <glyph glyph-name="afii10066" unicode="&#x431;" 
d="M500 100v100h100v400h-100v100h-200v-100h-100v-400h100v-100h200zM700 200v-100h-100v-100h-400v100h-100v100h-100v800h100v100h100v100h300v-100h-200v-100h-100v-200h400v-100h100v-100h100v-400h-100z" />
    <glyph glyph-name="afii10067" unicode="&#x432;" 
d="M0 0v100h100v600h-100v100h700v-100h100v-200h-100v-100h100v-300h-100v-100h-700zM600 500v200h-300v-200h300zM600 400h-300v-300h300v300z" />
    <glyph glyph-name="afii10068" unicode="&#x433;" horiz-adv-x="800" 
d="M0 0v100h100v600h-100v100h700v-200h-200v100h-200v-600h100v-100h-400z" />
    <glyph glyph-name="afii10069" unicode="&#x434;" 
d="M500 100v600h-100v-400h-100v-200h200zM800 800v-100h-100v-600h100v-300h-200v200h-400v-200h-200v300h100v200h100v400h-100v100h700z" />
    <glyph glyph-name="afii10070" unicode="&#x435;" 
d="M500 100v100h200v-100h-100v-100h-400v100h-100v100h-100v400h100v100h100v100h400v-100h100v-100h100v-200h-600v-200h100v-100h200zM600 500v100h-100v100h-200v-100h-100v-100h400z" />
    <glyph glyph-name="afii10072" unicode="&#x436;" horiz-adv-x="1500" 
d="M0 0v100h100v100h100v100h100v100h100v100h-100v100h-100v100h-100v100h1200v-100h-100v-100h-100v-100h-100v-100h100v-100h100v-100h100v-100h100v-100h-400v100h100v100h-100v100h-200v-200h100v-100h-400v100h100v200h-200v-100h-100v-100h100v-100h-400zM900 500
v100h100v100h-200v-200h100zM500 600v-100h100v200h-200v-100h100z" />
    <glyph glyph-name="afii10073" unicode="&#x437;" horiz-adv-x="800" 
d="M500 100v300h-400v100h400v200h-200v-100h-300v200h600v-100h100v-200h-100v-100h100v-300h-100v-100h-500v100h-100v100h200v-100h300z" />
    <glyph glyph-name="afii10074" unicode="&#x438;" horiz-adv-x="1000" 
d="M500 100h100v300h-100v-200h-100v-100h-100v-100h-200v700h-100v100h400v-100h-100v-300h100v200h100v100h100v100h300v-100h-100v-600h100v-100h-400v100z" />
    <glyph glyph-name="afii10075" unicode="&#x439;" horiz-adv-x="1000" 
d="M500 100h100v300h-100v-200h-100v-100h-100v-100h-200v700h-100v100h400v-100h-100v-300h100v200h100v100h100v100h300v-100h-100v-600h100v-100h-400v100zM200 1000h-100v100h200v-100h300v100h200v-100h-100v-100h-500v100z" />
    <glyph glyph-name="afii10076" unicode="&#x43a;" horiz-adv-x="1000" 
d="M500 100h100v100h-100v100h-200v-200h100v-100h-400v100h100v600h-100v100h800v-100h-100v-100h-100v-100h-100v-100h100v-100h100v-100h100v-100h100v-100h-400v100zM300 500h100v100h100v100h-200v-200z" />
    <glyph glyph-name="afii10077" unicode="&#x43b;" 
d="M500 100v600h-100v-600h-100v-100h-300v100h200v600h-100v100h700v-100h-100v-600h100v-100h-400v100h100z" />
    <glyph glyph-name="afii10078" unicode="&#x43c;" horiz-adv-x="1100" 
d="M0 0v100h100v600h-100v100h300v-100h100v-100h200v100h100v100h300v-100h-100v-600h100v-100h-400v100h100v400h-100v-200h-200v200h-100v-400h100v-100h-400z" />
    <glyph glyph-name="afii10079" unicode="&#x43d;" horiz-adv-x="1000" 
d="M500 100h100v300h-300v-300h100v-100h-400v100h100v600h-100v100h400v-100h-100v-200h300v200h-100v100h400v-100h-100v-600h100v-100h-400v100z" />
    <glyph glyph-name="afii10080" unicode="&#x43e;" 
d="M500 100v100h100v400h-100v100h-200v-100h-100v-400h100v-100h200zM700 200v-100h-100v-100h-400v100h-100v100h-100v400h100v100h100v100h400v-100h100v-100h100v-400h-100z" />
    <glyph glyph-name="afii10081" unicode="&#x43f;" horiz-adv-x="1000" 
d="M0 0v100h100v600h-100v100h900v-100h-100v-600h100v-100h-400v100h100v600h-300v-600h100v-100h-400z" />
    <glyph glyph-name="afii10082" unicode="&#x440;" horiz-adv-x="1000" 
d="M0 -400v100h100v1000h-100v100h700v-100h100v-100h100v-400h-100v-100h-100v-100h-400v-300h100v-100h-400zM400 700v-100h-100v-400h100v-100h200v100h100v400h-100v100h-200z" />
    <glyph glyph-name="afii10083" unicode="&#x441;" 
d="M500 100v100h100v100h200v-100h-100v-100h-100v-100h-400v100h-100v100h-100v400h100v100h100v100h600v-300h-200v100h-100v100h-200v-100h-100v-400h100v-100h200z" />
    <glyph glyph-name="afii10084" unicode="&#x442;" 
d="M500 100h100v-100h-400v100h100v600h-100v-100h-200v200h800v-200h-200v100h-100v-600z" />
    <glyph glyph-name="afii10085" unicode="&#x443;" 
d="M0 -400v100h100v100h100v200h100v200h-100v300h-100v200h-100v100h800v-100h-100v-200h-100v-300h-100v-200h-100v-200h-100v-100h-100v-100h-200zM300 500h200v200h-200v-200z" />
    <glyph glyph-name="afii10086" unicode="&#x444;" horiz-adv-x="1300" 
d="M1000 200v400h-100v100h-100v-100h-100v-400h100v-100h100v100h100zM1200 600v-400h-100v-100h-100v-100h-300v-300h100v-100h-400v100h100v300h-300v100h-100v100h-100v400h100v100h100v100h300v300h-100v100h400v-100h-100v-300h300v-100h100v-100h100zM200 200h100
v-100h100v100h100v400h-100v100h-100v-100h-100v-400z" />
    <glyph glyph-name="afii10087" unicode="&#x445;" 
d="M500 100v100h-200v-100h200zM0 0v100h100v100h100v100h100v200h-100v100h-100v100h-100v100h800v-100h-100v-100h-100v-100h-100v-200h100v-100h100v-100h100v-100h-800zM300 600h200v100h-200v-100z" />
    <glyph glyph-name="afii10088" unicode="&#x446;" horiz-adv-x="1000" 
d="M0 0v100h100v600h-100v100h400v-100h-100v-600h300v600h-100v100h400v-100h-100v-600h100v-300h-200v200h-700z" />
    <glyph glyph-name="afii10089" unicode="&#x447;" horiz-adv-x="1000" 
d="M500 100h100v300h-400v100h-100v200h-100v100h400v-100h-100v-200h300v200h-100v100h400v-100h-100v-600h100v-100h-400v100z" />
    <glyph glyph-name="afii10090" unicode="&#x448;" horiz-adv-x="1300" 
d="M0 0v100h100v600h-100v100h1200v-100h-100v-600h100v-100h-1200zM500 100v600h-200v-600h200zM900 700h-200v-600h200v600z" />
    <glyph glyph-name="afii10091" unicode="&#x449;" horiz-adv-x="1300" 
d="M0 0v100h100v600h-100v100h1200v-100h-100v-600h100v-300h-200v200h-1000zM500 100v600h-200v-600h200zM900 700h-200v-600h200v600z" />
    <glyph glyph-name="afii10092" unicode="&#x44a;" horiz-adv-x="1100" 
d="M900 500v-100h100v-300h-100v-100h-700v100h100v600h-100v-100h-200v200h600v-100h-100v-200h400zM500 100h300v300h-300v-300z" />
    <glyph glyph-name="afii10093" unicode="&#x44b;" horiz-adv-x="1200" 
d="M1100 0h-1100v100h100v600h-100v100h400v-100h-100v-200h400v-100h100v300h-100v100h400v-100h-100v-600h100v-100zM600 100v300h-300v-300h300z" />
    <glyph glyph-name="afii10094" unicode="&#x44c;" 
d="M0 0v100h100v600h-100v100h400v-100h-100v-200h400v-100h100v-300h-100v-100h-700zM600 400h-300v-300h300v300z" />
    <glyph glyph-name="afii10095" unicode="&#x44d;" 
d="M500 100v100h100v200h-100v-100h-200v300h200v-100h100v100h-100v100h-200v-100h-100v-100h-200v300h600v-100h100v-100h100v-400h-100v-100h-100v-100h-400v100h-100v100h-100v100h200v-100h100v-100h200z" />
    <glyph glyph-name="afii10096" unicode="&#x44e;" horiz-adv-x="1200" 
d="M500 100h-100v100h-100v-100h100v-100h-400v100h100v600h-100v100h400v-100h-100v-100h100v100h100v100h400v-100h100v-100h100v-400h-100v-100h-100v-100h-400v100zM800 200h100v400h-100v100h-200v-100h-100v-400h100v-100h200v100z" />
    <glyph glyph-name="afii10097" unicode="&#x44f;" 
d="M500 100v100h-100v-100h-100v-100h-300v100h200v100h100v100h-200v100h-100v300h100v100h700v-100h-100v-600h100v-100h-400v100h100zM200 700v-300h300v300h-300z" />
    <glyph glyph-name="uni0450" unicode="&#x450;" 
d="M500 100v100h200v-100h-100v-100h-400v100h-100v100h-100v400h100v100h100v100h400v-100h100v-100h100v-200h-600v-200h100v-100h200zM600 500v100h-100v100h-200v-100h-100v-100h400zM200 1000v100h200v-100h100v-100h-200v100h-100z" />
    <glyph glyph-name="afii10071" unicode="&#x451;" 
d="M500 100v100h200v-100h-100v-100h-400v100h-100v100h-100v400h100v100h100v100h400v-100h100v-100h100v-200h-600v-200h100v-100h200zM600 500v100h-100v100h-200v-100h-100v-100h400zM200 1000h400v-100h-400v100z" />
    <glyph glyph-name="afii10099" unicode="&#x452;" 
d="M0 0v100h100v800h-100v100h100v100h-100v100h300v-200h100v-100h-100v-100h300v-100h100v-100h100v-800h-100v-100h-100v-100h-300v100h-100v100h200v-100h100v100h100v800h-100v100h-100v-100h-100v-500h100v-100h-400z" />
    <glyph glyph-name="afii10100" unicode="&#x453;" horiz-adv-x="800" 
d="M0 0v100h100v600h-100v100h700v-200h-200v100h-200v-600h100v-100h-400zM200 900v100h100v100h200v-100h-100v-100h-200z" />
    <glyph glyph-name="afii10101" unicode="&#x454;" 
d="M500 100v100h100v100h200v-100h-100v-100h-100v-100h-400v100h-100v100h-100v400h100v100h100v100h600v-300h-200v100h-100v100h-200v-100h-100v-100h100v100h200v-300h-200v100h-100v-200h100v-100h200z" />
    <glyph glyph-name="afii10102" unicode="&#x455;" horiz-adv-x="800" 
d="M500 100v200h-200v100h-200v100h-100v200h100v100h600v-300h-200v100h-100v100h-200v-200h200v-100h200v-100h100v-200h-100v-100h-600v300h200v-100h100v-100h200z" />
    <glyph glyph-name="afii10103" unicode="&#x456;" horiz-adv-x="500" 
d="M100 1200h200v-200h-200v200zM0 0v100h100v600h-100v100h300v-700h100v-100h-400z" />
    <glyph glyph-name="afii10104" unicode="&#x457;" horiz-adv-x="500" 
d="M0 0v100h100v600h-100v100h300v-700h100v-100h-400zM500 1100v-100h-600v100h600z" />
    <glyph glyph-name="afii10105" unicode="&#x458;" horiz-adv-x="400" 
d="M100 1200h200v-200h-200v200zM100 -400h-300v100h200v100h100v900h-100v100h300v-1000h-100v-100h-100v-100z" />
    <glyph glyph-name="afii10106" unicode="&#x459;" horiz-adv-x="1300" 
d="M500 100v600h-100v-600h-100v-100h-300v100h200v600h-100v100h700v-100h-100v-200h400v-100h100v-300h-100v-100h-700v100h100zM700 400v-300h300v300h-300z" />
    <glyph glyph-name="afii10107" unicode="&#x45a;" horiz-adv-x="1300" 
d="M500 100v300h-200v-300h200zM1100 0h-1100v100h100v600h-100v100h800v-100h-100v-200h400v-100h100v-300h-100v-100zM700 400v-300h300v300h-300zM300 500h200v200h-200v-200z" />
    <glyph glyph-name="afii10108" unicode="&#x45b;" horiz-adv-x="1000" 
d="M500 100h100v500h-100v100h-100v-100h-100v-500h100v-100h-400v100h100v800h-100v100h100v100h-100v100h300v-200h100v-100h-100v-100h300v-100h100v-100h100v-500h100v-100h-400v100z" />
    <glyph glyph-name="afii10109" unicode="&#x45c;" horiz-adv-x="1000" 
d="M500 100h100v100h-100v100h-200v-200h100v-100h-400v100h100v600h-100v100h800v-100h-100v-100h-100v-100h-100v-100h100v-100h100v-100h100v-100h100v-100h-400v100zM300 500h100v100h100v100h-200v-200zM400 1100h200v-100h-100v-100h-200v100h100v100z" />
    <glyph glyph-name="uni045D" unicode="&#x45d;" horiz-adv-x="1000" 
d="M500 100h100v300h-100v-200h-100v-100h-100v-100h-200v700h-100v100h400v-100h-100v-300h100v200h100v100h100v100h300v-100h-100v-600h100v-100h-400v100zM400 1000h-100v100h200v-100h100v-100h-200v100z" />
    <glyph glyph-name="afii10110" unicode="&#x45e;" 
d="M0 -400v100h100v100h100v200h100v200h-100v300h-100v200h-100v100h800v-100h-100v-200h-100v-300h-100v-200h-100v-200h-100v-100h-100v-100h-200zM200 1000h-100v100h200v-100h200v100h200v-100h-100v-100h-400v100zM300 500h200v200h-200v-200z" />
    <glyph glyph-name="afii10193" unicode="&#x45f;" horiz-adv-x="1000" 
d="M0 0v100h100v600h-100v100h400v-100h-100v-600h300v600h-100v100h400v-100h-100v-600h100v-100h-300v-200h-200v200h-400z" />
    <glyph glyph-name="uni0460" unicode="&#x460;" horiz-adv-x="1500" 
d="M1000 200v-200h-200v200h-200v-200h-200v200h-100v300h-100v300h-100v200h-100v100h400v-100h-100v-200h100v-300h200v500h-100v100h400v-100h-100v-500h200v300h100v200h-100v100h400v-100h-100v-200h-100v-300h-100v-300h-100z" />
    <glyph glyph-name="uni0461" unicode="&#x461;" horiz-adv-x="1100" 
d="M900 500h-100v-300h-100v-200h-400v200h-100v300h-100v200h-100v100h1000v-100h-100v-200zM600 500h100v200h-100v-200zM400 700h-100v-200h100v200z" />
    <glyph glyph-name="uni0462" unicode="&#x462;" horiz-adv-x="1000" 
d="M0 0v100h100v600h-200v200h200v100h-100v100h400v-100h-100v-100h200v-200h-200v-100h400v-100h100v-100h100v-200h-100v-100h-100v-100h-700zM700 400h-100v100h-300v-400h300v100h100v200z" />
    <glyph glyph-name="uni0463" unicode="&#x463;" 
d="M0 0v100h100v300h-200v200h200v100h-100v100h400v-100h-100v-100h200v-100h200v-100h100v-300h-100v-100h-700zM600 100v300h-300v-300h300z" />
    <glyph glyph-name="uni0464" unicode="&#x464;" horiz-adv-x="1300" 
d="M1000 200v100h200v-200h-200v-100h-400v100h-200v200h-100v-200h100v-100h-400v100h100v900h-100v100h400v-100h-100v-200h100v200h200v100h600v-300h-200v100h-100v100h-200v-100h-100v-100h-100v-200h300v100h200v-300h-200v100h-300v-200h100v-100h100v-100h200v100
h100z" />
    <glyph glyph-name="uni0465" unicode="&#x465;" horiz-adv-x="1200" 
d="M500 100h-100v100h-100v-100h100v-100h-400v100h100v600h-100v100h400v-100h-100v-100h100v100h100v100h600v-300h-200v100h-100v100h-200v-100h-100v-100h100v100h200v-300h-200v100h-100v-200h100v-100h200v100h100v100h200v-100h-100v-100h-100v-100h-400v100z" />
    <glyph glyph-name="uni0466" unicode="&#x466;" horiz-adv-x="1100" 
d="M0 0v100h100v200h100v300h100v300h100v100h-100v100h300v-200h100v-300h100v-300h100v-200h100v-100h-1000zM700 200h-100v-100h100v100zM600 600h-200v-200h200v200zM300 100h100v100h-100v-100z" />
    <glyph glyph-name="uni0467" unicode="&#x467;" 
d="M0 0v100h100v200h100v300h100v200h200v-200h100v-300h100v-200h100v-100h-800z" />
    <glyph glyph-name="uni0468" unicode="&#x468;" horiz-adv-x="1500" 
d="M1000 200v-100h100v100h-100zM0 0v100h100v900h-100v100h400v-100h-100v-400h400v300h100v100h-100v100h300v-200h100v-300h100v-300h100v-200h100v-100h-1400zM500 100v200h100v200h-300v-400h200zM1000 400v200h-200v-200h200zM700 200v-100h100v100h-100z" />
    <glyph glyph-name="uni0469" unicode="&#x469;" horiz-adv-x="1300" 
d="M500 100v200h100v100h-300v-300h200zM0 0v100h100v600h-100v100h400v-100h-100v-200h300v100h100v200h200v-200h100v-300h100v-200h100v-100h-1200z" />
    <glyph glyph-name="uni046A" unicode="&#x46a;" horiz-adv-x="1300" 
d="M0 0v100h100v300h100v100h100v100h200v100h-100v100h-100v100h-100v100h-100v100h1000v-100h-100v-100h-100v-100h-100v-100h-100v-100h200v-100h100v-100h100v-300h100v-100h-1200zM700 800v100h100v100h-400v-100h100v-100h200zM800 400v100h-100v-400h200v300h-100z
M300 100h200v400h-100v-100h-100v-300z" />
    <glyph glyph-name="uni046B" unicode="&#x46b;" horiz-adv-x="1300" 
d="M500 100v200h-200v-200h200zM0 0v100h100v200h100v100h300v100h-100v100h-100v100h-100v100h800v-100h-100v-100h-100v-100h-100v-100h300v-100h100v-200h100v-100h-1200zM900 300h-200v-200h200v200zM500 600h200v100h-200v-100z" />
    <glyph glyph-name="uni046C" unicode="&#x46c;" horiz-adv-x="1700" 
d="M0 0v100h100v900h-100v100h400v-100h-100v-400h600v100h-100v100h-100v100h-100v100h-100v100h1000v-100h-100v-100h-100v-100h-100v-100h-100v-100h200v-100h100v-100h100v-300h100v-100h-1600zM900 500h-100v-100h-100v-300h200v400zM300 500v-400h200v300h100v100
h-300zM1200 900v100h-400v-100h100v-100h200v100h100zM1100 100h200v300h-100v100h-100v-400z" />
    <glyph glyph-name="uni046D" unicode="&#x46d;" horiz-adv-x="1700" 
d="M900 500h-100v100h-100v100h-100v100h800v-100h-100v-100h-100v-100h-100v-100h300v-100h100v-200h100v-100h-1600v100h100v600h-100v100h400v-100h-100v-300h600v100zM500 100v200h-200v-200h200zM900 300h-200v-200h200v200zM1100 700h-200v-100h200v100zM1300 100v200
h-200v-200h200z" />
    <glyph glyph-name="uni046E" unicode="&#x46e;" 
d="M0 0h100v100h400v100h100v200h-100v100h-300v100h300v100h100v200h-100v100h-200v-100h-100v-100h-200v300h600v-100h100v-100h100v-200h-100v-100h-100v-100h100v-100h100v-200h-100v-100h-100v-100h-400v-200h400v-100h100v-100h-200v100h-400v100h-100v200zM500 1200
h-200v100h-100v100h400v-100h-100v-100z" />
    <glyph glyph-name="uni046F" unicode="&#x46f;" horiz-adv-x="800" 
d="M500 100v300h-400v100h400v200h-200v-100h-300v200h600v-100h100v-200h-100v-100h100v-300h-100v-100h-400v-200h400v-100h100v-100h-200v100h-400v100h-100v200h100v100h400zM200 1000h-100v100h200v-100h100v100h200v-100h-100v-100h-300v100z" />
    <glyph glyph-name="uni0470" unicode="&#x470;" horiz-adv-x="1100" 
d="M1100 1100v-100h-100v-100h-100v-200h-100v-100h-100v-100h-100v-400h100v-100h-400v100h100v400h-100v100h-100v100h-100v300h-100v100h200v-100h100v-300h100v300h-100v100h400v-100h-100v-300h100v200h100v100h100v100h200z" />
    <glyph glyph-name="uni0471" unicode="&#x471;" horiz-adv-x="1100" 
d="M900 500v-300h-100v-100h-100v-100h-100v-400h-200v400h-100v100h-100v100h-100v500h-100v100h200v-100h100v-500h100v600h200v-600h100v300h100v200h100v100h200v-100h-100v-200h-100z" />
    <glyph glyph-name="uni0472" unicode="&#x472;" horiz-adv-x="1100" 
d="M800 800h-100v100h-100v100h-200v-100h-100v-100h-100v-100h300v-100h100v-100h100v100h100v200zM300 500h-100v-200h100v-100h100v-100h200v100h100v100h100v100h-300v100h-100v100h-100v-100zM700 0h-400v100h-200v200h-100v500h100v200h200v100h400v-100h200v-200h100
v-500h-100v-200h-200v-100z" />
    <glyph glyph-name="uni0473" unicode="&#x473;" 
d="M500 100v100h100v100h-400v-100h100v-100h200zM600 500v100h-100v100h-200v-100h-100v-100h400zM700 200v-100h-100v-100h-400v100h-100v100h-100v400h100v100h100v100h400v-100h100v-100h100v-400h-100z" />
    <glyph glyph-name="uni0474" unicode="&#x474;" horiz-adv-x="1100" 
d="M0 1100h400v-100h-100v-200h100v-300h200v300h100v200h100v100h200v-100h100v-100h-200v-100h-100v-300h-100v-300h-100v-200h-200v200h-100v300h-100v300h-100v200h-100v100z" />
    <glyph glyph-name="uni0475" unicode="&#x475;" 
d="M600 500v-300h-100v-200h-200v200h-100v300h-100v200h-100v100h400v-100h-100v-200h200v200h100v100h200v-100h100v-100h-200v-100h-100z" />
    <glyph glyph-name="uni0476" unicode="&#x476;" horiz-adv-x="1100" 
d="M0 1100h400v-100h-100v-200h100v-300h200v300h100v200h100v100h200v-100h100v-100h-200v-100h-100v-300h-100v-300h-100v-200h-200v200h-100v300h-100v300h-100v200h-100v100zM200 1300v100h400v-100h100v-100h-400v100h-100z" />
    <glyph glyph-name="uni0477" unicode="&#x477;" 
d="M600 500v-300h-100v-200h-200v200h-100v300h-100v200h-100v100h400v-100h-100v-200h200v200h100v100h200v-100h100v-100h-200v-100h-100zM200 1000h-100v100h400v-100h100v-100h-400v100z" />
    <glyph glyph-name="uni0478" unicode="&#x478;" horiz-adv-x="1800" 
d="M1100 0h100v200h-100v300h-100v-200h-100v-200h-200v-100h-400v100h-200v200h-100v500h100v200h200v100h400v-100h200v-200h800v-100h-100v-200h-100v-300h-100v-200h-100v-200h-100v-100h-100v-100h-200v100h100v100h100v200zM800 800h-100v100h-100v100h-200v-100h-100
v-100h-100v-500h100v-100h100v-100h200v100h100v100h100v500zM1400 500v200h-200v-200h200z" />
    <glyph glyph-name="uni0479" unicode="&#x479;" horiz-adv-x="1600" 
d="M1100 0v-200h-100v-100h-100v-100h-200v100h100v100h100v200h100v200h-100v300h-100v-300h-100v-100h-100v-100h-400v100h-100v100h-100v400h100v100h100v100h400v-100h100v-100h100v100h-100v100h800v-100h-100v-200h-100v-300h-100v-200h-100zM600 600h-100v100h-200
v-100h-100v-400h100v-100h200v100h100v400zM1000 700v-200h200v200h-200z" />
    <glyph glyph-name="uni047A" unicode="&#x47a;" horiz-adv-x="1200" 
d="M800 800v100h-500v-100h-100v-500h100v-100h500v100h100v500h-100zM1000 800h100v-500h-100v-200h-200v-100h-100v-100h-300v100h-100v100h-200v200h-100v500h100v200h200v100h100v100h300v-100h100v-100h200v-200z" />
    <glyph glyph-name="uni047B" unicode="&#x47b;" horiz-adv-x="1000" 
d="M700 200v400h-500v-400h500zM800 200v-100h-100v-100h-100v-100h-300v100h-100v100h-100v100h-100v400h100v100h100v100h100v100h300v-100h100v-100h100v-100h100v-400h-100z" />
    <glyph glyph-name="uni047C" unicode="&#x47c;" horiz-adv-x="1500" 
d="M900 500h-100v-200h100v-200h200v200h100v500h-100v200h-100v100h200v-100h100v-200h100v-500h-100v-200h-100v-100h-400v100h-200v-100h-400v100h-100v200h-100v500h100v200h100v100h200v-100h-100v-200h-100v-500h100v-200h200v200h100v200h-100v100h400v-100zM800 800
h-200v100h-100v100h300v-200zM400 1300h400v100h200v-200h-400v-100h-200v200z" />
    <glyph glyph-name="uni047D" unicode="&#x47d;" horiz-adv-x="1300" 
d="M1000 200v400h-100v100h-100v100h200v-100h100v-100h100v-400h-100v-100h-100v-100h-300v100h-200v-100h-300v100h-100v100h-100v400h100v100h100v100h200v-100h-100v-100h-100v-400h100v-100h100v100h100v200h-100v100h400v-100h-100v-200h100v-100h100v100h100z
M100 900v200h800v100h200v-200h-800v-100h-200zM400 800v100h300v-200h-200v100h-100z" />
    <glyph glyph-name="uni047E" unicode="&#x47e;" horiz-adv-x="1500" 
d="M1000 200v-200h-200v200h-200v-200h-200v200h-100v300h-100v300h-100v200h-100v100h400v-100h-100v-200h100v-300h200v500h-100v100h400v-100h-100v-500h200v300h100v200h-100v100h400v-100h-100v-200h-100v-300h-100v-300h-100zM500 1200h-200v200h800v-200h-200v100
h-100v-100h-200v100h-100v-100z" />
    <glyph glyph-name="uni047F" unicode="&#x47f;" horiz-adv-x="1100" 
d="M900 500h-100v-300h-100v-200h-400v200h-100v300h-100v200h-100v100h1000v-100h-100v-200zM600 500h100v200h-100v-200zM400 700h-100v-200h100v200zM100 900v200h800v-200h-200v100h-100v-100h-200v100h-100v-100h-200z" />
    <glyph glyph-name="uni0480" unicode="&#x480;" horiz-adv-x="1000" 
d="M700 -200h-200v200h-200v100h-200v200h-100v500h100v200h200v100h600v-300h-200v100h-100v100h-200v-100h-100v-100h-100v-500h100v-100h100v-100h300v-300z" />
    <glyph glyph-name="uni0481" unicode="&#x481;" 
d="M600 500v100h-100v100h-200v-100h-100v-400h100v-100h300v-300h-200v200h-200v100h-100v100h-100v400h100v100h100v100h600v-300h-200z" />
    <glyph glyph-name="uni2000" unicode="&#x2000;" horiz-adv-x="1100" 
 />
    <glyph glyph-name="uni2001" unicode="&#x2001;" horiz-adv-x="2100" 
 />
    <glyph glyph-name="uni2002" unicode="&#x2002;" horiz-adv-x="1100" 
 />
    <glyph glyph-name="uni2003" unicode="&#x2003;" horiz-adv-x="2100" 
 />
    <glyph glyph-name="uni2004" unicode="&#x2004;" horiz-adv-x="800" 
 />
    <glyph glyph-name="uni2005" unicode="&#x2005;" horiz-adv-x="600" 
 />
    <glyph glyph-name="uni2006" unicode="&#x2006;" horiz-adv-x="400" 
 />
    <glyph glyph-name="uni2007" unicode="&#x2007;" 
 />
    <glyph glyph-name="uni2008" unicode="&#x2008;" horiz-adv-x="500" 
 />
    <glyph glyph-name="uni2009" unicode="&#x2009;" horiz-adv-x="400" 
 />
    <glyph glyph-name="uni200A" unicode="&#x200a;" horiz-adv-x="200" 
 />
    <glyph glyph-name="uni200B" unicode="&#x200b;" horiz-adv-x="0" 
 />
    <glyph glyph-name="uni200C" unicode="&#x200c;" horiz-adv-x="0" 
 />
    <glyph glyph-name="uni200D" unicode="&#x200d;" horiz-adv-x="0" 
 />
    <glyph glyph-name="uni200E" unicode="&#x200e;" horiz-adv-x="0" 
 />
    <glyph glyph-name="uni200F" unicode="&#x200f;" horiz-adv-x="0" 
 />
    <glyph glyph-name="uni2010" unicode="&#x2010;" horiz-adv-x="800" 
d="M700 400h-700v100h700v-100z" />
    <glyph glyph-name="uni2011" unicode="&#x2011;" horiz-adv-x="800" 
d="M700 400h-700v100h700v-100z" />
    <glyph glyph-name="uni2012" unicode="&#x2012;" 
d="M0 400v100h800v-100h-800z" />
    <glyph glyph-name="endash" unicode="&#x2013;" 
d="M0 400v100h800v-100h-800z" />
    <glyph glyph-name="emdash" unicode="&#x2014;" horiz-adv-x="1400" 
d="M0 400v100h1300v-100h-1300z" />
    <glyph glyph-name="afii00208" unicode="&#x2015;" horiz-adv-x="1400" 
d="M0 400v100h1300v-100h-1300z" />
    <glyph glyph-name="uni2016" unicode="&#x2016;" horiz-adv-x="500" 
d="M0 -300v1500h400v-1500h-400z" />
    <glyph glyph-name="underscoredbl" unicode="&#x2017;" 
d="M0 0h800v-100h-800v100zM0 -200h800v-100h-800v100z" />
    <glyph glyph-name="quoteleft" unicode="&#x2018;" horiz-adv-x="400" 
d="M100 1200h200v-100h-100v-100h100v-200h-300v300h100v100z" />
    <glyph glyph-name="quoteright" unicode="&#x2019;" horiz-adv-x="400" 
d="M0 1200h300v-300h-100v-100h-200v100h100v100h-100v200z" />
    <glyph glyph-name="quotesinglbase" unicode="&#x201a;" horiz-adv-x="400" 
d="M0 0v200h300v-300h-100v-100h-200v100h100v100h-100z" />
    <glyph glyph-name="quotereversed" unicode="&#x201b;" horiz-adv-x="400" 
d="M0 1200h300v-200h-100v-100h100v-100h-200v100h-100v300z" />
    <glyph glyph-name="quotedblleft" unicode="&#x201c;" horiz-adv-x="700" 
d="M100 1200h200v-100h-100v-100h100v100h100v100h200v-100h-100v-100h100v-200h-600v300h100v100z" />
    <glyph glyph-name="quotedblright" unicode="&#x201d;" horiz-adv-x="700" 
d="M0 1200h600v-300h-100v-100h-200v100h100v100h-100v-100h-100v-100h-200v100h100v100h-100v200z" />
    <glyph glyph-name="quotedblbase" unicode="&#x201e;" horiz-adv-x="700" 
d="M0 0v200h600v-300h-100v-100h-200v100h100v100h-100v-100h-100v-100h-200v100h100v100h-100z" />
    <glyph glyph-name="uni201F" unicode="&#x201f;" horiz-adv-x="700" 
d="M0 1200h600v-200h-100v-100h100v-100h-200v100h-100v100h-100v-100h100v-100h-200v100h-100v300z" />
    <glyph glyph-name="dagger" unicode="&#x2020;" horiz-adv-x="700" 
d="M400 500h-200v400h-200v100h200v200h200v-200h200v-100h-200v-400z" />
    <glyph glyph-name="daggerdbl" unicode="&#x2021;" horiz-adv-x="700" 
d="M200 900h-200v100h200v200h200v-200h200v-100h-200v-200h200v-100h-200v-200h-200v200h-200v100h200v200z" />
    <glyph glyph-name="bullet" unicode="&#x2022;" horiz-adv-x="700" 
d="M500 300h-400v100h-100v300h100v100h400v-100h100v-300h-100v-100z" />
    <glyph glyph-name="uni2023" unicode="&#x2023;" horiz-adv-x="700" 
d="M400 500v-100h-200v-100h-200v500h200v-100h200v-100h200v-100h-200z" />
    <glyph glyph-name="uni2024" unicode="&#x2024;" horiz-adv-x="500" 
d="M100 0v200h200v-200h-200z" />
    <glyph glyph-name="uni2025" unicode="&#x2025;" horiz-adv-x="800" 
d="M100 0v200h200v-200h-200zM600 200v-200h-200v200h200z" />
    <glyph glyph-name="ellipsis" unicode="&#x2026;" horiz-adv-x="1100" 
d="M700 0v200h200v-200h-200zM100 0v200h200v-200h-200zM600 200v-200h-200v200h200z" />
    <glyph glyph-name="uni2027" unicode="&#x2027;" horiz-adv-x="300" 
d="M0 700h200v-200h-200v200z" />
    <glyph glyph-name="perthousand" unicode="&#x2030;" horiz-adv-x="1400" 
d="M500 100v100h-100v-200h-200v200h100v200h100v200h-300v100h-100v300h100v100h700v-200h-100v-200h-100v-200h600v-100h100v-300h-100v-100h-600v100h-100zM700 400v-300h100v300h-100zM1000 400v-300h100v300h-100zM200 1000v-300h100v300h-100zM500 900h100v100h-100
v-100z" />
    <glyph glyph-name="uni2031" unicode="&#x2031;" horiz-adv-x="1700" 
d="M1600 100h-100v-100h-900v100h-100v100h-100v-200h-200v200h100v200h100v200h-300v100h-100v300h100v100h700v-200h-100v-200h-100v-200h900v-100h100v-300zM700 400v-300h100v300h-100zM200 1000v-300h100v300h-100zM1400 100v300h-100v-300h100zM500 900h100v100h-100
v-100zM1100 400h-100v-300h100v300z" />
    <glyph glyph-name="guilsinglleft" unicode="&#x2039;" horiz-adv-x="600" 
d="M500 100h-200v100h-100v100h-100v100h-100v100h100v100h100v100h100v100h200v-100h-100v-100h-100v-100h-100v-100h100v-100h100v-100h100v-100z" />
    <glyph glyph-name="guilsinglright" unicode="&#x203a;" horiz-adv-x="600" 
d="M300 300v-100h-100v-100h-200v100h100v100h100v100h100v100h-100v100h-100v100h-100v100h200v-100h100v-100h100v-100h100v-100h-100v-100h-100z" />
    <glyph glyph-name="exclamdbl" unicode="&#x203c;" horiz-adv-x="500" 
d="M0 0v200h400v-200h-400zM0 1100h400v-800h-400v800z" />
    <glyph glyph-name="uni203D" unicode="&#x203d;" 
d="M600 500h-100v-200h-200v600h-100v-100h-200v100h100v100h100v100h100v100h200v-100h100v-100h100v-100h100v-200h-100v-100h-100v-100zM500 900v-200h100v200h-100zM500 0h-200v200h200v-200z" />
    <glyph glyph-name="fraction" unicode="&#x2044;" horiz-adv-x="500" 
d="M-100 300v100h100v100h100v100h100v100h100v100h100v100h100v100h100v100h200v-100h-100v-100h-100v-100h-100v-100h-100v-100h-100v-100h-100v-100h-100v-100h-100v-100h-100v-100h-100v-100h-200v100h100v100h100v100h100z" />
    <glyph glyph-name="uni2047" unicode="&#x2047;" horiz-adv-x="1700" 
d="M1100 0v200h200v-200h-200zM800 800v-100h-100v-100h-100v-100h-100v-200h-200v200h100v100h100v100h100v200h-100v100h-200v-100h-100v-100h-200v100h100v100h100v100h400v-100h100v-100h200v100h100v100h400v-100h100v-100h100v-200h-100v-100h-100v-100h-100v-200
h-200v200h100v100h100v100h100v200h-100v100h-200v-100h-100v-100h-200zM500 200v-200h-200v200h200z" />
    <glyph glyph-name="uni2048" unicode="&#x2048;" horiz-adv-x="1100" 
d="M1000 200v-200h-200v200h200zM600 500h-100v-200h-200v200h100v100h100v100h100v200h-100v100h-200v-100h-100v-100h-200v100h100v100h100v100h400v-100h100v-100h100v200h200v-800h-200v400h-100v-100h-100v-100zM500 0h-200v200h200v-200z" />
    <glyph glyph-name="uni2049" unicode="&#x2049;" horiz-adv-x="1100" 
d="M0 0v200h200v-200h-200zM0 1100h200v-200h100v100h100v100h400v-100h100v-100h100v-200h-100v-100h-100v-100h-100v-200h-200v200h100v100h100v100h100v200h-100v100h-200v-100h-100v-100h-200v-500h-200v800zM700 200v-200h-200v200h200z" />
    <glyph glyph-name="Euro" unicode="&#x20ac;" horiz-adv-x="1200" 
d="M600 600h-200v-100h200v-100h-200v-100h100v-100h100v-100h200v100h100v100h200v-200h-200v-100h-400v100h-200v200h-100v100h-200v100h200v100h-200v100h200v100h100v200h200v100h600v-300h-200v100h-100v100h-200v-100h-100v-100h-100v-100h200v-100z" />
    <glyph glyph-name="uni2117" unicode="&#x2117;" horiz-adv-x="1300" 
d="M1000 200v-100h-200v-100h-400v100h-200v100h-100v200h-100v300h100v200h100v100h200v100h400v-100h200v-100h100v-200h100v-300h-100v-200h-100zM800 800v-100h100v-100h-100v-100h-300v-200h-200v-100h200v-100h200v100h200v200h100v300h-100v200h-200v100h-200v-100
h-200v-100h500zM200 700v-300h100v300h-100zM500 600h200v100h-200v-100z" />
    <glyph glyph-name="uni2120" unicode="&#x2120;" horiz-adv-x="1100" 
d="M100 1200h500v-100h200v100h200v-400h-200v100h-200v-100h-200v100h-100v-100h-300v100h200v100h-200v100h100v100zM400 1100h-100v-100h100v100z" />
    <glyph glyph-name="trademark" unicode="&#x2122;" horiz-adv-x="1100" 
d="M0 1100v100h600v-100h200v100h200v-400h-200v100h-200v-100h-200v300h-100v-300h-200v300h-100z" />
    <glyph glyph-name="Omega" unicode="&#x2126;" horiz-adv-x="1200" 
d="M0 0v200h200v-100h100v200h-200v200h-100v300h100v200h200v100h500v-100h200v-200h100v-300h-100v-200h-200v-200h100v100h200v-200h-500v300h100v100h100v100h100v300h-100v100h-100v100h-300v-100h-100v-100h-100v-300h100v-100h100v-100h100v-300h-500z" />
    <glyph glyph-name="uni2127" unicode="&#x2127;" horiz-adv-x="1200" 
d="M800 800h200v-200h100v-300h-100v-200h-200v-100h-500v100h-200v200h-100v300h100v200h200v200h-100v-100h-200v200h500v-300h-100v-100h-100v-100h-100v-300h100v-100h100v-100h300v100h100v100h100v300h-100v100h-100v100h-100v300h500v-200h-200v100h-100v-200z" />
    <glyph glyph-name="uni21E7" unicode="&#x21e7;" horiz-adv-x="1100" 
d="M400 700v-600h200v600h100v100h-100v100h-200v-100h-100v-100h100zM800 800h100v-100h100v-100h-200v-600h-600v600h-200v100h100v100h100v100h100v100h100v100h200v-100h100v-100h100v-100z" />
    <glyph glyph-name="uni2200" unicode="&#x2200;" horiz-adv-x="1100" 
d="M0 1100h400v-100h-100v-200h100v-100h200v100h100v200h-100v100h400v-100h-100v-200h-100v-300h-100v-300h-100v-200h-300v100h100v100h-100v300h-100v300h-100v200h-100v100zM600 500v100h-200v-100h200z" />
    <glyph glyph-name="uni2201" unicode="&#x2201;" horiz-adv-x="800" 
d="M500 100v100h200v-100h-100v-100h-400v100h-100v200h-100v500h100v200h100v100h500v-300h-200v100h-100v100h-100v-200h-100v-500h100v-200h200z" />
    <glyph glyph-name="partialdiff" unicode="&#x2202;" 
d="M600 300v300h-100v100h-100v-100h-100v-100h-100v-300h100v-100h100v100h100v100h100zM200 1100v100h300v-100h100v-100h100v-100h100v-600h-100v-100h-100v-100h-100v-100h-300v100h-100v100h-100v300h100v100h100v100h100v100h300v100h-100v100h-100v100h-200z" />
    <glyph glyph-name="uni2203" unicode="&#x2203;" horiz-adv-x="1000" 
d="M0 0v200h200v-100h400v400h-200v-100h-200v300h200v-100h200v400h-400v-100h-200v200h900v-100h-100v-900h100v-100h-900z" />
    <glyph glyph-name="uni2204" unicode="&#x2204;" horiz-adv-x="1000" 
d="M0 0v200h200v500h200v300h-200v-100h-200v200h500v200h200v-200h200v-100h-100v-900h100v-100h-600v-200h-200v200h-100zM600 500h-100v-100h-100v-300h200v400zM600 600v100h-100v-100h100z" />
    <glyph glyph-name="uni2205" unicode="&#x2205;" horiz-adv-x="1300" 
d="M0 0v100h100v200h-100v500h100v100h100v100h100v100h600v-100h100v100h200v-100h-100v-200h100v-500h-100v-100h-100v-100h-100v-100h-600v100h-100v-100h-200zM800 800v200h-400v-100h-100v-100h-100v-500h100v100h100v100h100v100h100v100h100v100h100zM500 300h-100
v-200h400v100h100v100h100v500h-100v-100h-100v-100h-100v-100h-100v-100h-100v-100z" />
    <glyph glyph-name="Delta" unicode="&#x2206;" horiz-adv-x="1100" 
d="M1000 200v-200h-1000v200h100v200h100v200h100v200h100v300h200v-300h100v-200h100v-200h100v-200h100zM700 400h-100v200h-200v-200h-100v-200h-100v-100h600v100h-100v200z" />
    <glyph glyph-name="uni2207" unicode="&#x2207;" horiz-adv-x="1100" 
d="M0 1100h1000v-200h-100v-200h-100v-200h-100v-200h-100v-300h-200v300h-100v200h-100v200h-100v200h-100v200zM600 500v200h100v200h100v100h-600v-100h100v-200h100v-200h200z" />
    <glyph glyph-name="uni2208" unicode="&#x2208;" 
d="M200 1000h100v100h500v-100h-400v-100h-100v-100h-100v-200h600v-100h-600v-200h100v-100h100v-100h400v-100h-500v100h-100v100h-100v100h-100v500h100v100h100v100z" />
    <glyph glyph-name="uni2209" unicode="&#x2209;" 
d="M400 700v200h-100v-100h-100v-200h100v100h100zM200 1000h100v100h200v200h200v-200h100v-100h-200v-300h-100v-100h300v-100h-300v-100h-100v-300h400v-100h-500v-200h-200v300h100v100h-100v100h-100v500h100v100h100v100zM300 500h-100v-100h100v100z" />
    <glyph glyph-name="uni220A" unicode="&#x220a;" horiz-adv-x="700" 
d="M600 500v-100h-400v-200h100v-100h300v-100h-400v100h-100v100h-100v400h100v100h100v100h400v-100h-300v-100h-100v-100h400z" />
    <glyph glyph-name="uni220B" unicode="&#x220b;" 
d="M500 100v-100h-500v100h400v100h100v100h100v200h-600v100h600v200h-100v100h-100v100h-400v100h500v-100h100v-100h100v-100h100v-500h-100v-100h-100v-100h-100z" />
    <glyph glyph-name="uni220C" unicode="&#x220c;" 
d="M500 100v-100h-200v-200h-200v200h-100v100h200v300h100v100h-300v100h300v100h100v300h-400v100h500v200h200v-300h-100v-100h100v-100h100v-500h-100v-100h-100v-100h-100zM600 300v200h-100v-100h-100v-200h100v100h100zM600 600v100h-100v-100h100z" />
    <glyph glyph-name="uni220D" unicode="&#x220d;" horiz-adv-x="700" 
d="M0 0v100h300v100h100v200h-400v100h400v100h-100v100h-300v100h400v-100h100v-100h100v-400h-100v-100h-100v-100h-400z" />
    <glyph glyph-name="product" unicode="&#x220f;" horiz-adv-x="1200" 
d="M0 1100v100h1100v-100h-100v-1300h100v-100h-400v100h100v1300h-500v-1300h100v-100h-400v100h100v1300h-100z" />
    <glyph glyph-name="uni2210" unicode="&#x2210;" horiz-adv-x="1200" 
d="M0 1100v100h400v-100h-100v-1300h500v1300h-100v100h400v-100h-100v-1300h100v-100h-1100v100h100v1300h-100z" />
    <glyph glyph-name="summation" unicode="&#x2211;" horiz-adv-x="1200" 
d="M0 1100v100h1100v-200h-200v100h-600v-200h100v-200h100v-200h100v-100h-100v-200h-100v-200h-100v-200h600v100h200v-200h-1100v100h100v200h100v200h100v200h100v100h-100v200h-100v200h-100v200h-100z" />
    <glyph glyph-name="radical" unicode="&#x221a;" horiz-adv-x="1100" 
d="M700 400h-100v-200h-100v-200h-200v200h-100v200h-100v100h-100v100h300v-200h200v200h100v200h100v200h100v200h200v-200h-100v-200h-100v-200h-100v-200z" />
    <glyph glyph-name="uni221B" unicode="&#x221b;" horiz-adv-x="1100" 
d="M100 1200v100h400v-100h100v-100h-100v-100h100v-200h-100v-100h-400v100h-100v100h200v-100h200v200h-200v100h200v100h-200v-100h-200v100h100zM700 400h-100v-200h-100v-200h-200v200h-100v200h-100v100h-100v100h300v-200h200v200h100v200h100v200h100v200h200v-200
h-100v-200h-100v-200h-100v-200z" />
    <glyph glyph-name="uni221C" unicode="&#x221c;" horiz-adv-x="1100" 
d="M700 400h-100v-200h-100v-200h-200v200h-100v200h-100v100h-100v100h300v-200h200v200h100v200h100v200h100v200h200v-200h-100v-200h-100v-200h-100v-200zM200 1100v100h100v100h200v-300h100v-100h-100v-200h-200v200h-300v100h100v100h100z" />
    <glyph glyph-name="uni221D" unicode="&#x221d;" horiz-adv-x="1000" 
d="M700 400h200v-100h-300v100h-200v-100h-300v100h-100v300h100v100h300v-100h200v100h300v-100h-200v-100h-100v-100h100v-100zM300 500h100v100h-100v100h-100v-300h100v100z" />
    <glyph glyph-name="infinity" unicode="&#x221e;" horiz-adv-x="1100" 
d="M600 300v100h-200v-100h-300v100h-100v300h100v100h300v-100h200v100h300v-100h100v-300h-100v-100h-300zM700 400h100v300h-100v-100h-100v-100h100v-100zM300 500h100v100h-100v100h-100v-300h100v100z" />
    <glyph glyph-name="integral" unicode="&#x222b;" horiz-adv-x="700" 
d="M100 -100v-100h100v1300h100v100h300v-100h100v-100h-200v100h-100v-1300h-100v-100h-300v100h-100v100h200z" />
    <glyph glyph-name="uni222C" unicode="&#x222c;" horiz-adv-x="1200" 
d="M1100 1100h100v-100h-200v100h-100v-1300h-100v-100h-300v100h-200v-100h-300v100h-100v100h200v-100h100v1300h100v100h300v-100h200v100h300v-100zM700 -200v1200h-200v100h-100v-1200h200v-100h100z" />
    <glyph glyph-name="uni222D" unicode="&#x222d;" horiz-adv-x="1700" 
d="M1000 -200h-200v-100h-300v100h-200v-100h-300v100h-100v100h200v-100h100v1300h100v100h300v-100h200v100h300v-100h200v100h300v-100h100v-100h-200v100h-100v-1300h-100v-100h-300v100zM1000 1100h-100v-1200h200v-100h100v1200h-200v100zM500 1100h-100v-1200h200
v-100h100v1200h-200v100z" />
    <glyph glyph-name="approxequal" unicode="&#x2248;" horiz-adv-x="800" 
d="M700 400v-100h-100v-100h-300v100h-100v-100h-200v100h100v100h300v-100h100v100h200zM600 500h-300v100h-100v-100h-200v100h100v100h300v-100h100v100h200v-100h-100v-100z" />
    <glyph glyph-name="uni2249" unicode="&#x2249;" horiz-adv-x="800" 
d="M600 300v-100h-200v-100h-100v-200h-200v200h100v100h-200v100h100v100h100v100h100v100h-100v-100h-200v100h100v100h200v100h100v200h200v-200h-100v-100h200v-100h-100v-100h-200v-200h100v100h200v-100h-100z" />
    <glyph glyph-name="notequal" unicode="&#x2260;" 
d="M400 100h-200v200h-200v100h300v100h-300v100h400v200h200v-200h200v-100h-300v-100h300v-100h-400v-200z" />
    <glyph glyph-name="equivalence" unicode="&#x2261;" horiz-adv-x="800" 
d="M700 400h-700v100h700v-100zM0 200v100h700v-100h-700zM0 600v100h700v-100h-700z" />
    <glyph glyph-name="uni2262" unicode="&#x2262;" horiz-adv-x="800" 
d="M700 400h-300v-100h300v-100h-400v-200h-200v200h-100v100h200v100h-200v100h300v100h-300v100h400v200h200v-200h100v-100h-200v-100h200v-100z" />
    <glyph glyph-name="uni2263" unicode="&#x2263;" horiz-adv-x="800" 
d="M700 400v-100h-700v100h700zM700 200v-100h-700v100h700zM700 600v-100h-700v100h700zM700 800v-100h-700v100h700z" />
    <glyph glyph-name="lessequal" unicode="&#x2264;" horiz-adv-x="600" 
d="M500 100v-100h-500v100h500zM400 700h-100v-100h-100v-100h100v-100h100v-100h100v-100h-200v100h-100v100h-100v100h-100v100h100v100h100v100h100v100h200v-100h-100v-100z" />
    <glyph glyph-name="greaterequal" unicode="&#x2265;" horiz-adv-x="600" 
d="M500 100v-100h-500v100h500zM400 700v-100h100v-100h-100v-100h-100v-100h-100v-100h-200v100h100v100h100v100h100v100h-100v100h-100v100h-100v100h200v-100h100v-100h100z" />
    <glyph glyph-name="uni2303" unicode="&#x2303;" 
d="M200 900v100h100v100h200v-100h100v-100h100v-100h100v-100h-200v100h-100v100h-200v-100h-100v-100h-200v100h100v100h100z" />
    <glyph glyph-name="uni2318" unicode="&#x2318;" horiz-adv-x="1300" 
d="M1100 0h-300v100h-100v200h-200v-200h-100v-100h-300v100h-100v200h100v100h200v300h-200v100h-100v200h100v100h300v-100h100v-200h200v200h100v100h300v-100h100v-200h-100v-100h-200v-300h200v-100h100v-200h-100v-100zM700 400v300h-200v-300h200zM200 1000v-200h100
v200h-100zM900 100h100v200h-100v-200zM300 100v200h-100v-200h100zM1000 1000h-100v-200h100v200z" />
    <glyph glyph-name="uni2325" unicode="&#x2325;" horiz-adv-x="1400" 
d="M0 1100h500v-200h100v-200h100v-200h100v-200h100v-200h400v-100h-500v100h-100v200h-100v200h-100v200h-100v200h-100v100h-300v100zM1300 1000h-500v100h500v-100z" />
    <glyph glyph-name="lozenge" unicode="&#x25ca;" horiz-adv-x="700" 
d="M600 500h-100v-200h-100v-200h-200v200h-100v200h-100v100h100v200h100v200h200v-200h100v-200h100v-100zM400 500v100h-200v-100h200z" />
    <glyph glyph-name="uni2661" unicode="&#x2661;" horiz-adv-x="1500" 
d="M1000 200h-100v-100h-100v-100h-200v100h-100v100h-100v100h-100v100h-100v100h-100v100h-100v300h100v100h100v100h400v-100h200v100h400v-100h100v-100h100v-300h-100v-100h-100v-100h-100v-100h-100v-100zM600 300v-100h200v100h100v100h100v100h100v100h100v300h-100
v100h-200v-100h-100v-100h-200v100h-100v100h-200v-100h-100v-300h100v-100h100v-100h100v-100h100z" />
    <glyph glyph-name="heart" unicode="&#x2665;" horiz-adv-x="1500" 
d="M1000 200h-100v-100h-100v-100h-200v100h-100v100h-100v100h-100v100h-100v100h-100v100h-100v300h100v100h100v100h400v-100h200v100h400v-100h100v-100h100v-300h-100v-100h-100v-100h-100v-100h-100v-100z" />
    <glyph glyph-name="uniF600" unicode="&#xf600;" horiz-adv-x="2300" 
d="M1100 0v100h-100v100h-100v200h-100v-100h-200v200h100v200h100v100h200v-100h100v-100h-100v-200h100v200h100v300h200v-100h200v-100h100v-100h200v400h100v100h200v100h200v-100h-100v-100h-200v-400h-100v-400h-200v100h-100v100h-200v-300h-200v200h-200v-100h100
v-100h100v-100h-200zM600 300v-100h100v-100h-100v-100h-400v100h-100v100h-100v300h100v100h100v100h-100v200h100v100h400v-100h100v-100h-200v100h-200v-200h200v-100h-200v-100h-100v-300h200v100h200zM1300 1000v100h200v-100h-200zM1400 400v200h-100v-200h100z" />
    <glyph glyph-name="uniF601" unicode="&#xf601;" horiz-adv-x="2800" 
d="M2200 0v100h200v100h-200v100h-200v100h-100v-100h-200v-100h-200v-100h200v-100h200v-100h100v100h200zM1100 0v-100h-200v-100h-300v100h-200v100h-200v100h-200v100h200v100h200v100h200v100h-200v100h-200v100h-200v100h200v100h200v100h200v100h300v-100h200v-100
h200v-100h100v100h200v100h200v100h300v-100h200v-100h200v-100h200v-100h-200v-100h-200v-100h-200v-100h200v-100h200v-100h200v-100h-200v-100h-200v-100h-200v-100h-300v100h-200v100h-200v100h-100v-100h-200zM700 400v-100h-200v-100h-200v-100h200v-100h200v-100h100
v100h200v100h200v100h-200v100h-200v100h-100zM1700 700v-100h200v-100h100v100h200v100h200v100h-200v100h-200v100h-100v-100h-200v-100h-200v-100h200zM1600 500v100h-200v100h-100v-100h-200v-100h-200v-100h200v-100h200v-100h100v100h200v100h200v100h-200zM1000 700
h200v100h-200v100h-200v100h-100v-100h-200v-100h-200v-100h200v-100h200v-100h100v100h200v100z" />
    <glyph glyph-name="uniF602" unicode="&#xf602;" horiz-adv-x="1600" 
d="M1100 0v-100h-200v-100h-300v100h-200v100h-200v100h-200v800h200v100h200v100h200v100h300v-100h200v-100h200v-100h200v-800h-200v-100h-200zM1300 700h-200v-100h-200v-600h100v100h200v100h100v500zM600 600h-200v100h-200v-500h100v-100h200v-100h200v500h-100v100z
M500 900h-200v-100h200v-100h200v-100h100v100h200v100h200v100h-200v100h-200v100h-100v-100h-200v-100z" />
    <glyph glyph-name="uniF603" unicode="&#xf603;" horiz-adv-x="2000" 
d="M1100 0h200v200h-100v100h-100v-300zM0 0v500h200v100h200v500h200v100h200v100h300v-100h200v-100h200v-500h200v-100h200v-500h-200v-100h-200v-100h-300v100h-200v100h-100v-100h-200v-100h-300v100h-200v100h-200zM600 300v100h200v100h-200v100h-100v-100h-200v-100
h200v-100h100zM800 800v100h-200v-200h100v-100h200v200h-100zM1200 600v100h100v200h-200v-300h100zM1600 500h-200v100h-100v-100h-200v-100h200v-100h100v100h200v100zM900 100v200h-200v-300h100v100h100zM1600 0v100h100v200h-200v-300h100zM1000 1200h-100v-100h-200
v-100h200v-100h100v100h200v100h-200v100zM300 0h200v200h-100v100h-200v-200h100v-100z" />
    <glyph glyph-name="uniF604" unicode="&#xf604;" horiz-adv-x="1600" 
d="M1100 0v-100h-200v-100h-300v100h-200v100h-200v100h-200v800h200v100h200v100h200v100h300v-100h200v-100h200v-100h200v-800h-200v-100h-200z" />
    <glyph glyph-name="uniF605" unicode="&#xf605;" horiz-adv-x="1600" 
d="M1100 0h-300v-100h-200v100h-200v100h-200v100h-100v600h100v100h200v100h200v100h300v-100h200v-100h200v-100h100v-600h-100v-100h-200v-100zM400 700v100h-100v-100h100zM600 600v100h-100v-100h100zM1100 700h100v100h-100v-100zM900 600h100v100h-100v-100zM700 600
v-100h100v100h-100z" />
    <glyph glyph-name="uniF606" unicode="&#xf606;" horiz-adv-x="1700" 
d="M1600 100v-300h-500v100h100v100h-200v100h-400v-100h-200v-100h100v-100h-500v300h200v-100h100v100h200v100h200v700h-200v100h100v100h100v100h200v-100h100v-100h100v-100h-200v-700h200v-100h200v-100h100v100h200z" />
    <glyph glyph-name="uniF607" unicode="&#xf607;" horiz-adv-x="1800" 
d="M200 1100h100v100h200v-100h100v100h200v-100h100v-200h-100v-200h100v-100h400v100h100v200h200v-100h100v-400h-100v-600h-100v-100h-500v200h100v200h-300v-300h-100v-100h-500v200h100v600h-200v100h-100v200h100v100h100v200zM800 400v100h-100v200h-100v100h-200
v100h300v100h-300v-100h-100v-100h-100v-200h300v-100h100v-300h-100v-300h-100v-100h200v300h100v100h500v-100h100v-200h-100v-100h200v600h100v200h-100v-100h-100v-100h-500z" />
    <glyph glyph-name="uniF608" unicode="&#xf608;" horiz-adv-x="2500" 
d="M0 -600v2000h2500v-2000h-2500z" />
    <glyph glyph-name="uniF609" unicode="&#xf609;" horiz-adv-x="2500" 
d="M0 -600v2000h2500v-2000h-2500z" />
    <glyph glyph-name="uniF60A" unicode="&#xf60a;" horiz-adv-x="1700" 
d="M1000 200h-100v-100h100v100zM900 500h100v100h-100v-100zM1000 -200h-100v-100h100v100zM700 400v-100h100v100h-100zM200 1000v-100h100v100h-100zM800 800h-100v-100h100v100zM300 500v100h-100v-100h100zM900 -500v-100h-600v100h-100v-100h-200v2000h200v-200h100
v100h600v-100h100v200h700v-2000h-700v100h-100zM400 0v-100h100v100h-100zM400 -400v-100h100v100h-100zM500 1200h-100v-100h100v100zM500 300v100h-100v-100h100zM700 0v-100h100v100h-100zM700 -400v-100h100v100h-100zM300 100v100h-100v-100h100zM200 -200v-100h100
v100h-100zM1000 1000h-100v-100h100v100zM400 800v-100h100v100h-100zM700 1100h100v100h-100v-100z" />
    <glyph glyph-name="uniF60B" unicode="&#xf60b;" horiz-adv-x="1700" 
d="M1300 700v100h-100v-100h100zM900 -500h100v100h-100v-100zM1200 300h100v100h-100v-100zM1400 100h100v100h-100v-100zM1300 1100v100h-100v-100h100zM1000 1100v100h-100v-100h100zM1400 -500v-100h-600v100h-100v-100h-700v2000h700v-200h100v100h600v-100h100v200
h200v-2000h-200v100h-100zM1000 700v100h-100v-100h100zM900 -100h100v100h-100v-100zM1400 500h100v100h-100v-100zM900 400v-100h100v100h-100zM700 500h100v100h-100v-100zM700 100h100v100h-100v-100zM1200 -500h100v100h-100v-100zM1400 900h100v100h-100v-100z
M700 -200v-100h100v100h-100zM1300 0h-100v-100h100v100zM800 1000h-100v-100h100v100zM1400 -300h100v100h-100v-100z" />
    <glyph glyph-name="uniF60C" unicode="&#xf60c;" horiz-adv-x="2500" 
d="M100 1400h600v-2000h-600v2000zM1000 -600h-200v2000h200v-2000zM1700 1400h200v-2000h-200v2000zM1200 -600v2000h200v-2000h-200z" />
    <glyph glyph-name="uniF60D" unicode="&#xf60d;" horiz-adv-x="2500" 
d="M1700 1400v-2000h-200v2000h200zM1100 1400h200v-2000h-200v2000zM800 -600h-200v2000h200v-2000zM1800 -600v2000h600v-2000h-600z" />
    <glyph glyph-name="uniF60E" unicode="&#xf60e;" horiz-adv-x="1700" 
d="M100 1400h1000v-2000h-300v100h-100v-100h-200v100h-100v-100h-300v2000zM400 1200h100v100h-100v-100zM700 1200h100v100h-100v-100z" />
    <glyph glyph-name="uniF60F" unicode="&#xf60f;" horiz-adv-x="1700" 
d="M1200 -500v-100h-200v100h-100v-100h-300v2000h1000v-2000h-300v100h-100zM1300 1300h-100v-100h100v100zM1000 1300h-100v-100h100v100z" />
    <glyph glyph-name="uniF610" unicode="&#xf610;" horiz-adv-x="1700" 
d="M500 100h100v-100h-400v100h100v900h-100v-100h-200v200h1600v-200h-200v100h-100v-900h100v-100h-400v100h100v900h-100v-100h-400v100h-100v-900z" />
    <glyph glyph-name="uniF611" unicode="&#xf611;" 
d="M100 1200h200v-400h200v400h200v-400h100v-100h-100v-600h200v-100h-300v100h-100v600h-200v-600h200v-100h-300v100h-100v600h-100v100h100v400z" />
    <glyph glyph-name="uniF700" unicode="&#xf700;" horiz-adv-x="1000" 
d="M0 0v100h100v900h-100v100h400v-100h-100v-300h100v100h100v100h100v100h-100v100h400v-100h-100v-100h-100v-100h-100v-100h-100v-100h100v-100h100v-200h100v-200h100v-100h-400v100h100v200h-100v200h-200v-400h100v-100h-400zM100 1200v100h100v100h300v-100h100v100
h200v-100h-100v-100h-300v100h-100v-100h-200z" />
    <glyph glyph-name="uniF701" unicode="&#xf701;" horiz-adv-x="1000" 
d="M0 0v100h100v900h-100v100h300v-600h100v100h100v100h-100v100h400v-100h-100v-100h-100v-100h-100v-100h100v-100h100v-100h100v-100h100v-100h-400v100h100v100h-100v100h-200v-200h100v-100h-400zM100 1200v100h100v100h300v-100h100v100h200v-100h-100v-100h-300v100
h-100v-100h-200z" />
    <glyph glyph-name="uniF702" unicode="&#xf702;" horiz-adv-x="1600" 
d="M0 0v100h100v900h-100v100h400v-100h-100v-900h400v900h-100v100h400v-100h-100v-900h400v100h200v-200h-1500z" />
    <glyph glyph-name="uniF703" unicode="&#xf703;" horiz-adv-x="800" 
d="M0 0v100h100v1000h-100v100h600v-1100h100v-100h-700zM400 100v1000h-100v-1000h100z" />
    <glyph glyph-name="uniF704" unicode="&#xf704;" horiz-adv-x="1300" 
d="M0 0v100h100v900h-100v100h300v-100h100v-100h100v-100h200v100h100v100h100v100h300v-100h-100v-900h100v-100h-400v100h100v700h-100v-100h-100v-200h-200v200h-100v100h-100v-700h100v-100h-400zM400 1300v-100h-200v100h100v100h400v-100h100v100h200v-100h-100v-100
h-400v100h-100z" />
    <glyph glyph-name="uniF705" unicode="&#xf705;" horiz-adv-x="1500" 
d="M0 0v100h100v600h-100v100h600v-100h200v100h300v-100h100v-100h100v-500h100v-100h-400v100h100v500h-100v100h-100v-100h-100v-500h100v-100h-400v100h100v500h-100v100h-100v-100h-100v-500h100v-100h-400zM200 1000h100v100h400v-100h200v100h200v-100h-100v-100
h-400v100h-200v-100h-200v100z" />
    <glyph glyph-name="uniF706" unicode="&#xf706;" horiz-adv-x="1900" 
d="M1700 1000v-900h100v-100h-400v100h100v400h-400v-400h100v-100h-400v100h-100v-100h-400v100h-200v200h-100v500h100v200h200v100h900v-100h-100v-400h400v400h-100v100h400v-100h-100zM700 800v100h-100v100h-200v-100h-100v-100h-100v-500h100v-100h100v-100h200v100
h100v100h200v500h-200z" />
    <glyph glyph-name="uniF707" unicode="&#xf707;" horiz-adv-x="1700" 
d="M1100 0h-400v100h100v100h-100v-100h-100v-100h-400v100h-100v100h-100v400h100v100h100v100h600v300h-100v100h300v-400h300v-100h100v-100h100v-500h100v-100h-400v100h100v500h-100v100h-100v-100h-100v-500h100v-100zM600 300h200v200h-200v100h-100v100h-200v-100
h-100v-400h100v-100h200v100h100v100z" />
    <glyph glyph-name="uniF708" unicode="&#xf708;" horiz-adv-x="1800" 
d="M0 0v300h200v-100h100v-100h200v100h100v200h-100v100h-300v100h-100v100h-100v200h100v100h100v100h900v-100h-100v-400h400v400h-100v100h400v-100h-100v-900h100v-100h-400v100h100v400h-400v-400h100v-100h-400v100h100v100h-100v-100h-100v-100h-600zM700 400h100
v400h-200v100h-100v100h-200v-100h-100v-200h100v-100h300v-100h100v-100z" />
    <glyph glyph-name="uniF709" unicode="&#xf709;" horiz-adv-x="1600" 
d="M0 0v300h200v-100h100v-100h200v200h-200v100h-200v100h-100v200h100v100h600v300h-100v100h300v-400h300v-100h100v-100h100v-500h100v-100h-400v100h100v500h-100v100h-100v-100h-100v-500h100v-100h-1000zM600 300h100v200h-200v100h-100v100h-200v-200h200v-100h200
v-100z" />
    <glyph glyph-name="uniF70A" unicode="&#xf70a;" horiz-adv-x="1800" 
d="M1600 100h100v-100h-400v100h100v400h-400v-400h100v-100h-400v100h100v800h-200v100h-100v-900h100v-100h-400v100h100v900h-100v-100h-200v200h1100v-100h-100v-400h400v400h-100v100h400v-100h-100v-900z" />
    <glyph glyph-name="uniF70B" unicode="&#xf70b;" horiz-adv-x="1400" 
d="M100 1200h200v-400h100v-100h-100v-600h200v1000h-100v100h300v-400h300v-100h100v-100h100v-500h100v-100h-400v100h100v500h-100v100h-100v-100h-100v-500h100v-100h-600v100h-100v600h-100v100h100v400z" />
    <glyph glyph-name="uniF70C" unicode="&#xf70c;" horiz-adv-x="1100" 
d="M0 0v100h100v900h-100v100h400v-100h-100v-900h400v900h-100v100h300v-1000h100v-100h-1000z" />
    <glyph glyph-name="uniF70D" unicode="&#xf70d;" horiz-adv-x="1800" 
d="M1600 100h100v-100h-400v100h100v500h-100v100h-100v-100h-100v-500h100v-100h-400v100h-100v-100h-400v100h-200v200h-100v500h100v200h200v100h800v-300h300v-100h100v-100h100v-500zM700 800v100h-100v100h-200v-100h-100v-100h-100v-500h100v-100h100v-100h200v100
h100v100h200v500h-200z" />
    <glyph glyph-name="uniF70E" unicode="&#xf70e;" horiz-adv-x="1700" 
d="M0 0v300h200v-100h100v-100h200v100h100v200h-100v100h-300v100h-100v100h-100v200h100v100h100v100h800v-300h300v-100h100v-100h100v-500h100v-100h-400v100h100v500h-100v100h-100v-100h-100v-500h100v-100h-400v100h100v100h-100v-100h-100v-100h-600zM700 400h100
v400h-200v100h-100v100h-200v-100h-100v-200h100v-100h300v-100h100v-100z" />
    <glyph glyph-name="uniF70F" unicode="&#xf70f;" horiz-adv-x="1700" 
d="M1600 100v-100h-400v100h100v500h-100v100h-100v-100h-100v-500h100v-100h-400v100h100v800h-200v100h-100v-900h100v-100h-400v100h100v900h-100v-100h-200v200h1000v-300h300v-100h100v-100h100v-500h100z" />
    <glyph glyph-name="uniF710" unicode="&#xf710;" horiz-adv-x="2100" 
d="M0 0v400h100v300h100v400h200v-400h-100v-100h100v100h100v100h100v100h100v200h200v-200h-100v-100h-100v-100h-100v-100h-100v-100h100v-100h100v200h100v200h200v-100h100v100h300v-100h100v-200h-100v-100h-100v-100h-300v100h-100v-100h-200v-100h100v-100h200v-100
h-300v100h-100v100h-100v200h-100v100h-100v-100h-100v-400h-200zM1200 600h-100v-200h100v100h100v200h-100v-100zM1700 700h100v-200h100v-300h-100v-100h-100v-100h-500v100h400v100h100v300h-100v200h-100v100h-100v100h100v100h100v100h400v-100h-300v-100h-100v-100
h100v-100z" />
    <glyph glyph-name="uniF711" unicode="&#xf711;" horiz-adv-x="1100" 
d="M0 1100h200v-100h100v100h200v-100h-100v-100h-100v-100h100v-100h100v-100h-200v100h-100v-100h-200v500zM700 400h100v100h200v-100h-100v-100h-100v-100h100v-100h100v-100h-200v100h-100v-100h-200v500h200v-100z" />
    <glyph glyph-name="uniF712" unicode="&#xf712;" horiz-adv-x="1600" 
d="M900 500h-200v-100h400v100h400v-100h-300v-100h200v-100h100v-100h-100v-100h-400v100h300v100h-200v100h-600v300h-200v100h-100v-100h-200v500h200v-100h100v100h200v-100h-100v-100h-100v-100h100v-100h100v100h500v-100h-300v-100h200v-100z" />
    <glyph glyph-name="uniF713" unicode="&#xf713;" horiz-adv-x="1100" 
d="M500 100h300v100h-200v100h-100v100h100v100h400v-100h-300v-100h200v-100h100v-100h-100v-100h-400v100zM0 1100h200v-100h100v100h200v-100h-100v-100h-100v-100h100v-100h100v-100h-200v100h-100v-100h-200v500z" />
    <glyph glyph-name="uniF714" unicode="&#xf714;" horiz-adv-x="1200" 
d="M1100 0h-400v100h100v300h-200v-100h-300v100h200v200h-400v100h-100v300h100v100h400v-100h-300v-100h300v-200h100v100h300v-100h-200v-200h400v-100h-100v-300h100v-100zM200 700h100v100h-100v-100z" />
    <glyph glyph-name="uniF715" unicode="&#xf715;" horiz-adv-x="1300" 
d="M1000 200h-800v100h100v100h-100v100h100v100h-100v100h100v100h-100v100h800v-100h-100v-100h100v-100h-100v-100h100v-100h-100v-100h100v-100z" />
    <glyph glyph-name="uniF71C" unicode="&#xf71c;" horiz-adv-x="1000" 
d="M-500 -300h800v100h200v100h100v100h-400v100h-100v100h-100v400h100v100h100v100h700v-100h-100v-800h-100v-100h-100v-100h-200v-100h-800v-100h-200v100h100v100zM500 100v100h100v400h-100v100h-200v-100h-100v-400h100v-100h200z" />
    <glyph glyph-name="uniF71D" unicode="&#xf71d;" horiz-adv-x="400" 
d="M100 1200h200v-200h-200v200zM-1000 -400h100v100h700v100h200v100h100v800h-100v100h300v-900h-100v-100h-100v-100h-200v-100h-700v-100h-200v100z" />
    <glyph glyph-name="uniF71E" unicode="&#xf71e;" horiz-adv-x="800" 
d="M500 100v200h-200v100h-200v100h-100v200h100v100h600v-300h-200v100h-100v100h-200v-200h200v-100h200v-100h100v-200h-100v-100h-100v-100h-200v-100h-900v-100h-200v100h100v100h900v100h200v100h100z" />
    <glyph glyph-name="uniF71F" unicode="&#xf71f;" 
d="M0 -400h-700v-100h-200v100h100v100h700v100h200v100h100v100h100v200h-100v300h-100v200h-100v100h800v-100h-100v-200h-100v-300h-100v-200h-100v-100h-100v-100h-100v-100h-200v-100zM300 500h200v200h-200v-200z" />
    <glyph glyph-name="uniFB00" unicode="&#xfb00;" 
d="M0 0v100h100v600h-100v100h100v200h100v100h100v100h300v-100h-200v-100h-100v-200h200v200h100v100h100v100h300v-100h-200v-100h-100v-200h100v-100h-100v-600h100v-100h-800zM500 100v600h-200v-600h200z" />
    <glyph glyph-name="fi" unicode="&#xfb01;" 
d="M500 100v600h-200v-600h200zM0 0v100h100v600h-100v100h100v200h100v100h100v100h300v-100h-200v-100h-100v-200h400v-700h100v-100h-800z" />
    <glyph glyph-name="fl" unicode="&#xfb02;" 
d="M500 100v1000h-100v-100h-100v-200h100v-100h-100v-600h200zM0 0v100h100v600h-100v100h100v200h100v100h100v100h400v-1100h100v-100h-800z" />
    <glyph glyph-name="uniFB03" unicode="&#xfb03;" horiz-adv-x="1300" 
d="M0 0v100h100v600h-100v100h100v200h100v100h100v100h300v-100h-200v-100h-100v-200h200v200h100v100h100v100h300v-100h-200v-100h-100v-200h400v-700h100v-100h-1200zM500 100v600h-200v-600h200zM900 100v600h-200v-600h200z" />
    <glyph glyph-name="uniFB04" unicode="&#xfb04;" horiz-adv-x="1300" 
d="M0 0v100h100v600h-100v100h100v200h100v100h100v100h300v-100h-200v-100h-100v-200h200v200h100v100h100v100h400v-1100h100v-100h-1200zM500 100v600h-200v-600h200zM800 800v-100h-100v-600h200v1000h-100v-100h-100v-200h100z" />
    <glyph glyph-name="uniFB05" unicode="&#xfb05;" 
d="M500 100v600h-100v100h100v300h-100v-100h-100v-900h100v-100h-400v100h100v600h-100v100h100v200h100v100h100v100h400v-400h100v-100h-100v-600h200v-100h-300v100h-100z" />
    <glyph glyph-name="uniFB06" unicode="&#xfb06;" horiz-adv-x="1200" 
d="M0 0v300h200v-100h100v-100h200v200h-200v100h-200v100h-100v200h100v100h300v200h100v100h300v100h200v-400h100v-100h-100v-600h200v-100h-300v100h-100v600h-100v-200h-200v100h-100v100h-200v-200h200v-100h200v-100h100v-200h-100v-100h-600zM800 800v100h-100v100
h-100v-200h200z" />
    <glyph glyph-name="uniFB07" unicode="&#xfb07;" horiz-adv-x="1300" 
d="M600 300h200v-100h-100v-100h-100v-100h-400v100h-100v100h-100v400h100v100h100v100h300v200h100v100h300v100h200v-400h100v-100h-100v-600h200v-100h-300v100h-100v600h-100v-200h-200v100h-100v100h-200v-100h-100v-400h100v-100h200v100h100v100zM700 800h200v100
h-100v100h-100v-200z" />
  </font>
</defs>
</svg>
